<svg width="24" height="24" viewBox="0 0 24 24" fill="none" xmlns="http://www.w3.org/2000/svg">
<g clip-path="url(#clip0_499_0)">
<path d="M12 1.5C6.21 1.5 1.5 6.21 1.5 12C1.5 17.79 6.21 22.5 12 22.5C17.79 22.5 22.5 17.79 22.5 12C22.5 6.21 17.79 1.5 12 1.5ZM7.722 6.49725C8.8755 6.49725 9.81075 7.4325 9.81075 8.586C9.81075 9.7395 8.8755 10.6747 7.722 10.6747C6.5685 10.6747 5.63325 9.7395 5.63325 8.586C5.63325 7.43175 6.5685 6.49725 7.722 6.49725ZM12 19.5C8.60475 19.5 5.8425 16.7378 5.8425 13.3425H7.3425C7.3425 15.9105 9.432 18 12 18C14.568 18 16.6575 15.9105 16.6575 13.3425H18.1575C18.1575 16.7378 15.3953 19.5 12 19.5ZM16.278 10.674C15.1245 10.674 14.1893 9.73875 14.1893 8.58525C14.1893 7.43175 15.1245 6.4965 16.278 6.4965C17.4315 6.4965 18.3668 7.43175 18.3668 8.58525C18.3668 9.73875 17.4315 10.674 16.278 10.674Z" fill="#FEBF2C"/>
<path d="M12 0C5.37225 0 0 5.37225 0 12C0 18.6278 5.37225 24 12 24C18.6278 24 24 18.6278 24 12C24 5.37225 18.6278 0 12 0ZM12 22.5C6.21 22.5 1.5 17.79 1.5 12C1.5 6.21 6.21 1.5 12 1.5C17.79 1.5 22.5 6.21 22.5 12C22.5 17.79 17.79 22.5 12 22.5Z" fill="#333333"/>
<path d="M12 18C9.43203 18 7.34253 15.9105 7.34253 13.3425H5.84253C5.84253 16.7378 8.60478 19.5 12 19.5C15.3953 19.5 18.1575 16.7378 18.1575 13.3425H16.6575C16.6575 15.9105 14.568 18 12 18Z" fill="#333333"/>
<path d="M7.72205 10.6741C8.87564 10.6741 9.8108 9.73892 9.8108 8.58533C9.8108 7.43175 8.87564 6.49658 7.72205 6.49658C6.56847 6.49658 5.6333 7.43175 5.6333 8.58533C5.6333 9.73892 6.56847 10.6741 7.72205 10.6741Z" fill="#333333"/>
<path d="M16.278 10.6741C17.4315 10.6741 18.3667 9.73892 18.3667 8.58533C18.3667 7.43175 17.4315 6.49658 16.278 6.49658C15.1244 6.49658 14.1892 7.43175 14.1892 8.58533C14.1892 9.73892 15.1244 10.6741 16.278 10.6741Z" fill="#333333"/>
</g>
<defs>
<clipPath id="clip0_499_0">
<rect width="24" height="24" fill="white"/>
</clipPath>
</defs>
</svg>
