<svg width="60" height="60" viewBox="0 0 60 60" fill="none" xmlns="http://www.w3.org/2000/svg">
<g clip-path="url(#clip0_165_6)">
<path d="M18.7873 54.8178H41.2127C41.4367 54.8178 41.6182 54.6364 41.6183 54.4123L18.7873 54.8178ZM18.7873 54.8178C18.5634 54.8178 18.3818 54.6363 18.3818 54.4123M18.7873 54.8178L18.3818 54.4123M18.3818 54.4123C18.3818 54.1883 18.5633 54.0068 18.7873 54.0068M18.3818 54.4123L18.7873 54.0068M18.7873 54.0068H41.2128M18.7873 54.0068H41.2128M41.2128 54.0068C41.4367 54.0068 41.6183 54.1883 41.6183 54.4122L41.2128 54.0068Z" fill="white" stroke="#ED7971"/>
<path d="M44.7426 58.2526L44.7426 58.2526L44.7439 58.2573C44.8793 58.7513 44.6336 59.2584 44.2019 59.4312C43.668 59.6448 43.0836 59.3456 42.9349 58.8071L40.3313 48.9636H42.2931L44.7426 58.2526ZM42.1957 48.5943L42.196 48.5956C42.1958 48.5948 42.1956 48.5941 42.1954 48.5934L42.1957 48.5943Z" fill="white" stroke="#ED7971"/>
<path d="M15.8028 59.4321L15.8028 59.4321C15.3683 59.2615 15.1198 58.7536 15.2554 58.2584L15.2566 58.2539L17.7068 48.9626H19.6686L17.065 58.8061C16.9174 59.3406 16.3385 59.6425 15.8028 59.4321ZM17.8042 48.5933C17.8041 48.5937 17.8039 48.5941 17.8038 48.5945L17.8042 48.5933Z" fill="white" stroke="#ED7971"/>
<path d="M43.5772 59.0652L43.5772 59.0652L43.5783 59.0695C43.6199 59.2213 43.6785 59.364 43.7515 59.4959C43.3744 59.4581 43.0418 59.1946 42.9348 58.8071L40.3313 48.9636H40.9054L43.5772 59.0652ZM41.4187 48.9488L41.2959 48.4845V48.9636C41.3388 48.9636 41.3799 48.9585 41.4187 48.9488Z" fill="white" stroke="#ED7971"/>
<path d="M17.8042 48.5933C17.8041 48.5937 17.8039 48.5941 17.8038 48.5945L17.8042 48.5933ZM17.8042 48.5933C17.8047 48.5912 17.8052 48.5891 17.8058 48.587L17.8042 48.5933L17.8042 48.5933ZM16.0718 59.4961C15.9816 59.4881 15.8912 59.4669 15.8027 59.4321C15.3683 59.2616 15.1198 58.7536 15.2554 58.2585L15.2566 58.2539L17.7068 48.9626H18.281L15.8986 57.9967C15.7591 58.5086 15.8284 59.0485 16.0718 59.4961Z" fill="white" stroke="#ED7971"/>
<path d="M30.9451 5.51081V1.4975C30.9451 0.949342 30.5173 0.50844 30.0154 0.500606L30.9451 5.51081ZM30.9451 5.51081C30.8391 5.50757 30.7195 5.50453 30.5884 5.50214C30.1731 5.49456 29.6398 5.49345 29.0563 5.51354M30.9451 5.51081L29.0563 5.51354M29.0563 5.51354C29.0562 5.45287 29.0561 5.38791 29.056 5.31923C29.0552 4.88979 29.0549 4.31688 29.0547 3.7435C29.0545 2.65136 29.0551 1.55946 29.0551 1.4538L29.0551 1.44547C29.0551 0.918583 29.4863 0.492419 30.0153 0.500606L29.0563 5.51354Z" fill="white" stroke="#ED7971"/>
<mask id="path-7-inside-1_165_6" fill="white">
<path d="M30.3359 1.44529C30.3359 0.987553 30.5491 0.579975 30.8812 0.315249C30.6441 0.123999 30.3485 0.0055222 30.0231 0.000483141C29.2145 -0.0120559 28.5551 0.639624 28.5551 1.44529C28.5551 1.4522 28.5527 6.03646 28.5596 6.03611C29.3041 5.99462 29.7876 5.99205 30.3359 5.99966V1.44529Z"/>
</mask>
<path d="M30.3359 1.44529C30.3359 0.987553 30.5491 0.579975 30.8812 0.315249C30.6441 0.123999 30.3485 0.0055222 30.0231 0.000483141C29.2145 -0.0120559 28.5551 0.639624 28.5551 1.44529C28.5551 1.4522 28.5527 6.03646 28.5596 6.03611C29.3041 5.99462 29.7876 5.99205 30.3359 5.99966V1.44529Z" fill="white"/>
<path d="M30.8812 0.315249L31.5045 1.09722L32.4796 0.319926L31.509 -0.46306L30.8812 0.315249ZM30.0231 0.000483141L30.0076 1.00036L30.0076 1.00036L30.0231 0.000483141ZM28.5596 6.03611L28.6103 7.03483L28.6152 7.03456L28.5596 6.03611ZM30.3359 5.99966L30.322 6.99957L31.3359 7.01365V5.99966H30.3359ZM31.3359 1.44529C31.3359 1.30563 31.3995 1.18089 31.5045 1.09722L30.2578 -0.466722C29.6986 -0.0209437 29.3359 0.66948 29.3359 1.44529H31.3359ZM31.509 -0.46306C31.1118 -0.783526 30.6039 -0.990643 30.0386 -0.999397L30.0076 1.00036C30.0932 1.00169 30.1764 1.03152 30.2533 1.09356L31.509 -0.46306ZM30.0386 -0.999397C28.6709 -1.02061 27.5551 0.0820923 27.5551 1.44529H29.5551C29.5551 1.19716 29.7581 0.996494 30.0076 1.00036L30.0386 -0.999397ZM27.5551 1.44529C27.5551 1.44517 27.5551 1.44935 27.5551 1.45857C27.5551 1.46745 27.5551 1.48052 27.5551 1.49751C27.5551 1.53148 27.555 1.5811 27.555 1.64412C27.555 1.77017 27.5549 1.94986 27.5548 2.16528C27.5547 2.59612 27.5546 3.16997 27.5547 3.74364C27.5549 4.31719 27.5552 4.89102 27.556 5.32164C27.5563 5.53678 27.5568 5.71708 27.5574 5.84397C27.5577 5.90708 27.558 5.95878 27.5584 5.99546C27.5586 6.01314 27.5589 6.03092 27.5592 6.04585C27.5593 6.05197 27.5597 6.06511 27.5604 6.07983C27.5606 6.08453 27.5615 6.10504 27.564 6.13055C27.5647 6.13819 27.5683 6.17721 27.5777 6.22602C27.5842 6.25669 27.6084 6.34481 27.6287 6.40142C27.6941 6.53719 28.1498 6.94832 28.6103 7.03482L28.5088 5.0374C28.9693 5.1239 29.4249 5.535 29.4904 5.67069C29.5106 5.72723 29.5348 5.81525 29.5412 5.84578C29.5506 5.89432 29.5542 5.93292 29.5549 5.94002C29.5572 5.96442 29.558 5.98328 29.5581 5.98577C29.5586 5.9961 29.5587 6.00267 29.5587 6.00013C29.5586 5.99773 29.5585 5.98979 29.5583 5.97391C29.558 5.94348 29.5577 5.89671 29.5574 5.83449C29.5568 5.71072 29.5563 5.53288 29.556 5.31819C29.5552 4.88914 29.5549 4.31654 29.5547 3.74321C29.5545 2.59597 29.5551 1.45015 29.5551 1.44529H27.5551ZM28.6152 7.03456C29.332 6.99462 29.7918 6.9922 30.322 6.99957L30.3498 4.99976C29.7834 4.99189 29.2761 4.99463 28.5039 5.03766L28.6152 7.03456ZM31.3359 5.99966V1.44529H29.3359V5.99966H31.3359Z" fill="#ED7971" mask="url(#path-7-inside-1_165_6)"/>
<path d="M54.8266 48.4421H5.17387C4.6367 48.4421 4.20117 48.0066 4.20117 47.4694V11.944H55.7994V47.4694C55.7994 47.4694 55.7994 47.4695 55.7994 47.4695C55.7993 48.0066 55.3638 48.4421 54.8266 48.4421Z" fill="white" stroke="#ED7971"/>
<path d="M5.61582 11.8267V47.3076C5.61582 47.6787 5.71598 48.0263 5.89073 48.325H5.2184C4.65656 48.325 4.20117 47.8695 4.20117 47.3078V11.8267H5.61582Z" fill="white" stroke="#ED7971"/>
<path d="M57.7793 11.189H2.22103C1.72172 11.189 1.31104 10.7784 1.31104 10.279V6.80085C1.31104 6.30154 1.72166 5.89085 2.22103 5.89085H57.7793C58.2786 5.89085 58.6893 6.30147 58.6893 6.80085V10.2791C58.6893 10.7784 58.2787 11.189 57.7793 11.189Z" fill="white" stroke="#ED7971"/>
<path d="M1.31104 10.2364V9.52626C1.59312 9.6849 1.91815 9.77551 2.26357 9.77551H57.7365C58.082 9.77551 58.407 9.6849 58.6892 9.52624V10.2364C58.6892 10.7592 58.2594 11.189 57.7366 11.189H2.26357C1.74082 11.189 1.31104 10.7593 1.31104 10.2364Z" fill="white" stroke="#ED7971"/>
<path d="M49.7522 29.223H44.0215C43.5242 29.223 43.1152 28.814 43.1152 28.3167V27.5511C43.1152 27.0539 43.5242 26.6449 44.0215 26.6449H49.7522C50.2495 26.6449 50.6584 27.0539 50.6584 27.5511V28.3167C50.6584 28.814 50.2495 29.223 49.7522 29.223Z" fill="white" stroke="#ED7971"/>
<path d="M44.064 28.0649H49.7096C50.0547 28.0649 50.3781 27.9742 50.6584 27.8163V28.2741C50.6584 28.7949 50.2304 29.2229 49.7096 29.2229H44.064C43.5433 29.2229 43.1152 28.7949 43.1152 28.2741V27.8164C43.3956 27.9742 43.719 28.0649 44.064 28.0649Z" fill="white" stroke="#ED7971"/>
<path d="M48.4809 17.9442L48.4809 17.9442C48.6393 18.1025 48.6393 18.3592 48.4809 18.5175L48.4809 18.5176C48.3225 18.6759 48.0658 18.6759 47.9075 18.5176L47.3348 17.9449L46.4812 17.0913V18.2984V21.4409C46.4812 21.6649 46.2997 21.8464 46.0757 21.8464C45.8517 21.8464 45.6702 21.6648 45.6702 21.4409V18.2984V17.0913L44.8167 17.9449L44.244 18.5176C44.0857 18.6758 43.8289 18.6758 43.6706 18.5176L43.6705 18.5175C43.5122 18.3592 43.5122 18.1025 43.6705 17.9442L43.6706 17.9442L45.7888 15.8259L45.789 15.8257C45.9447 15.6699 46.2043 15.6674 46.3624 15.8256L46.3626 15.8259L48.4809 17.9442Z" fill="white" stroke="#ED7971"/>
<path d="M34.925 26.5369L34.9249 26.5368C34.7666 26.3786 34.7665 26.1219 34.925 25.9635L34.5714 25.6099L34.925 25.9635L37.0346 23.8538C37.0386 23.8501 37.0431 23.8458 37.0479 23.841L36.6944 23.4874L37.0455 23.8434C37.202 23.6891 37.4561 23.6865 37.6151 23.8435L37.9664 23.4878L37.6129 23.8413C37.6171 23.8455 37.621 23.8493 37.6245 23.8526L39.7354 25.9635C39.8938 26.1219 39.8938 26.3786 39.7354 26.537C39.577 26.6952 39.3203 26.6952 39.1619 26.5369L38.5893 25.9643L37.7357 25.1107V26.3178V29.4602C37.7357 29.6842 37.5542 29.8657 37.3302 29.8657C37.1062 29.8657 36.9247 29.6842 36.9247 29.4602V26.3177V25.1106L36.0712 25.9642L35.4984 26.5369C35.4984 26.5369 35.4984 26.537 35.4984 26.537C35.34 26.6952 35.0832 26.6952 34.925 26.5369ZM37.6405 23.867C37.6409 23.8674 37.6405 23.867 37.6395 23.8662L37.6405 23.867Z" fill="white" stroke="#ED7971"/>
<path d="M28.8718 31.8653L28.8714 31.8649C28.7134 31.7065 28.455 31.7063 28.2969 31.8649L28.2964 31.8654L26.1789 33.9828C26.1789 33.9828 26.1789 33.9828 26.1789 33.9828C26.0205 34.1412 26.0205 34.3979 26.1788 34.5563C26.1788 34.5563 26.1788 34.5563 26.1789 34.5563M28.8718 31.8653L26.1789 34.5563M28.8718 31.8653L30.9893 33.9829L30.9894 33.983C31.1476 34.1412 31.1477 34.3979 30.9894 34.5563M28.8718 31.8653L30.9894 34.5563M26.1789 34.5563C26.3372 34.7146 26.594 34.7145 26.7522 34.5563L26.7523 34.5562L27.3251 33.9834L28.1786 33.1298V34.337V37.4795C28.1786 37.7035 28.3601 37.885 28.5841 37.885C28.8082 37.885 28.9896 37.7035 28.9896 37.4795V34.3371V33.13L29.8432 33.9835L30.4159 34.5562L30.416 34.5563C30.5742 34.7146 30.8308 34.7147 30.9893 34.5563M26.1789 34.5563H30.9893M30.9893 34.5563C30.9893 34.5563 30.9893 34.5563 30.9894 34.5563M30.9893 34.5563L30.9894 34.5563" fill="white" stroke="#ED7971"/>
<path d="M17.3217 27.2426H12.5515C12.3276 27.2426 12.146 27.0611 12.146 26.8371C12.146 26.6131 12.3275 26.4316 12.5515 26.4316H17.3217C17.5457 26.4316 17.7272 26.6131 17.7272 26.8371C17.7272 27.0611 17.5457 27.2426 17.3217 27.2426Z" fill="white" stroke="#ED7971"/>
<path d="M19.7068 31.728H10.1662C9.94231 31.728 9.76074 31.5465 9.76074 31.3225C9.76074 31.0985 9.94224 30.917 10.1662 30.917H19.7068C19.9308 30.917 20.1123 31.0985 20.1123 31.3225C20.1123 31.5465 19.9308 31.728 19.7068 31.728Z" fill="white" stroke="#ED7971"/>
<path d="M10.1662 36.2131H19.7068C19.9306 36.2131 20.1122 36.0318 20.1123 35.8076L10.1662 36.2131ZM10.1662 36.2131C9.94231 36.2131 9.76074 36.0316 9.76074 35.8076M10.1662 36.2131L9.76074 35.8076M9.76074 35.8076C9.76074 35.5836 9.94223 35.4021 10.1662 35.4021M9.76074 35.8076L10.1662 35.4021M10.1662 35.4021H19.7068M10.1662 35.4021H19.7068M19.7068 35.4021C19.9307 35.4021 20.1123 35.5836 20.1123 35.8075L19.7068 35.4021Z" fill="white" stroke="#ED7971"/>
<path d="M10.1662 40.6986H19.7068C19.9306 40.6986 20.1122 40.5172 20.1123 40.2931L10.1662 40.6986ZM10.1662 40.6986C9.94231 40.6986 9.76074 40.517 9.76074 40.2931M10.1662 40.6986L9.76074 40.2931M9.76074 40.2931C9.76074 40.069 9.94224 39.8875 10.1662 39.8875M9.76074 40.2931L10.1662 39.8875M10.1662 39.8875H19.7068M10.1662 39.8875H19.7068M19.7068 39.8875C19.9307 39.8875 20.1123 40.069 20.1123 40.2929L19.7068 39.8875Z" fill="white" stroke="#ED7971"/>
<path d="M49.7522 32.801H44.0215C43.5242 32.801 43.1152 32.3921 43.1152 31.8948V31.1292C43.1152 30.6319 43.5242 30.223 44.0215 30.223H49.7522C50.2495 30.223 50.6584 30.6319 50.6584 31.1292V31.8948C50.6584 32.3921 50.2495 32.801 49.7522 32.801Z" fill="white" stroke="#ED7971"/>
<path d="M44.064 31.6429H49.7096C50.0547 31.6429 50.3781 31.5521 50.6584 31.3943V31.8521C50.6584 32.3728 50.2304 32.8009 49.7096 32.8009H44.064C43.5433 32.8009 43.1152 32.3728 43.1152 31.8521V31.3943C43.3956 31.5521 43.719 31.6429 44.064 31.6429Z" fill="white" stroke="#ED7971"/>
<path d="M49.7522 36.3792H44.0215C43.5242 36.3792 43.1152 35.9702 43.1152 35.473V34.7074C43.1152 34.2101 43.5242 33.8011 44.0215 33.8011H49.7522C50.2495 33.8011 50.6584 34.2101 50.6584 34.7074V35.473C50.6584 35.9702 50.2495 36.3792 49.7522 36.3792Z" fill="white" stroke="#ED7971"/>
<path d="M44.064 35.221H49.7096C50.0547 35.221 50.3781 35.1303 50.6584 34.9725V35.4302C50.6584 35.951 50.2304 36.379 49.7096 36.379H44.064C43.5433 36.379 43.1152 35.951 43.1152 35.4302V34.9725C43.3956 35.1303 43.719 35.221 44.064 35.221Z" fill="white" stroke="#ED7971"/>
<path d="M49.7522 39.9573H44.0215C43.5242 39.9573 43.1152 39.5483 43.1152 39.051V38.2854C43.1152 37.7881 43.5242 37.3792 44.0215 37.3792H49.7522C50.2495 37.3792 50.6584 37.7881 50.6584 38.2854V39.051C50.6584 39.5483 50.2495 39.9573 49.7522 39.9573Z" fill="white" stroke="#ED7971"/>
<path d="M44.064 38.7991H49.7096C50.0547 38.7991 50.3781 38.7084 50.6584 38.5505V39.0083C50.6584 39.5291 50.2304 39.9571 49.7096 39.9571H44.064C43.5433 39.9571 43.1152 39.5291 43.1152 39.0083V38.5505C43.3956 38.7084 43.719 38.7991 44.064 38.7991Z" fill="white" stroke="#ED7971"/>
<path d="M49.7522 43.5352H44.0215C43.5242 43.5352 43.1152 43.1263 43.1152 42.629V41.8634C43.1152 41.3661 43.5242 40.9571 44.0215 40.9571H49.7522C50.2495 40.9571 50.6584 41.3661 50.6584 41.8634V42.629C50.6584 43.1263 50.2495 43.5352 49.7522 43.5352Z" fill="white" stroke="#ED7971"/>
<path d="M44.064 42.3772H49.7096C50.0547 42.3772 50.3781 42.2865 50.6584 42.1287V42.5865C50.6584 43.1072 50.2304 43.5352 49.7096 43.5352H44.064C43.5433 43.5352 43.1152 43.1072 43.1152 42.5865V42.1287C43.3956 42.2865 43.719 42.3772 44.064 42.3772Z" fill="white" stroke="#ED7971"/>
<path d="M41.2092 36.3792H35.4785C34.9812 36.3792 34.5723 35.9702 34.5723 35.473V34.7074C34.5723 34.2101 34.9812 33.8011 35.4785 33.8011H41.2092C41.7065 33.8011 42.1155 34.2101 42.1155 34.7074V35.473C42.1155 35.9702 41.7065 36.3792 41.2092 36.3792Z" fill="white" stroke="#ED7971"/>
<path d="M35.5211 35.221H41.1667C41.5117 35.221 41.8351 35.1303 42.1155 34.9725V35.4302C42.1155 35.951 41.6874 36.379 41.1667 36.379H35.5211C35.0003 36.379 34.5723 35.951 34.5723 35.4302V34.9725C34.8526 35.1303 35.176 35.221 35.5211 35.221Z" fill="white" stroke="#ED7971"/>
<path d="M41.2092 39.9573H35.4785C34.9812 39.9573 34.5723 39.5483 34.5723 39.051V38.2854C34.5723 37.7881 34.9812 37.3792 35.4785 37.3792H41.2092C41.7065 37.3792 42.1155 37.7881 42.1155 38.2854V39.051C42.1155 39.5483 41.7065 39.9573 41.2092 39.9573Z" fill="white" stroke="#ED7971"/>
<path d="M35.5211 38.7991H41.1667C41.5117 38.7991 41.8351 38.7084 42.1155 38.5505V39.0083C42.1155 39.5291 41.6874 39.9571 41.1667 39.9571H35.5211C35.0003 39.9571 34.5723 39.5291 34.5723 39.0083V38.5505C34.8526 38.7084 35.176 38.7991 35.5211 38.7991Z" fill="white" stroke="#ED7971"/>
<path d="M41.2092 43.5352H35.4785C34.9812 43.5352 34.5723 43.1263 34.5723 42.629V41.8634C34.5723 41.3661 34.9812 40.9571 35.4785 40.9571H41.2092C41.7065 40.9571 42.1155 41.3661 42.1155 41.8634V42.629C42.1155 43.1263 41.7065 43.5352 41.2092 43.5352Z" fill="white" stroke="#ED7971"/>
<path d="M35.5211 42.3772H41.1667C41.5117 42.3772 41.8351 42.2865 42.1155 42.1287V42.5865C42.1155 43.1072 41.6874 43.5352 41.1667 43.5352H35.5211C35.0003 43.5352 34.5723 43.1072 34.5723 42.5865V42.1287C34.8526 42.2865 35.176 42.3772 35.5211 42.3772Z" fill="white" stroke="#ED7971"/>
<path d="M32.6658 43.5352H26.9351C26.4378 43.5352 26.0288 43.1263 26.0288 42.629V41.8634C26.0288 41.3661 26.4378 40.9571 26.9351 40.9571H32.6658C33.1631 40.9571 33.572 41.3661 33.572 41.8634V42.629C33.572 43.1263 33.1631 43.5352 32.6658 43.5352Z" fill="white" stroke="#ED7971"/>
<path d="M26.9776 42.3772H32.6232C32.9683 42.3772 33.2917 42.2865 33.572 42.1287V42.5865C33.572 43.1072 33.144 43.5352 32.6232 43.5352H26.9776C26.4569 43.5352 26.0288 43.1072 26.0288 42.5865V42.1287C26.3091 42.2865 26.6326 42.3772 26.9776 42.3772Z" fill="white" stroke="#ED7971"/>
</g>
<defs>
<clipPath id="clip0_165_6">
<rect width="60" height="60" fill="white"/>
</clipPath>
</defs>
</svg>
