<svg width="64" height="60" viewBox="0 0 64 60" fill="none" xmlns="http://www.w3.org/2000/svg">
<g clip-path="url(#clip0_165_2)">
<path d="M34.0887 1.4474V12.3555C34.0887 13.2629 33.2942 14.0445 32.2793 14.0445H30.995C29.9756 14.0445 29.1855 13.2587 29.1855 12.3555V1.4474C29.1855 1.08165 29.5127 0.734329 29.9645 0.734329H33.3097C33.7619 0.734329 34.0887 1.08153 34.0887 1.4474Z" fill="#ED7971" stroke="#ED7971"/>
<path d="M34.0886 1.4474V12.3555C34.0886 12.9356 33.7672 13.4641 33.2624 13.7707C32.7577 13.464 32.436 12.9355 32.436 12.3555V1.4474C32.436 1.08129 32.7621 0.734329 33.215 0.734329H33.3096C33.7618 0.734329 34.0886 1.08153 34.0886 1.4474Z" fill="white" stroke="#ED7971"/>
<path d="M33.497 30.8028L33.4963 30.8029C32.8919 30.8973 32.2709 30.9466 31.6376 30.9466C25.3052 30.9466 20.2183 26.0843 20.2183 20.1425C20.2183 14.1994 25.3052 9.33759 31.6376 9.33759C32.2712 9.33759 32.8921 9.38641 33.4963 9.48082L33.497 9.48093C38.9381 10.3234 43.056 14.7936 43.056 20.1425C43.056 25.4901 38.9382 29.9602 33.497 30.8028Z" fill="white" stroke="#ED7971"/>
<path d="M43.0558 20.1425C43.0558 25.465 38.9765 29.9182 33.5732 30.7906C28.1687 29.9195 24.0898 25.465 24.0898 20.1425C24.0898 14.8185 28.1687 10.3644 33.5733 9.49296C38.9765 10.3653 43.0558 14.8186 43.0558 20.1425Z" fill="white" stroke="#ED7971"/>
<path d="M37.2539 19.6234L37.2542 19.6232C37.7176 19.1951 37.5065 18.401 36.7775 18.3004L34.7188 18.0163C34.7186 18.0163 34.7184 18.0163 34.7183 18.0162C34.1253 17.9357 33.6009 17.5799 33.3258 17.0505L33.3258 17.0505C32.721 15.8863 32.7006 15.8472 32.5688 15.5953C32.53 15.521 32.4814 15.4282 32.4054 15.2827L32.405 15.2819C32.0967 14.689 31.1777 14.6886 30.8688 15.2821L29.9484 17.0508L29.9483 17.051C29.6729 17.5798 29.1489 17.9356 28.5563 18.0162C28.5561 18.0163 28.5558 18.0163 28.5556 18.0163L26.4964 18.3004C25.7676 18.4011 25.5565 19.1952 26.0197 19.6232L26.02 19.6234L27.5087 21.0007C27.9486 21.4072 28.1577 22.0014 28.0509 22.5909L37.2539 19.6234ZM37.2539 19.6234L35.765 21.0009L35.7649 21.0009C35.325 21.408 35.1181 22.002 35.2233 22.5899L35.2235 22.5908L35.5753 24.5363L35.5754 24.5364C35.681 25.119 35.0076 25.6876 34.3306 25.3498L34.3305 25.3498L32.4897 24.4319L32.4896 24.4319C31.9547 24.1652 31.3195 24.1647 30.7853 24.4324L31.0093 24.8794M37.2539 19.6234L28.0508 22.591L27.6986 24.5362C27.6985 24.5363 27.6985 24.5363 27.6985 24.5364C27.5933 25.1194 28.2666 25.6874 28.9433 25.3498L28.9435 25.3497C29.7041 24.9705 29.8993 24.8732 30.0946 24.776C30.2428 24.7022 30.391 24.6285 30.7866 24.4317L31.0093 24.8794M31.0093 24.8794C31.4021 24.6826 31.8718 24.6826 32.2666 24.8794L29.1665 25.7972C29.9272 25.418 30.1223 25.3207 30.3175 25.2235C30.4656 25.1498 30.6138 25.0761 31.0093 24.8794ZM25.6804 19.9905L27.1694 21.3679C27.4884 21.6627 27.6342 22.0866 27.5589 22.5018L25.6804 19.9905ZM25.6804 19.9905C24.8778 19.2489 25.3208 17.958 26.428 17.8051L25.6804 19.9905Z" fill="white" stroke="#ED7971"/>
<path d="M37.2539 19.6235L37.2541 19.6233C37.7175 19.1951 37.5064 18.4011 36.7774 18.3005L34.7188 18.0164C34.7185 18.0164 34.7183 18.0163 34.7181 18.0163C34.1251 17.9357 33.6008 17.58 33.3258 17.0506L33.3258 17.0506L33.1185 16.6516C33.0505 16.7837 32.9881 16.9013 32.9297 17.0027C32.7526 17.3104 32.559 17.5706 32.2475 17.755C31.9551 17.9281 31.6055 18.0049 31.193 18.0688C30.9715 18.1032 30.6988 18.1378 30.3761 18.1788C30.1027 18.2136 29.7934 18.2529 29.4487 18.3005L29.4486 18.3005C28.7192 18.4011 28.5081 19.195 28.9711 19.6234C28.9712 19.6234 28.9712 19.6235 28.9713 19.6235L30.461 21.0007C30.9014 21.4078 31.109 22.0022 31.0017 22.5911C31.0016 22.5913 31.0016 22.5915 31.0016 22.5916L30.5097 22.5019C30.4433 22.87 30.3851 23.1788 30.3357 23.4405C30.2056 24.131 30.1373 24.4933 30.1434 24.7518L37.2539 19.6235ZM37.2539 19.6235L35.7649 21.0009L35.7649 21.001C35.325 21.4081 35.118 22.002 35.2233 22.59L35.2234 22.5908L35.5753 24.5363L35.5753 24.5365C35.6809 25.1191 35.0076 25.6877 34.3305 25.3499L34.3304 25.3498C34.0581 25.2141 33.8135 25.0901 33.5942 24.979C33.294 24.8268 33.0413 24.6988 32.8304 24.5977C32.4673 24.4236 32.1586 24.2938 31.8636 24.246C31.5378 24.1932 31.2638 24.2444 30.979 24.3538C30.8804 24.3917 30.7741 24.4395 30.66 24.4941L37.2539 19.6235Z" fill="#ED7971" stroke="#ED7971"/>
<path d="M31.4756 33.8068C31.4756 33.6049 31.6565 33.3963 31.9356 33.3963C32.2153 33.3963 32.396 33.6051 32.396 33.8068V35.6008C32.396 35.8025 32.2153 36.0113 31.9356 36.0113C31.6565 36.0113 31.4756 35.8026 31.4756 35.6008V33.8068Z" fill="#ED7971" stroke="#ED7971"/>
<path d="M44.8248 26.3723L44.8246 26.3722C44.5893 26.2433 44.3008 26.3294 44.1807 26.5267L44.1804 26.5273C44.0705 26.7075 44.1238 26.9512 44.3448 27.0721L44.3451 27.0722C44.6881 27.26 44.9623 27.4117 45.1844 27.5345C45.5498 27.7366 45.7743 27.8608 45.9321 27.9399C46.0554 28.0016 46.1041 28.0181 46.1261 28.0237C46.1382 28.0268 46.1496 28.0297 46.2218 28.0297C46.3948 28.0297 46.5478 27.9445 46.6274 27.8139L44.8248 26.3723ZM44.8248 26.3723L46.4628 27.2691M44.8248 26.3723L46.4628 27.2691M46.4628 27.2691C46.4628 27.2691 46.4628 27.2691 46.4629 27.2691M46.4628 27.2691L46.4629 27.2691M46.4629 27.2691C46.6839 27.3901 46.7371 27.634 46.6274 27.8139L46.4629 27.2691Z" fill="#ED7971" stroke="#ED7971"/>
<path d="M44.5938 12.1176L44.5941 12.1175L46.2316 11.2207C46.2317 11.2207 46.2317 11.2207 46.2317 11.2207C46.4667 11.0921 46.7558 11.1779 46.8762 11.3753C46.986 11.5562 46.9326 11.7998 46.7113 11.9211C46.7113 11.9211 46.7113 11.9211 46.7112 11.9211L45.074 12.8177C45.0739 12.8177 45.0739 12.8178 45.0738 12.8178C45.0738 12.8178 45.0738 12.8178 45.0737 12.8178C44.8382 12.9465 44.5496 12.8602 44.4296 12.6632L44.4296 12.663C44.3193 12.4821 44.373 12.2384 44.5938 12.1176Z" fill="#ED7971" stroke="#ED7971"/>
<path d="M18.5811 12.3157L18.5812 12.3158C18.8018 12.4366 18.8554 12.6805 18.7455 12.861C18.6249 13.0588 18.3362 13.1445 18.1011 13.0157L18.101 13.0156L16.4634 12.1189L16.4633 12.1189C16.2427 11.9981 16.1891 11.7541 16.299 11.5737L16.2991 11.5735C16.419 11.3762 16.708 11.2899 16.9434 11.4189L16.9435 11.419L18.5811 12.3157Z" fill="#ED7971" stroke="#ED7971"/>
<path d="M18.6483 26.6648L18.6485 26.6647C18.8839 26.5357 19.1728 26.622 19.2928 26.8192L19.2929 26.8194C19.4028 26.9999 19.3491 27.2439 19.1285 27.3647L19.1285 27.3647L17.4909 28.2614L17.4908 28.2615C17.2553 28.3905 16.9664 28.3042 16.8464 28.107L16.8463 28.1068C16.7365 27.9263 16.7901 27.6823 17.0107 27.5616L17.0107 27.5615L18.6483 26.6648Z" fill="#ED7971" stroke="#ED7971"/>
<path d="M12.6237 50.8317C12.6299 51.4475 12.636 52.0617 12.63 52.6701L3.8429 52.6668V44.8875C3.8429 43.0277 3.28914 41.8936 2.14812 39.5566C1.93124 39.1124 1.69315 38.6248 1.43362 38.0805L1.43352 38.0803C0.764607 36.6789 0.562224 35.4502 0.512212 34.2727L0.512199 34.2724C0.420924 32.153 0.844765 30.0356 1.68795 28.0571L7.75382 16.6951C7.75412 16.6946 7.75441 16.694 7.7547 16.6935C7.75871 16.6864 7.76476 16.6754 7.77593 16.6548C8.31918 15.7085 9.56755 15.2538 10.6766 15.6782C10.8736 15.7545 11.0523 15.8521 11.2098 15.9659C12.0104 16.5483 12.3255 17.5754 11.9417 18.4757L11.9416 18.4757L11.9385 18.4834L8.28345 27.4697C7.93456 28.3269 7.61364 29.6667 7.39467 30.6896L7.39465 30.6897C7.18858 31.6533 7.06632 32.6315 7.02887 33.6136C7.02739 33.6432 7.0274 33.6701 7.02741 33.6858L7.02741 33.6887C7.02741 34.7476 7.92524 35.5675 8.98402 35.5675C10.0389 35.5675 10.9402 34.7517 10.9402 33.6878V32.6643C10.9402 31.185 11.9789 29.8487 13.5145 29.4757C14.1482 29.3223 14.4206 29.4387 14.5548 29.5571C14.7187 29.7017 14.8435 29.9888 14.9089 30.4843L14.9102 30.4943L14.9119 30.5041L16.1221 37.502C16.3247 39.0561 15.8905 40.3214 15.3968 41.2101C15.1493 41.6557 14.8882 42.0037 14.6889 42.2409C14.5895 42.3593 14.5057 42.4498 14.4471 42.5108C14.4178 42.5413 14.3944 42.5648 14.3776 42.5815L14.3547 42.6044C14.3516 42.6075 14.3462 42.613 14.3405 42.619C14.3398 42.6197 14.339 42.6206 14.3381 42.6216C13.1871 43.7809 12.8079 45.5099 12.6785 47.3315C12.6129 48.2555 12.6103 49.2337 12.618 50.2149C12.6196 50.4206 12.6216 50.6262 12.6237 50.8317Z" fill="white" stroke="#ED7971"/>
<path d="M4.82717 38.0805L4.82708 38.0803C4.15816 36.6789 3.95578 35.4502 3.90577 34.2727L3.90575 34.2724C3.81448 32.1529 4.23832 30.0356 5.08151 28.0571L11.1464 16.6968C11.1509 16.689 11.1575 16.6772 11.1694 16.6559C11.2605 16.4958 11.3724 16.3494 11.5011 16.2186C12.0815 16.8173 12.2749 17.6943 11.9418 18.4757L11.9417 18.4756L11.9386 18.4834L8.28354 27.4697C8.28353 27.4697 8.28352 27.4697 8.2835 27.4698C7.93463 28.327 7.61373 29.6668 7.39477 30.6896L7.39475 30.6897C7.18868 31.6533 7.06642 32.6315 7.02896 33.6135C7.02748 33.6431 7.02749 33.6701 7.0275 33.6858L7.0275 33.6887C7.0275 34.7476 7.92533 35.5675 8.98412 35.5675C10.039 35.5675 10.9403 34.7517 10.9403 33.6878V32.6642C10.9403 31.185 11.979 29.8487 13.5146 29.4757C14.1483 29.3223 14.4207 29.4387 14.5549 29.5571C14.7188 29.7017 14.8436 29.9888 14.909 30.4843L14.9103 30.4942L14.912 30.5041L16.1217 37.502C16.3246 39.0561 15.8905 40.3214 15.3969 41.2101C15.1494 41.6557 14.8883 42.0037 14.689 42.2409C14.5896 42.3593 14.5058 42.4498 14.4471 42.5108C14.4178 42.5413 14.3945 42.5648 14.3777 42.5815L14.3548 42.6044C14.3517 42.6074 14.3463 42.613 14.3406 42.619C14.3399 42.6197 14.3391 42.6206 14.3382 42.6216C13.1871 43.7809 12.808 45.5099 12.6786 47.3315C12.613 48.2555 12.6104 49.2337 12.6181 50.2149C12.6197 50.4206 12.6217 50.6263 12.6238 50.8317C12.63 51.4471 12.6361 52.0608 12.6301 52.6687L7.23645 52.6668V44.8875C7.23645 43.0277 6.68269 41.8936 5.54167 39.5566C5.32479 39.1124 5.08671 38.6248 4.82717 38.0805Z" fill="white" stroke="#ED7971"/>
<path d="M15.8413 53.6216V58.9811C15.8413 59.0204 15.8229 59.0819 15.7429 59.1466C15.6619 59.212 15.5322 59.2651 15.3712 59.2651H1.21669C1.05671 59.2651 0.927177 59.2121 0.846134 59.1466C0.765986 59.0818 0.747559 59.0202 0.747559 58.9811V53.6216C0.747559 53.5824 0.765985 53.5209 0.846134 53.456C0.927177 53.3905 1.05671 53.3375 1.21669 53.3375H15.3712C15.5322 53.3375 15.6619 53.3907 15.7429 53.4561C15.8229 53.5208 15.8413 53.5822 15.8413 53.6216Z" fill="#ED7971" stroke="#ED7971"/>
<path d="M15.8412 53.6165V57.0342H5.17842C5.01732 57.0342 4.88729 56.9812 4.8063 56.9161C4.72618 56.8518 4.70898 56.7917 4.70898 56.7552V53.3375H15.3703C15.5324 53.3375 15.6628 53.3907 15.7439 53.4557C15.8241 53.5201 15.8412 53.5801 15.8412 53.6165Z" fill="#ED7971" stroke="#ED7971"/>
<path d="M50.631 52.67C50.625 52.0618 50.6311 51.4477 50.6373 50.832C50.6394 50.6264 50.6414 50.4206 50.643 50.2148C50.6507 49.2337 50.6481 48.2555 50.5824 47.3315C50.453 45.51 50.0738 43.7811 48.9228 42.6218C48.9221 42.6211 48.9215 42.6204 48.921 42.6199C48.9193 42.6181 48.9176 42.6164 48.9161 42.6147C48.9121 42.6106 48.9086 42.6071 48.9064 42.6049L48.8833 42.5818C48.8664 42.5649 48.8431 42.5414 48.8138 42.5109C48.7551 42.4498 48.6714 42.3593 48.5719 42.2409C48.3727 42.0036 48.1116 41.6556 47.8641 41.21C47.3705 40.3214 46.9363 39.0561 47.1389 37.5019L48.3491 30.5041L48.3508 30.4941L48.3521 30.4841C48.4173 29.9887 48.5421 29.7017 48.706 29.557C48.8402 29.4386 49.1127 29.3223 49.7462 29.4756C51.2815 29.8485 52.3209 31.1849 52.3209 32.6642V33.6878C52.3209 34.7517 53.2221 35.5675 54.277 35.5675C55.3358 35.5675 56.2336 34.7475 56.2336 33.6887L56.2336 33.6858C56.2336 33.67 56.2336 33.6431 56.2321 33.6135C56.2322 33.6147 56.2322 33.6159 56.2323 33.6171L50.631 52.67ZM50.631 52.67L59.4181 52.6667V44.8874C59.4181 43.0277 59.9719 41.8935 61.1129 39.5566C61.3298 39.1124 61.5679 38.6247 61.8274 38.0804L61.8275 38.0802C62.4964 36.6788 62.6988 35.4501 62.7488 34.2726L62.7488 34.2723C62.8401 32.1529 62.4163 30.0356 61.5731 28.057L58.5322 22.3611L56.4457 18.4535L55.7529 17.1563L55.5554 16.7869C55.5115 16.7048 55.4888 16.6626 55.485 16.6554C54.8249 15.5035 53.1828 15.1441 52.0516 15.9656L50.631 52.67Z" fill="white" stroke="#ED7971"/>
<path d="M58.434 38.0804L58.434 38.0803C59.1029 36.6789 59.3053 35.4502 59.3549 34.2729L59.3549 34.2724C59.4461 32.1529 59.0227 30.0355 58.1791 28.0571C56.5054 24.9217 55.2903 22.6264 54.3957 20.9364C53.5265 19.2943 52.9597 18.2237 52.5687 17.5093C52.1675 16.7765 51.9706 16.4554 51.8354 16.2823C51.812 16.2524 51.7915 16.2279 51.7717 16.2064C51.182 16.8053 50.9839 17.6888 51.3193 18.4757L51.3226 18.4834L51.3225 18.4834L54.9776 27.4697C55.3265 28.3269 55.6474 29.6667 55.8663 30.6896L55.8664 30.6897C56.0724 31.6533 56.1947 32.6315 56.2321 33.6135C56.2322 33.6147 56.2322 33.6159 56.2323 33.6171L55.7326 33.6361L58.434 38.0804ZM58.434 38.0804C58.1745 38.6244 57.9365 39.1117 57.7197 39.5556C56.5781 41.8932 56.0242 43.0275 56.0242 44.8875V52.6668L50.631 52.6687C50.625 52.0609 50.6311 51.4473 50.6373 50.8321C50.6394 50.6265 50.6414 50.4207 50.643 50.2149C50.6507 49.2337 50.6481 48.2555 50.5824 47.3315C50.453 45.51 50.0738 43.7812 48.9228 42.6219C48.9221 42.6211 48.9215 42.6205 48.921 42.6199C48.9151 42.6137 48.9095 42.608 48.9064 42.6049L48.8833 42.5818C48.8664 42.5649 48.8431 42.5414 48.8138 42.5109C48.7551 42.4499 48.6714 42.3594 48.5719 42.241C48.3727 42.0037 48.1116 41.6557 47.8641 41.2101C47.3705 40.3214 46.9363 39.0561 47.1389 37.502L48.3486 30.5041L48.3503 30.4942M58.434 38.0804L48.3503 30.4942M48.3503 30.4942L48.3516 30.4843M48.3503 30.4942L48.3516 30.4843M48.3516 30.4843C48.417 29.9889 48.5419 29.7018 48.7059 29.5571C48.8401 29.4387 49.1125 29.3223 49.7457 29.4757L48.3516 30.4843Z" fill="white" stroke="#ED7971"/>
<path d="M47.4194 59.2027V53.7523C47.4194 53.706 47.441 53.6406 47.5211 53.5748C47.6021 53.5082 47.7306 53.455 47.8891 53.455H62.0445C62.2023 53.455 62.3306 53.5081 62.4115 53.5747C62.4916 53.6406 62.5132 53.7059 62.5132 53.7523V59.2027C62.5132 59.2491 62.4916 59.3145 62.4115 59.3803C62.3306 59.447 62.2023 59.5 62.0445 59.5H47.8891C47.7306 59.5 47.6021 59.4468 47.5211 59.3802C47.441 59.3144 47.4194 59.2491 47.4194 59.2027Z" fill="#ED7971" stroke="#ED7971"/>
<path d="M58.0822 57.2691H47.4194V53.7535C47.4194 53.7067 47.4413 53.641 47.5214 53.5751C47.6026 53.5083 47.7313 53.455 47.8898 53.455H58.5517V56.9706C58.5517 57.0175 58.5298 57.0831 58.4497 57.1491C58.3685 57.216 58.2401 57.2691 58.0822 57.2691Z" fill="#ED7971" stroke="#ED7971"/>
</g>
<defs>
<clipPath id="clip0_165_2">
<rect width="63.2609" height="60" fill="white"/>
</clipPath>
</defs>
</svg>
