<svg width="60" height="45" viewBox="0 0 60 45" fill="none" xmlns="http://www.w3.org/2000/svg">
<path d="M57.5495 2.00347C57.5495 1.67087 57.463 1.3613 57.3119 1.09229H58.5248C59.0845 1.09229 59.5001 1.52109 59.5001 2.00347V4.82584C59.5001 5.30886 59.0844 5.73755 58.5248 5.73755H57.3117C57.463 5.46841 57.5495 5.15865 57.5495 4.82584V2.00347Z" fill="#ED7971" stroke="#ED7971"/>
<path d="M55.0797 6.73682V43.4929C55.0797 43.9752 54.6641 44.4041 54.1044 44.4041H4.73828V6.73682H55.0797Z" fill="white" stroke="#ED7971"/>
<path d="M49.3834 8.84149H4.73828V6.73682H55.0797V43.4929C55.0797 43.9752 54.6641 44.4041 54.1044 44.4041H52.834V12.1638C52.834 10.3086 51.2682 8.84149 49.3834 8.84149Z" fill="white" stroke="#ED7971"/>
<path d="M56.3577 5.73657H1.4753C0.915483 5.73657 0.5 5.30819 0.5 4.8255V2.00336C0.5 1.52096 0.915179 1.09229 1.4753 1.09229H56.3577C56.9174 1.09229 57.333 1.52108 57.333 2.00336V4.8255C57.333 5.30819 56.9175 5.73657 56.3577 5.73657Z" fill="white" stroke="#ED7971"/>
<path d="M38.7724 27.5022V17.8084C45.083 18.0623 50.062 23.101 49.9127 29.1813C49.768 35.0567 44.7486 39.8863 38.5541 40.0259C32.1506 40.1702 26.9188 35.3897 26.641 29.4139H36.7971C37.8668 29.4139 38.7724 28.5787 38.7724 27.5022Z" fill="white" stroke="#ED7971"/>
<path d="M36.7124 13.7105L36.7125 13.7105C37.2999 13.656 37.7723 14.1029 37.7723 14.6191V27.5024C37.7723 27.9854 37.3566 28.4141 36.797 28.4141H23.3283C22.728 28.4141 22.3046 27.9287 22.3554 27.4278L22.3554 27.4276C23.0858 20.1949 29.1087 14.4135 36.7124 13.7105Z" fill="#ED7971" stroke="#ED7971"/>
<path d="M22.9745 11.876H9.54886C9.19304 11.876 8.94238 11.605 8.94238 11.3175C8.94238 11.0296 9.19287 10.759 9.54886 10.759H22.9745C23.3308 10.759 23.5809 11.0295 23.5809 11.3175C23.5809 11.6052 23.3307 11.876 22.9745 11.876Z" fill="#ED7971" stroke="#ED7971"/>
<path d="M17.0733 17.3794H9.54886C9.19298 17.3794 8.94238 17.1084 8.94238 16.821C8.94238 16.5333 9.19282 16.2627 9.54886 16.2627H17.0733C17.4293 16.2627 17.6797 16.5333 17.6797 16.821C17.6797 17.1084 17.4291 17.3794 17.0733 17.3794Z" fill="#ED7971" stroke="#ED7971"/>
</svg>
