<svg width="60" height="60" viewBox="0 0 60 60" fill="none" xmlns="http://www.w3.org/2000/svg">
<g clip-path="url(#clip0_165_5)">
<path d="M5.34895 21.0401H52.3717C53.2564 21.0401 53.9736 21.7574 53.9737 22.642V27.7881H3.74707V22.642C3.74707 21.7573 4.46423 21.0401 5.34895 21.0401Z" fill="white" stroke="#ED7971"/>
<path d="M6.04145 49.5068L5.54387 49.4576L6.04145 49.5068L10.2998 6.3977C10.3797 5.58957 11.0994 4.99921 11.9076 5.07905L11.9076 5.07905L33.4841 7.21045L33.4842 7.21046C34.2921 7.2902 34.8825 8.00995 34.8028 8.81814L30.5444 51.9273C30.4646 52.7354 29.7448 53.3258 28.9367 53.2459L7.36009 51.1145C6.55197 51.0347 5.96161 50.3149 6.04145 49.5068Z" fill="white" stroke="#ED7971"/>
<path d="M11.9078 5.07895L11.9078 5.07896L33.4843 7.21036C34.2924 7.2902 34.8828 8.01 34.8029 8.81818L34.8029 8.81824L34.3222 13.6845C34.1389 12.6156 33.2614 11.757 32.1299 11.6452L32.0807 12.1428L32.1299 11.6452L10.5533 9.5138L10.5533 9.5138C10.362 9.49491 10.1739 9.49869 9.99134 9.52269L10.3 6.39761C10.3 6.3976 10.3 6.3976 10.3 6.3976C10.3799 5.58947 11.0997 4.99911 11.9078 5.07895Z" fill="white" stroke="#ED7971"/>
<path d="M9.79824 44.6143L9.79829 44.6144C10.9479 45.3311 11.8379 46.406 12.3271 47.6686M9.79824 44.6143L11.8609 47.8493M9.79824 44.6143C9.57859 44.4774 9.45391 44.2238 9.47997 43.9596L12.5865 12.5105M9.79824 44.6143L12.5865 12.5105M12.3271 47.6686L11.8609 47.8493M12.3271 47.6686C12.3271 47.6686 12.3271 47.6686 12.3271 47.6686L11.8609 47.8493M12.3271 47.6686C12.4193 47.9065 12.6419 48.0753 12.9039 48.1012M11.8609 47.8493C12.0227 48.2668 12.4092 48.5548 12.8547 48.5988M12.9039 48.1012L12.9039 48.1012L12.8547 48.5988M12.9039 48.1012L12.8547 48.5988M12.9039 48.1012L24.0891 49.2061L24.0891 49.2061C24.3511 49.232 24.6025 49.1099 24.7393 48.8948L24.7393 48.8947C25.4661 47.7523 26.5492 46.8722 27.8169 46.3943C28.0592 46.3029 28.231 46.0785 28.257 45.8146L28.257 45.8145L31.3636 14.3653C31.3896 14.1012 31.2649 13.8475 31.0453 13.7106L31.0452 13.7105C29.8956 12.9938 29.0057 11.9189 28.5165 10.6564L12.8547 48.5988M16.7545 9.11882L16.7544 9.11882C16.4924 9.09291 16.2411 9.21498 16.1043 9.43012L16.1042 9.43022C15.3775 10.5726 14.2944 11.4527 13.0267 11.9306L16.7545 9.11882ZM16.7545 9.11882L27.9396 10.2237M16.7545 9.11882L27.9396 10.2237M12.5865 12.5105C12.5865 12.5104 12.5865 12.5104 12.5865 12.5104C12.6126 12.2463 12.7845 12.022 13.0267 11.9307L12.5865 12.5105ZM27.9396 10.2237C28.2015 10.2496 28.4242 10.4184 28.5164 10.6563L27.9396 10.2237Z" fill="white" stroke="#ED7971"/>
<path d="M30.8419 19.6517L31.3641 14.3654L31.3641 14.3653C31.3902 14.1012 31.2655 13.8475 31.0459 13.7105L30.8419 19.6517ZM30.8419 19.6517C30.8545 19.0622 30.56 18.4993 30.0496 18.1812C29.0836 17.5789 28.3352 16.6749 27.9242 15.6143L30.8419 19.6517ZM12.5181 13.2085L12.587 12.5104L12.587 12.5103C12.6131 12.2464 12.7849 12.022 13.0272 11.9307M12.5181 13.2085L28.5171 10.6563C28.4249 10.4184 28.2023 10.2496 27.9403 10.2237C27.9403 10.2237 27.9402 10.2237 27.9402 10.2237L16.7551 9.11882L16.755 9.11882C16.4931 9.09291 16.2417 9.21496 16.1047 9.43021L16.1047 9.43022C15.378 10.5726 14.2949 11.4527 13.0272 11.9307M12.5181 13.2085L26.5118 14.5476L26.5133 14.5478C27.1423 14.61 27.6928 15.0169 27.9242 15.6142L12.5181 13.2085ZM13.0272 11.9307L12.8508 11.4628L13.0272 11.9307ZM28.5171 10.6563C29.0063 11.9189 29.8963 12.9938 31.0459 13.7105L28.5171 10.6563Z" fill="white" stroke="#ED7971"/>
<path d="M53.1817 15.0085L28.7869 50.8055C28.3296 51.4765 27.4149 51.6498 26.7439 51.1926L8.82709 38.9827C8.15608 38.5254 7.98278 37.6107 8.44003 36.9397L32.8349 1.14271C33.2922 0.471693 34.207 0.298393 34.8779 0.75564L52.7947 12.9655C53.4657 13.4228 53.639 14.3374 53.1817 15.0085Z" fill="white" stroke="#ED7971"/>
<path d="M32.8353 1.14249L32.8353 1.14247C33.2926 0.471403 34.2073 0.298155 34.8783 0.755427L35.1599 0.342248L34.8783 0.755428L52.7951 12.9653C53.466 13.4226 53.6393 14.3372 53.1821 15.0084L28.7873 50.8054C28.5688 51.1261 28.2455 51.3332 27.894 51.4119L49.7062 19.4045C50.4745 18.2771 50.1833 16.7403 49.0559 15.972L31.1391 3.76216L31.139 3.76208C31.1187 3.74825 31.0983 3.73477 31.0777 3.72164L32.8353 1.14249Z" fill="white" stroke="#ED7971"/>
<path d="M46.7839 13.6098C46.6083 14.9524 46.8743 16.3223 47.54 17.5023L47.54 17.5023C47.6672 17.7278 47.6551 18.0101 47.5057 18.2294L29.709 44.3441C29.5596 44.5634 29.3012 44.678 29.0447 44.6421C27.703 44.4542 26.3308 44.7077 25.1454 45.3621L25.1454 45.3621C24.922 45.4854 24.6429 45.4721 24.4255 45.3239L24.4254 45.3238L15.1374 38.9943L15.1373 38.9943C14.9199 38.8461 14.8054 38.5912 14.8384 38.3383C15.0141 36.9956 14.7481 35.6257 14.0824 34.4458C13.9552 34.2202 13.9673 33.9379 14.1168 33.7186L13.7042 33.4374L14.1168 33.7186L31.9135 7.6037L31.9135 7.60362C32.0629 7.38437 32.3212 7.26986 32.5774 7.30586L32.5776 7.30589C33.9193 7.49374 35.2915 7.24028 36.4769 6.58587L36.4769 6.58585C36.7003 6.46252 36.9794 6.47585 37.1969 6.6241L37.1969 6.62413L46.485 12.9538L46.485 12.9538C46.7024 13.102 46.8169 13.3568 46.7839 13.6098ZM46.7839 13.6098L47.2797 13.6746M46.7839 13.6098C46.7839 13.6098 46.7839 13.6098 46.7839 13.6098L47.2797 13.6746M47.2797 13.6746C47.3377 13.2307 47.1365 12.7927 46.7665 12.5406M47.2797 13.6746C47.1181 14.9099 47.3629 16.1708 47.9754 17.2566C48.1978 17.6506 48.1736 18.1371 47.9188 18.511L30.1222 44.6257C29.8674 44.9995 29.4234 45.1999 28.9754 45.1372C27.7408 44.9644 26.4778 45.1977 25.3871 45.7998C24.9951 46.0163 24.5138 45.9892 24.1438 45.737L14.8558 39.4075C14.4858 39.1554 14.2846 38.7174 14.3426 38.2735C14.5042 37.0381 14.2594 35.7771 13.6469 34.6914C13.4247 34.2974 13.4489 33.8108 13.7036 33.437L46.7665 12.5406M46.7665 12.5406L37.4785 6.21095C37.1085 5.95877 36.6272 5.9317 36.2353 6.14814C35.1446 6.75025 33.8815 6.98357 32.647 6.81072M46.7665 12.5406L32.647 6.81072M32.647 6.81072C32.1991 6.74779 31.7549 6.9483 31.5003 7.32213L32.647 6.81072Z" fill="white" stroke="#ED7971"/>
<path d="M47.5402 17.5023L47.5402 17.5023C46.8745 16.3223 46.6086 14.9524 46.7841 13.6098C46.8172 13.3569 46.7027 13.102 46.4852 12.9537L47.5402 17.5023ZM47.5402 17.5023C47.6675 17.7278 47.6554 18.0101 47.5059 18.2294L47.9191 18.5109L47.5059 18.2294L29.7093 44.3442C29.5598 44.5636 29.3014 44.6781 29.0451 44.6422L29.045 44.6422C28.9802 44.6331 28.9153 44.6251 28.8504 44.6181L43.9319 22.487C43.9319 22.487 43.9319 22.487 43.932 22.487C44.2921 21.9587 44.3282 21.2678 44.011 20.7054L44.011 20.7054C43.4517 19.7139 43.2281 18.5619 43.3755 17.434C43.4587 16.7989 43.1704 16.1779 42.6482 15.8219L42.6461 15.8204M47.5402 17.5023L42.6461 15.8204M42.6461 15.8204L31.4548 8.27673M42.6461 15.8204L31.4548 8.27673M31.4548 8.27673L31.9135 7.6037C31.9135 7.6037 31.9135 7.6037 31.9135 7.60369C32.0629 7.38445 32.3212 7.26989 32.5778 7.30576L31.4548 8.27673ZM37.1971 6.62415L46.4851 12.9536L32.5778 7.30577C33.9195 7.49373 35.2918 7.24027 36.4771 6.58585L36.4771 6.58584C36.7004 6.46256 36.9795 6.47589 37.1971 6.62413C37.1971 6.62414 37.1971 6.62414 37.1971 6.62415Z" fill="white" stroke="#ED7971"/>
<path d="M39.4107 23.5546C39.4107 26.7987 36.7809 29.4285 33.5369 29.4285C30.2929 29.4285 27.6631 26.7987 27.6631 23.5546C27.6631 20.3106 30.2929 17.6808 33.5369 17.6808C36.7809 17.6808 39.4107 20.3106 39.4107 23.5546Z" fill="white" stroke="#ED7971"/>
<path d="M53.1003 59.5H3.99723C2.59922 59.5 1.46582 58.3667 1.46582 56.9686V26.9695C1.46582 25.5714 2.59912 24.438 3.99723 24.438H53.1003C54.4983 24.438 55.6317 25.5714 55.6317 26.9695V56.9686C55.6317 58.3667 54.4984 59.5 53.1003 59.5Z" fill="white" stroke="#ED7971"/>
<path d="M51.1169 26.9695C51.1169 25.9767 50.7072 25.0796 50.0477 24.438H53.1003C54.4983 24.438 55.6317 25.5715 55.6317 26.9695V56.9686C55.6317 58.3667 54.4983 59.5 53.1003 59.5H50.0477C50.7072 58.8584 51.1169 57.9614 51.1169 56.9686V26.9695Z" fill="white" stroke="#ED7971"/>
<path d="M46.8844 36.6744H57.9361C58.2665 36.6744 58.5344 36.9424 58.5344 37.2727V46.6653C58.5344 46.9957 58.2666 47.2635 57.9361 47.2635H46.8844C43.9603 47.2635 41.5898 44.8931 41.5898 41.969C41.5898 39.0448 43.9603 36.6744 46.8844 36.6744Z" fill="white" stroke="#ED7971"/>
<path d="M54.0001 37.2727C54.0001 37.0611 53.959 36.8592 53.8844 36.6744H57.9363C58.2667 36.6744 58.5345 36.9423 58.5344 37.2726V37.2727V45.2571V46.6652C58.5344 46.9956 58.2666 47.2634 57.9361 47.2634H52.4017H46.8844C45.2586 47.2634 43.804 46.5307 42.8328 45.3774C43.9273 46.2997 45.3406 46.8554 46.8844 46.8554H52.3288C53.2518 46.8554 54.0001 46.1072 54.0001 45.1841V37.2727Z" fill="white" stroke="#ED7971"/>
<path d="M3.99723 24.438H53.1003C54.4984 24.438 55.6317 25.5714 55.6317 26.9695V29.7915H1.46582V26.9695C1.46582 25.5715 2.59923 24.438 3.99723 24.438Z" fill="#ED7971" stroke="#ED7971"/>
<path d="M54.4124 24.8043L54.4124 24.8043C54.4468 24.8252 54.481 24.8472 54.5153 24.8703C54.6481 24.96 54.7721 25.0623 54.8858 25.1755L54.8858 25.1755L54.8934 25.1829C55.0067 25.2966 55.1093 25.4211 55.1995 25.5545C55.245 25.6219 55.2873 25.6914 55.326 25.7627L55.3261 25.763C55.5207 26.1211 55.6314 26.5315 55.6314 26.9693V29.7912H51.1165V26.9693C51.1165 25.9765 50.7069 25.0794 50.0474 24.4379H53.0999C53.4736 24.4379 53.8274 24.5193 54.1464 24.6645L54.3535 24.2094L54.1459 24.6642C54.1827 24.681 54.2182 24.6982 54.2526 24.7158L54.2527 24.7159C54.3105 24.7456 54.3634 24.7746 54.4124 24.8043Z" fill="white" stroke="#ED7971"/>
<path d="M53.1003 59.5H3.99723C2.59912 59.5 1.46582 58.3666 1.46582 56.9686V54.1466H55.6317V56.9686C55.6317 58.3666 54.4983 59.5 53.1003 59.5Z" fill="#ED7971" stroke="#ED7971"/>
<path d="M1.46582 56.908V56.9685C1.46582 58.3667 2.59912 59.5 3.99723 59.5H47.5856H53.1004C53.1481 59.5 53.1974 59.4982 53.2498 59.4952L53.2499 59.4952C53.257 59.4948 53.2604 59.4945 53.2674 59.4939C53.2731 59.4934 53.2811 59.4927 53.2952 59.4916C53.3316 59.4888 53.3654 59.4857 53.3975 59.4819L53.3985 59.4818C53.4149 59.4799 53.432 59.4777 53.4504 59.4752L53.5167 59.9708M1.46582 56.908L53.7934 59.4032M1.46582 56.908C2.10741 57.5675 3.00449 57.9772 3.99723 57.9772H50.1021C50.6443 57.9772 51.1159 57.5437 51.1169 56.9746V56.9738V56.9737V56.9737V56.9737V56.9736V56.9736V56.9736V56.9736V56.9735V56.9735V56.9735V56.9734V56.9734V56.9734V56.9734V56.9733V56.9733V56.9733V56.9732V56.9732V56.9732V56.9731V56.9731V56.9731V56.9731V56.973V56.973V56.973V56.9729V56.9729V56.9729V56.9729V56.9728V56.9728V56.9728V56.9727V56.9727V56.9727V56.9726V56.9726V56.9726V56.9726V56.9725V56.9725V56.9725V56.9724V56.9724V56.9724V56.9724V56.9723V56.9723V56.9723V56.9722V56.9722V56.9722V56.9721V56.9721V56.9721V56.9721V56.972V56.972V56.972V56.9719V56.9719V56.9719V56.9718V56.9718V56.9718V56.9718V56.9717V56.9717V56.9717V56.9716V56.9716V56.9716V56.9715V56.9715V56.9715V56.9714V56.9714V56.9714V56.9714V56.9713V56.9713V56.9713V56.9712V56.9712V56.9712V56.9711V56.9711V56.9711V56.9711V56.971V56.971V56.971V56.9709V56.9709V56.9709V56.9708V56.9708V56.9708V56.9707V56.9707V56.9707V56.9707V56.9706V56.9706V56.9706V56.9705V56.9705V56.9705V56.9704V56.9704V56.9704V56.9704V56.9703V56.9703V56.9703V56.9702V56.9702V56.9702V56.9701V56.9701V56.9701V56.97V56.97V56.97V56.97V56.9699V56.9699V56.9699V56.9698V56.9698V56.9698V56.9697V56.9697V56.9697V56.9696V56.9696V56.9696V56.9696V56.9695V56.9695V56.9695V56.9694V56.9694V56.9694V56.9693V56.9693V56.9693V56.9692V56.9692V56.9692V56.9691V56.9691V56.9691V56.9691V56.969V56.969V56.969V56.9689V56.9689V56.9689V56.9688V56.9688V56.9688V56.9687V56.9687V56.9687V56.9687V56.9686V54.1466L55.6316 54.1467V54.4459V56.9686C55.6316 57.0231 55.6292 57.0796 55.625 57.1403C55.625 57.1408 55.625 57.1414 55.6249 57.1419L55.6215 57.1856C55.6215 57.186 55.6215 57.1864 55.6214 57.1869C55.6163 57.2478 55.6103 57.303 55.6024 57.3541L55.599 57.3764C55.5927 57.4149 55.585 57.4547 55.5761 57.4969L55.576 57.4975C55.5747 57.5037 55.5739 57.507 55.5724 57.5133C55.5711 57.5188 55.5692 57.5266 55.5659 57.5407L55.5656 57.5421C55.5581 57.5748 55.5501 57.6066 55.5417 57.6377L56.024 57.7693M1.46582 56.908L56.0967 57.4303L56.0966 57.4313C56.0879 57.4882 56.0771 57.5446 56.0653 57.6005C56.0627 57.6126 56.0599 57.6246 56.057 57.6366C56.0556 57.6423 56.0543 57.648 56.053 57.6537C56.0441 57.6926 56.0345 57.7311 56.024 57.7693M53.5167 59.9708L53.4492 59.4754C53.481 59.4711 53.5142 59.4657 53.5501 59.4593L53.637 59.9517M53.5167 59.9708C53.5571 59.9653 53.5972 59.9588 53.637 59.9517M53.5167 59.9708C53.4965 59.9735 53.4764 59.9761 53.4562 59.9784L53.637 59.9517M53.637 59.9517L53.549 59.4595C53.5645 59.4568 53.5724 59.4554 53.5777 59.4545C53.5833 59.4536 53.5861 59.4531 53.5921 59.4519L53.5932 59.4517C53.6436 59.4418 53.6895 59.4317 53.7323 59.4206L53.7433 59.4177C53.7472 59.4167 53.7507 59.4156 53.7554 59.4142C53.7628 59.412 53.7734 59.4089 53.7934 59.4032M53.7934 59.4032C53.7933 59.4032 53.7932 59.4033 53.7931 59.4033L53.7935 59.4047L53.794 59.4046L53.7934 59.4032ZM56.024 57.7693C56.0186 57.7888 56.0131 57.8081 56.0075 57.8275M56.024 57.7693L55.5422 57.6358C55.5397 57.6447 55.5372 57.6536 55.5347 57.6625C55.5324 57.6706 55.5301 57.6786 55.5277 57.6868M56.0075 57.8275L55.5281 57.6854C55.528 57.6859 55.5278 57.6863 55.5277 57.6868M56.0075 57.8275C55.9963 57.8654 55.9842 57.9032 55.9715 57.9406L54.9875 58.9467H54.8964V58.9466V58.8514L54.847 58.7997C54.9024 58.7468 54.9552 58.6917 55.0052 58.6346L55.0176 58.6202C55.1022 58.522 55.1793 58.4178 55.2478 58.3084L55.2493 58.306L55.2555 58.2964C55.2786 58.259 55.2996 58.2234 55.3189 58.1887L55.3263 58.1749C55.3871 58.063 55.4397 57.9452 55.4837 57.8225L55.4838 57.822C55.4864 57.8149 55.4872 57.8124 55.4886 57.8081C55.4901 57.8034 55.4923 57.7965 55.4983 57.7792C55.5088 57.7479 55.5187 57.7171 55.5277 57.6868M56.0075 57.8275L55.5274 57.6879C55.5275 57.6875 55.5276 57.6872 55.5277 57.6868M55.6052 57.3388L55.6062 57.3336L55.6064 57.3323L55.6052 57.3388ZM55.6052 57.3388C55.6058 57.3356 55.6063 57.3328 55.6065 57.332M55.6052 57.3388L55.6065 57.332M54.3065 59.195L54.3066 59.1949C54.3737 59.1584 54.439 59.119 54.5023 59.0769L54.5155 59.068C54.5707 59.0307 54.6256 58.9896 54.6814 58.9448L54.6869 58.9404L54.6884 58.9392L54.6894 58.9384L54.6895 58.9384M54.3065 59.195L54.6895 58.9384M54.3065 59.195C54.3021 59.1974 54.2977 59.1998 54.2933 59.2021C54.2621 59.2188 54.2301 59.2351 54.1973 59.2509L54.2052 59.2673M54.3065 59.195L54.2052 59.2673M54.6895 58.9384C54.6894 58.9385 54.6894 58.9385 54.6894 58.9385L54.6895 58.9384ZM54.2052 59.2673L54.1973 59.2509C54.1613 59.2683 54.1242 59.285 54.0858 59.3013L54.2052 59.2673ZM55.6065 57.332C55.6065 57.3317 55.6065 57.3317 55.6065 57.3318L55.6065 57.3318L55.6065 57.3319L55.6065 57.332ZM55.3423 58.1476C55.3422 58.1478 55.3409 58.1499 55.3381 58.1546C55.3407 58.1501 55.3424 58.1474 55.3423 58.1476ZM54.0857 59.3013C53.9936 59.3403 53.8962 59.3739 53.7938 59.4031L54.0857 59.3013Z" fill="#ED7971" stroke="#ED7971"/>
<path d="M49.2814 41.9696C49.2814 43.1793 48.3007 44.1601 47.0909 44.1601C45.8811 44.1601 44.9004 43.1793 44.9004 41.9696C44.9004 40.7598 45.8811 39.7791 47.0909 39.7791C48.3007 39.7791 49.2814 40.7598 49.2814 41.9696Z" fill="#ED7971" stroke="#ED7971"/>
</g>
<defs>
<clipPath id="clip0_165_5">
<rect width="60" height="60" fill="white"/>
</clipPath>
</defs>
</svg>
