<svg width="78" height="78" viewBox="0 0 78 78" fill="none" xmlns="http://www.w3.org/2000/svg">
<g clip-path="url(#clip0_165_8)">
<path d="M1.2022 34.2292L1.20211 34.2292C0.26814 33.8118 0.267662 32.4848 1.2022 32.0667C1.20223 32.0667 1.20226 32.0666 1.20228 32.0666L38.5174 15.3809C38.8256 15.2432 39.177 15.2432 39.4852 15.3809L76.8004 32.0667C77.7355 32.4848 77.7351 33.8117 76.8006 34.2291L76.8004 34.2292L39.0013 51.1314L1.2022 34.2292Z" fill="white" stroke="#ED7971"/>
<path d="M66.4031 36.8846L66.1683 36.7111L65.9791 36.5713L65.9785 36.5708C54.1065 27.77 39.6729 27.2641 39.0807 27.2475L39.0791 27.2474L39.0002 27.2449L38.9213 27.2474L38.9196 27.2475C38.3275 27.2641 23.8938 27.77 12.0219 36.5708L12.0218 36.5709L10.8613 37.4308V38.5491C15.6339 40.683 22.6233 43.8083 28.467 46.4213L36.0728 49.8223L38.3655 50.8475L38.9876 51.1257L39.0002 51.1313L67.4349 38.4168L67.4349 38.4168L76.7987 34.2292L76.7988 34.2291C77.7334 33.8116 77.7337 32.4847 76.7993 32.0666L66.4031 36.8846ZM66.4031 36.8846L66.6696 36.7655M66.4031 36.8846L66.6696 36.7655M66.6696 36.7655L70.3001 35.1421C72.0237 34.3721 72.0259 31.9255 70.3014 31.1543L70.0973 31.6108L70.3014 31.1543C62.3574 27.6021 42.9378 18.9185 36.7718 16.1611M66.6696 36.7655L36.7718 16.1611M36.7718 16.1611C37.3428 15.9058 38.0223 15.6019 38.5177 15.3801L36.7718 16.1611ZM39.484 15.3808L76.7992 32.0666L38.5177 15.3801C38.8246 15.2428 39.1754 15.2429 39.484 15.3808C39.484 15.3808 39.484 15.3808 39.484 15.3808Z" fill="#ED7971" stroke="#ED7971"/>
<path d="M13.73 38.8756V56.3285C13.73 57.2122 14.4126 57.9454 15.2939 58.0085C19.5006 58.3114 31.2144 59.4504 38.2418 63.062L38.4701 62.6171C38.4702 62.6172 38.4703 62.6172 38.4704 62.6173C38.8026 62.7876 39.1977 62.7874 39.529 62.6173L39 30.1153C39 30.1153 25.0171 30.5086 13.73 38.8756ZM13.73 38.8756L14.0277 39.2773C14.0951 39.2274 14.1625 39.1778 14.23 39.1285V38.8756H13.73ZM39 30.6155L39.0218 30.6163C39.0471 30.6172 39.0854 30.6188 39.1364 30.6212C39.2383 30.626 39.3907 30.6341 39.5894 30.6474C39.9869 30.674 40.5696 30.7214 41.3051 30.8043C42.7764 30.9701 44.8574 31.2778 47.2885 31.8448C52.0962 32.9659 58.2507 35.0959 63.7694 39.1285V56.3279C63.7694 56.9494 63.29 57.4649 62.6696 57.5097C62.6696 57.5097 62.6695 57.5098 62.6695 57.5098L62.7055 58.0085C58.4988 58.3114 46.7856 59.4504 39.7576 63.062L39 30.6155Z" fill="white" stroke="#ED7971"/>
<path d="M59.7159 51.2944V51.7944C59.7159 53.7309 58.285 55.3707 56.364 55.6285L56.364 55.6285C51.411 56.2926 45.1866 57.5003 40.6642 59.6347L40.6642 59.6347C39.6105 60.1319 38.3946 60.1351 37.3396 59.6363C33.01 57.5917 27.1167 56.3971 22.2713 55.7156C19.8552 55.3758 17.7124 55.1652 16.1739 55.0396C15.4048 54.9768 14.7871 54.9352 14.3623 54.9094C14.3159 54.9066 14.2718 54.904 14.23 54.9015V56.3279C14.23 56.9492 14.7098 57.4648 15.3297 57.5097C15.3298 57.5097 15.3299 57.5097 15.3299 57.5097L15.2939 58.0084C19.5006 58.3107 31.2144 59.4497 38.2418 63.0613L59.7159 51.2944ZM59.7159 51.2944H59.7153V36.5435C61.0858 37.3042 62.4462 38.1612 63.7694 39.1284V56.3279C63.7694 56.9493 63.2901 57.4648 62.6697 57.5097C62.6696 57.5097 62.6696 57.5097 62.6695 57.5097L62.7055 58.0084L59.7159 51.2944Z" fill="white" stroke="#ED7971"/>
<path d="M57.3853 60.4259L57.3853 60.4261C57.5125 60.7603 57.266 61.1182 56.9076 61.1182H53.4371C53.0797 61.1182 52.8326 60.7606 52.9594 60.4259C52.9595 60.4258 52.9595 60.4258 52.9595 60.4257L55.1723 54.6028L57.3853 60.4259Z" fill="#ED7971" stroke="#ED7971"/>
<path d="M58.2098 51.1738C58.2098 52.8513 56.8501 54.211 55.1726 54.211C53.4944 54.211 52.1348 52.8513 52.1348 51.1738C52.1348 49.4956 53.4944 48.136 55.1726 48.136C56.8501 48.136 58.2098 49.4956 58.2098 51.1738Z" fill="#ED7971" stroke="#ED7971"/>
<path d="M57.4413 49.4046C57.4413 49.3182 57.4386 49.2325 57.4331 49.1475C57.9163 49.6849 58.21 50.3949 58.21 51.1738C58.21 52.8513 56.8503 54.211 55.1727 54.211C54.3938 54.211 53.6838 53.9174 53.1464 53.4342C53.2314 53.4396 53.3171 53.4424 53.4035 53.4424C55.6334 53.4424 57.4413 51.6344 57.4413 49.4046Z" fill="white" stroke="#ED7971"/>
<path d="M54.4087 48.3097V22.0557L55.9361 22.7379V48.3097C55.9361 48.731 55.5934 49.0737 55.1721 49.0737C54.7509 49.0737 54.4087 48.7317 54.4087 48.3097Z" fill="white" stroke="#ED7971"/>
</g>
<defs>
<clipPath id="clip0_165_8">
<rect width="78" height="78" fill="white"/>
</clipPath>
</defs>
</svg>
