<svg width="527" height="422" viewBox="0 0 527 422" fill="none" xmlns="http://www.w3.org/2000/svg">
<g clip-path="url(#clip0_20_131)">
<path opacity="0.1" d="M151.393 72.3748H111.861C109.581 72.3748 107.732 74.2267 107.732 76.5112V82.7132C107.732 84.9977 109.581 86.8497 111.861 86.8497H151.393C153.674 86.8497 155.522 84.9977 155.522 82.7132V76.5112C155.522 74.2267 153.674 72.3748 151.393 72.3748Z" fill="#6C63FF"/>
<path opacity="0.1" d="M201.406 86.8496H161.874C159.594 86.8496 157.745 88.7016 157.745 90.9861V97.188C157.745 99.4726 159.594 101.325 161.874 101.325H201.406C203.686 101.325 205.535 99.4726 205.535 97.188V90.9861C205.535 88.7016 203.686 86.8496 201.406 86.8496Z" fill="#6C63FF"/>
<path opacity="0.1" d="M251.419 101.325H211.887C209.606 101.325 207.758 103.177 207.758 105.461V111.663C207.758 113.948 209.606 115.799 211.887 115.799H251.419C253.699 115.799 255.548 113.948 255.548 111.663V105.461C255.548 103.177 253.699 101.325 251.419 101.325Z" fill="#6C63FF"/>
<path opacity="0.1" d="M151.393 50.6624H111.861C109.581 50.6624 107.732 52.5143 107.732 54.7988V61.0008C107.732 63.2853 109.581 65.1373 111.861 65.1373H151.393C153.674 65.1373 155.522 63.2853 155.522 61.0008V54.7988C155.522 52.5143 153.674 50.6624 151.393 50.6624Z" fill="#6C63FF"/>
<path opacity="0.1" d="M201.406 65.1372H161.874C159.594 65.1372 157.745 66.9892 157.745 69.2737V75.4757C157.745 77.7602 159.594 79.6121 161.874 79.6121H201.406C203.686 79.6121 205.535 77.7602 205.535 75.4757V69.2737C205.535 66.9892 203.686 65.1372 201.406 65.1372Z" fill="#6C63FF"/>
<path opacity="0.1" d="M251.419 79.6122H211.887C209.606 79.6122 207.758 81.4642 207.758 83.7487V89.9506C207.758 92.2351 209.606 94.0871 211.887 94.0871H251.419C253.699 94.0871 255.548 92.2351 255.548 89.9506V83.7487C255.548 81.4642 253.699 79.6122 251.419 79.6122Z" fill="#6C63FF"/>
<path opacity="0.1" d="M306.989 72.3748H267.457C265.177 72.3748 263.328 74.2267 263.328 76.5112V82.7132C263.328 84.9977 265.177 86.8497 267.457 86.8497H306.989C309.269 86.8497 311.118 84.9977 311.118 82.7132V76.5112C311.118 74.2267 309.269 72.3748 306.989 72.3748Z" fill="#6C63FF"/>
<path opacity="0.1" d="M357.002 86.8496H317.47C315.189 86.8496 313.341 88.7016 313.341 90.9861V97.188C313.341 99.4726 315.189 101.325 317.47 101.325H357.002C359.282 101.325 361.131 99.4726 361.131 97.188V90.9861C361.131 88.7016 359.282 86.8496 357.002 86.8496Z" fill="#6C63FF"/>
<path opacity="0.1" d="M407.015 101.325H367.482C365.202 101.325 363.354 103.177 363.354 105.461V111.663C363.354 113.948 365.202 115.799 367.482 115.799H407.015C409.295 115.799 411.143 113.948 411.143 111.663V105.461C411.143 103.177 409.295 101.325 407.015 101.325Z" fill="#6C63FF"/>
<path opacity="0.1" d="M306.989 50.6624H267.457C265.177 50.6624 263.328 52.5143 263.328 54.7988V61.0008C263.328 63.2853 265.177 65.1373 267.457 65.1373H306.989C309.269 65.1373 311.118 63.2853 311.118 61.0008V54.7988C311.118 52.5143 309.269 50.6624 306.989 50.6624Z" fill="#6C63FF"/>
<path opacity="0.1" d="M357.002 65.1372H317.47C315.189 65.1372 313.341 66.9892 313.341 69.2737V75.4757C313.341 77.7602 315.189 79.6121 317.47 79.6121H357.002C359.282 79.6121 361.131 77.7602 361.131 75.4757V69.2737C361.131 66.9892 359.282 65.1372 357.002 65.1372Z" fill="#6C63FF"/>
<path opacity="0.1" d="M407.015 79.6122H367.482C365.202 79.6122 363.354 81.4642 363.354 83.7487V89.9506C363.354 92.2351 365.202 94.0871 367.482 94.0871H407.015C409.295 94.0871 411.143 92.2351 411.143 89.9506V83.7487C411.143 81.4642 409.295 79.6122 407.015 79.6122Z" fill="#6C63FF"/>
<path opacity="0.1" d="M151.393 21.7124H111.861C109.581 21.7124 107.732 23.5644 107.732 25.8489V32.0508C107.732 34.3354 109.581 36.1873 111.861 36.1873H151.393C153.674 36.1873 155.522 34.3354 155.522 32.0508V25.8489C155.522 23.5644 153.674 21.7124 151.393 21.7124Z" fill="#6C63FF"/>
<path opacity="0.1" d="M201.406 36.1874H161.874C159.594 36.1874 157.745 38.0393 157.745 40.3239V46.5258C157.745 48.8103 159.594 50.6623 161.874 50.6623H201.406C203.686 50.6623 205.535 48.8103 205.535 46.5258V40.3239C205.535 38.0393 203.686 36.1874 201.406 36.1874Z" fill="#6C63FF"/>
<path opacity="0.1" d="M251.419 50.6624H211.887C209.606 50.6624 207.758 52.5143 207.758 54.7988V61.0008C207.758 63.2853 209.606 65.1373 211.887 65.1373H251.419C253.699 65.1373 255.548 63.2853 255.548 61.0008V54.7988C255.548 52.5143 253.699 50.6624 251.419 50.6624Z" fill="#6C63FF"/>
<path opacity="0.1" d="M151.393 0H111.861C109.581 0 107.732 1.85197 107.732 4.13649V10.3384C107.732 12.623 109.581 14.4749 111.861 14.4749H151.393C153.674 14.4749 155.522 12.623 155.522 10.3384V4.13649C155.522 1.85197 153.674 0 151.393 0Z" fill="#6C63FF"/>
<path opacity="0.1" d="M201.406 14.475H161.874C159.594 14.475 157.745 16.3269 157.745 18.6115V24.8134C157.745 27.0979 159.594 28.9499 161.874 28.9499H201.406C203.686 28.9499 205.535 27.0979 205.535 24.8134V18.6115C205.535 16.3269 203.686 14.475 201.406 14.475Z" fill="#6C63FF"/>
<path opacity="0.1" d="M251.419 28.9498H211.887C209.606 28.9498 207.758 30.8018 207.758 33.0863V39.2883C207.758 41.5728 209.606 43.4248 211.887 43.4248H251.419C253.699 43.4248 255.548 41.5728 255.548 39.2883V33.0863C255.548 30.8018 253.699 28.9498 251.419 28.9498Z" fill="#6C63FF"/>
<path opacity="0.1" d="M306.989 21.7124H267.457C265.177 21.7124 263.328 23.5644 263.328 25.8489V32.0508C263.328 34.3354 265.177 36.1873 267.457 36.1873H306.989C309.269 36.1873 311.118 34.3354 311.118 32.0508V25.8489C311.118 23.5644 309.269 21.7124 306.989 21.7124Z" fill="#6C63FF"/>
<path opacity="0.1" d="M357.002 36.1874H317.47C315.189 36.1874 313.341 38.0393 313.341 40.3239V46.5258C313.341 48.8103 315.189 50.6623 317.47 50.6623H357.002C359.282 50.6623 361.131 48.8103 361.131 46.5258V40.3239C361.131 38.0393 359.282 36.1874 357.002 36.1874Z" fill="#6C63FF"/>
<path opacity="0.1" d="M407.015 50.6624H367.482C365.202 50.6624 363.354 52.5143 363.354 54.7988V61.0008C363.354 63.2853 365.202 65.1373 367.482 65.1373H407.015C409.295 65.1373 411.143 63.2853 411.143 61.0008V54.7988C411.143 52.5143 409.295 50.6624 407.015 50.6624Z" fill="#6C63FF"/>
<path opacity="0.1" d="M306.989 0H267.457C265.177 0 263.328 1.85197 263.328 4.13649V10.3384C263.328 12.623 265.177 14.4749 267.457 14.4749H306.989C309.269 14.4749 311.118 12.623 311.118 10.3384V4.13649C311.118 1.85197 309.269 0 306.989 0Z" fill="#6C63FF"/>
<path opacity="0.1" d="M357.002 14.475H317.47C315.189 14.475 313.341 16.3269 313.341 18.6115V24.8134C313.341 27.0979 315.189 28.9499 317.47 28.9499H357.002C359.282 28.9499 361.131 27.0979 361.131 24.8134V18.6115C361.131 16.3269 359.282 14.475 357.002 14.475Z" fill="#6C63FF"/>
<path opacity="0.1" d="M407.015 28.9498H367.482C365.202 28.9498 363.354 30.8018 363.354 33.0863V39.2883C363.354 41.5728 365.202 43.4248 367.482 43.4248H407.015C409.295 43.4248 411.143 41.5728 411.143 39.2883V33.0863C411.143 30.8018 409.295 28.9498 407.015 28.9498Z" fill="#6C63FF"/>
<path opacity="0.1" d="M151.393 330.14H111.861C109.581 330.14 107.732 331.992 107.732 334.276V340.478C107.732 342.763 109.581 344.615 111.861 344.615H151.393C153.674 344.615 155.522 342.763 155.522 340.478V334.276C155.522 331.992 153.674 330.14 151.393 330.14Z" fill="#6C63FF"/>
<path opacity="0.1" d="M201.406 344.615H161.874C159.594 344.615 157.745 346.467 157.745 348.751V354.953C157.745 357.238 159.594 359.09 161.874 359.09H201.406C203.686 359.09 205.535 357.238 205.535 354.953V348.751C205.535 346.467 203.686 344.615 201.406 344.615Z" fill="#6C63FF"/>
<path opacity="0.1" d="M251.419 359.09H211.887C209.606 359.09 207.758 360.942 207.758 363.226V369.428C207.758 371.713 209.606 373.564 211.887 373.564H251.419C253.699 373.564 255.548 371.713 255.548 369.428V363.226C255.548 360.942 253.699 359.09 251.419 359.09Z" fill="#6C63FF"/>
<path opacity="0.1" d="M151.393 308.427H111.861C109.581 308.427 107.732 310.279 107.732 312.564V318.766C107.732 321.05 109.581 322.902 111.861 322.902H151.393C153.674 322.902 155.522 321.05 155.522 318.766V312.564C155.522 310.279 153.674 308.427 151.393 308.427Z" fill="#6C63FF"/>
<path opacity="0.1" d="M201.406 322.902H161.874C159.594 322.902 157.745 324.754 157.745 327.039V333.241C157.745 335.525 159.594 337.377 161.874 337.377H201.406C203.686 337.377 205.535 335.525 205.535 333.241V327.039C205.535 324.754 203.686 322.902 201.406 322.902Z" fill="#6C63FF"/>
<path opacity="0.1" d="M251.419 337.377H211.887C209.606 337.377 207.758 339.229 207.758 341.514V347.716C207.758 350 209.606 351.852 211.887 351.852H251.419C253.699 351.852 255.548 350 255.548 347.716V341.514C255.548 339.229 253.699 337.377 251.419 337.377Z" fill="#6C63FF"/>
<path opacity="0.1" d="M306.989 330.14H267.457C265.177 330.14 263.328 331.992 263.328 334.276V340.478C263.328 342.763 265.177 344.615 267.457 344.615H306.989C309.269 344.615 311.118 342.763 311.118 340.478V334.276C311.118 331.992 309.269 330.14 306.989 330.14Z" fill="#6C63FF"/>
<path opacity="0.1" d="M357.002 344.615H317.47C315.189 344.615 313.341 346.467 313.341 348.751V354.953C313.341 357.238 315.189 359.09 317.47 359.09H357.002C359.282 359.09 361.131 357.238 361.131 354.953V348.751C361.131 346.467 359.282 344.615 357.002 344.615Z" fill="#6C63FF"/>
<path opacity="0.1" d="M407.015 359.09H367.482C365.202 359.09 363.354 360.942 363.354 363.226V369.428C363.354 371.713 365.202 373.564 367.482 373.564H407.015C409.295 373.564 411.143 371.713 411.143 369.428V363.226C411.143 360.942 409.295 359.09 407.015 359.09Z" fill="#6C63FF"/>
<path opacity="0.1" d="M306.989 308.427H267.457C265.177 308.427 263.328 310.279 263.328 312.564V318.766C263.328 321.05 265.177 322.902 267.457 322.902H306.989C309.269 322.902 311.118 321.05 311.118 318.766V312.564C311.118 310.279 309.269 308.427 306.989 308.427Z" fill="#6C63FF"/>
<path opacity="0.1" d="M357.002 322.902H317.47C315.189 322.902 313.341 324.754 313.341 327.039V333.241C313.341 335.525 315.189 337.377 317.47 337.377H357.002C359.282 337.377 361.131 335.525 361.131 333.241V327.039C361.131 324.754 359.282 322.902 357.002 322.902Z" fill="#6C63FF"/>
<path opacity="0.1" d="M407.015 337.377H367.482C365.202 337.377 363.354 339.229 363.354 341.514V347.716C363.354 350 365.202 351.852 367.482 351.852H407.015C409.295 351.852 411.143 350 411.143 347.716V341.514C411.143 339.229 409.295 337.377 407.015 337.377Z" fill="#6C63FF"/>
<path opacity="0.1" d="M151.393 279.478H111.861C109.581 279.478 107.732 281.33 107.732 283.614V289.816C107.732 292.101 109.581 293.953 111.861 293.953H151.393C153.674 293.953 155.522 292.101 155.522 289.816V283.614C155.522 281.33 153.674 279.478 151.393 279.478Z" fill="#6C63FF"/>
<path opacity="0.1" d="M201.406 293.952H161.874C159.594 293.952 157.745 295.804 157.745 298.089V304.291C157.745 306.575 159.594 308.427 161.874 308.427H201.406C203.686 308.427 205.535 306.575 205.535 304.291V298.089C205.535 295.804 203.686 293.952 201.406 293.952Z" fill="#6C63FF"/>
<path opacity="0.1" d="M251.419 308.427H211.887C209.606 308.427 207.758 310.279 207.758 312.564V318.766C207.758 321.05 209.606 322.902 211.887 322.902H251.419C253.699 322.902 255.548 321.05 255.548 318.766V312.564C255.548 310.279 253.699 308.427 251.419 308.427Z" fill="#6C63FF"/>
<path opacity="0.1" d="M151.393 257.765H111.861C109.581 257.765 107.732 259.617 107.732 261.902V268.104C107.732 270.388 109.581 272.24 111.861 272.24H151.393C153.674 272.24 155.522 270.388 155.522 268.104V261.902C155.522 259.617 153.674 257.765 151.393 257.765Z" fill="#6C63FF"/>
<path opacity="0.1" d="M201.406 272.24H161.874C159.594 272.24 157.745 274.092 157.745 276.376V282.578C157.745 284.863 159.594 286.715 161.874 286.715H201.406C203.686 286.715 205.535 284.863 205.535 282.578V276.376C205.535 274.092 203.686 272.24 201.406 272.24Z" fill="#6C63FF"/>
<path opacity="0.1" d="M251.419 286.715H211.887C209.606 286.715 207.758 288.567 207.758 290.852V297.054C207.758 299.338 209.606 301.19 211.887 301.19H251.419C253.699 301.19 255.548 299.338 255.548 297.054V290.852C255.548 288.567 253.699 286.715 251.419 286.715Z" fill="#6C63FF"/>
<path opacity="0.1" d="M306.989 279.478H267.457C265.177 279.478 263.328 281.33 263.328 283.614V289.816C263.328 292.101 265.177 293.953 267.457 293.953H306.989C309.269 293.953 311.118 292.101 311.118 289.816V283.614C311.118 281.33 309.269 279.478 306.989 279.478Z" fill="#6C63FF"/>
<path opacity="0.1" d="M357.002 293.952H317.47C315.189 293.952 313.341 295.804 313.341 298.089V304.291C313.341 306.575 315.189 308.427 317.47 308.427H357.002C359.282 308.427 361.131 306.575 361.131 304.291V298.089C361.131 295.804 359.282 293.952 357.002 293.952Z" fill="#6C63FF"/>
<path opacity="0.1" d="M407.015 308.427H367.482C365.202 308.427 363.354 310.279 363.354 312.564V318.766C363.354 321.05 365.202 322.902 367.482 322.902H407.015C409.295 322.902 411.143 321.05 411.143 318.766V312.564C411.143 310.279 409.295 308.427 407.015 308.427Z" fill="#6C63FF"/>
<path opacity="0.1" d="M306.989 257.765H267.457C265.177 257.765 263.328 259.617 263.328 261.902V268.104C263.328 270.388 265.177 272.24 267.457 272.24H306.989C309.269 272.24 311.118 270.388 311.118 268.104V261.902C311.118 259.617 309.269 257.765 306.989 257.765Z" fill="#6C63FF"/>
<path opacity="0.1" d="M357.002 272.24H317.47C315.189 272.24 313.341 274.092 313.341 276.376V282.578C313.341 284.863 315.189 286.715 317.47 286.715H357.002C359.282 286.715 361.131 284.863 361.131 282.578V276.376C361.131 274.092 359.282 272.24 357.002 272.24Z" fill="#6C63FF"/>
<path opacity="0.1" d="M407.015 286.715H367.482C365.202 286.715 363.354 288.567 363.354 290.852V297.054C363.354 299.338 365.202 301.19 367.482 301.19H407.015C409.295 301.19 411.143 299.338 411.143 297.054V290.852C411.143 288.567 409.295 286.715 407.015 286.715Z" fill="#6C63FF"/>
<path opacity="0.1" d="M268.052 422C402.628 422 511.724 413.027 511.724 401.958C511.724 390.889 402.628 381.916 268.052 381.916C133.475 381.916 24.3789 390.889 24.3789 401.958C24.3789 413.027 133.475 422 268.052 422Z" fill="#6C63FF"/>
<path d="M47.0397 103.997C70.0177 113.973 83.221 134.617 83.221 134.617C83.221 134.617 59.165 139.071 36.1814 129.1C13.1978 119.129 0 98.4796 0 98.4796C0 98.4796 24.0561 94.0202 47.0397 103.997Z" fill="#F0E1A4"/>
<path d="M117.558 65.6939C124.665 54.0026 136.768 48.4353 136.768 48.4353C136.768 48.4353 137.324 61.7634 130.239 73.4213C123.154 85.0792 111.023 90.6409 111.023 90.6409C111.023 90.6409 110.445 77.3184 117.558 65.6939Z" fill="#F0E1A4"/>
<path d="M65.3106 78.2035C70.3953 96.3863 84.4099 108.356 84.4099 108.356C84.4099 108.356 90.1836 90.8357 85.099 72.6474C80.0144 54.4591 65.9941 42.495 65.9941 42.495C65.9941 42.495 60.2205 60.0152 65.3106 78.2035Z" fill="#46455B"/>
<path d="M467.152 77.3853H70.0622C67.8495 77.3853 66.0557 79.1824 66.0557 81.3993V276.577C66.0557 278.794 67.8495 280.591 70.0622 280.591H467.152C469.364 280.591 471.158 278.794 471.158 276.577V81.3993C471.158 79.1824 469.364 77.3853 467.152 77.3853Z" fill="#3F3D56"/>
<path opacity="0.1" d="M66.0557 268.343H471.158V276.577C471.158 277.642 470.736 278.663 469.985 279.415C469.233 280.168 468.214 280.591 467.152 280.591H70.0622C68.9996 280.591 67.9805 280.168 67.2292 279.415C66.4778 278.663 66.0557 277.642 66.0557 276.577V268.343Z" fill="black"/>
<path d="M134.128 253.311H106.899C106.132 253.311 105.51 253.934 105.51 254.703V266.951C105.51 267.72 106.132 268.343 106.899 268.343H134.128C134.895 268.343 135.517 267.72 135.517 266.951V254.703C135.517 253.934 134.895 253.311 134.128 253.311Z" fill="#F0E1A4"/>
<path d="M163.303 266.116H144.965C144.351 266.116 143.854 266.615 143.854 267.23C143.854 267.844 144.351 268.343 144.965 268.343H163.303C163.917 268.343 164.414 267.844 164.414 267.23C164.414 266.615 163.917 266.116 163.303 266.116Z" fill="white"/>
<path d="M125.599 117.125C140.263 119.836 155.223 117.125 169.827 115.287L214.21 109.72C216.005 109.492 218.617 108.417 219.672 110.616C220.267 111.847 219.867 114.513 219.911 115.928C220.028 119.825 220.017 123.722 219.911 127.619C219.711 135.068 219.167 142.5 218.472 149.916C217.122 164.43 215.21 178.866 214.254 193.435C213.765 200.851 213.521 208.289 213.738 215.704C213.788 217.475 213.86 219.245 213.965 221.01C214.082 222.986 214.966 225.92 212.815 227.24C211.587 227.997 209.17 227.958 207.764 228.181C205.541 228.531 203.318 228.81 201.051 229.038C186.108 230.536 170.971 229.912 155.973 229.823L110.684 229.589L99.6365 229.528C98.6363 229.528 95.0298 230.129 94.413 228.938C94.1518 228.431 94.8465 226.06 94.9687 225.425C95.1391 224.378 95.3244 223.333 95.5244 222.29C96.8136 214.97 98.3362 207.693 99.8699 200.422C103.165 184.834 106.538 169.167 107.894 153.245C108.567 145.256 108.122 137.195 108.944 129.222C109.328 125.52 109.784 117.258 114.701 116.93C118.869 116.651 123.159 116.93 127.338 116.93C127.559 116.93 127.771 116.842 127.927 116.685C128.084 116.528 128.172 116.316 128.172 116.095C128.172 115.873 128.084 115.661 127.927 115.504C127.771 115.347 127.559 115.259 127.338 115.259C123.393 115.259 119.442 115.154 115.496 115.232C112.873 115.282 111.051 115.905 109.8 118.322C106.605 124.523 106.933 132.796 106.833 139.566C106.594 155.773 104.11 171.634 100.876 187.484C99.2476 195.462 97.4916 203.412 95.8745 211.395C95.1132 215.209 94.3852 219.034 93.7184 222.869C93.4072 224.696 91.8346 228.721 93.2183 230.396C94.602 232.072 98.8586 231.17 100.765 231.181L114.024 231.259L139.43 231.404C155.845 231.499 172.316 231.961 188.726 231.477C196.561 231.243 204.841 230.92 212.471 229.044C214.743 228.487 215.838 227.44 215.927 225.013C216.06 221.249 215.449 217.369 215.371 213.589C214.816 181.243 222.401 149.348 221.623 116.991C221.573 114.792 222.401 109.247 220 107.916C218.922 107.315 217.522 107.643 216.388 107.777C214.221 108.028 212.059 108.334 209.892 108.59L181.746 112.108C172.749 113.222 163.758 114.424 154.745 115.449C145.204 116.562 135.568 117.225 126.06 115.449C125.01 115.254 124.56 116.863 125.615 117.058L125.599 117.125Z" fill="#8781E9"/>
<path d="M107.905 136.805L218.944 131.349C220.017 131.293 220.022 129.623 218.944 129.679L107.905 135.135C106.838 135.185 106.832 136.855 107.905 136.805Z" fill="#6C63FF"/>
<path d="M142.114 123.037C141.804 123.367 141.578 123.767 141.457 124.204C141.336 124.641 141.324 125.101 141.421 125.544C141.518 125.986 141.721 126.399 142.014 126.745C142.306 127.091 142.678 127.36 143.098 127.53C144.592 128.214 146.348 127.641 147.832 127.268C150.055 126.711 152.278 126.216 154.562 125.809C159.533 124.928 164.568 124.458 169.615 124.406C171.916 124.379 174.2 124.484 176.501 124.585C178.168 124.651 179.963 124.785 181.374 123.75C182.986 122.569 183.508 120.264 181.93 118.828C179.707 116.796 174.917 117.976 172.349 118.188C163.034 118.963 153.778 120.347 144.642 122.33C143.598 122.553 144.037 124.167 145.087 123.939C151.115 122.636 157.188 121.589 163.308 120.799C166.316 120.428 169.33 120.114 172.349 119.858C173.772 119.741 175.195 119.635 176.617 119.552C177.173 119.518 177.762 119.457 178.329 119.474C180.09 119.513 180.296 119.195 179.24 121.328C178.301 123.215 178.601 122.998 176.973 122.937C176.284 122.937 175.595 122.859 174.906 122.825C173.494 122.766 172.083 122.734 170.671 122.731C167.667 122.731 164.67 122.875 161.68 123.165C159.146 123.41 156.618 123.755 154.112 124.2C152.544 124.479 150.989 124.802 149.438 125.158C148.755 125.319 148.066 125.486 147.382 125.659C147.054 125.748 146.721 125.826 146.393 125.91C145.178 126.333 144.142 125.776 143.287 124.239C144.031 123.466 142.859 122.28 142.109 123.059L142.114 123.037Z" fill="#6C63FF"/>
<path d="M162.241 146.798C154.2 146.486 145.514 148.663 140.219 155.149C136.073 160.221 133.711 168.922 138.101 174.634C142.819 180.758 153.166 179.678 159.407 177.067C166.009 174.284 173.233 168.544 175.216 161.362C177.689 152.393 169.659 145.612 161.296 145.512C161.075 145.512 160.863 145.6 160.707 145.757C160.551 145.913 160.463 146.126 160.463 146.347C160.463 146.569 160.551 146.781 160.707 146.938C160.863 147.094 161.075 147.182 161.296 147.182C166.064 147.238 170.743 149.287 172.966 153.735C175.294 158.423 173.288 163.344 170.187 167.096C165.219 173.07 157.451 177.574 149.538 177.446C144.787 177.374 139.535 175.742 138.063 170.721C136.851 166.651 137.774 162.203 139.885 158.595C144.453 150.801 153.75 148.162 162.274 148.496C163.347 148.535 163.347 146.865 162.274 146.826L162.241 146.798Z" fill="#6C63FF"/>
<path d="M154.256 159.169C153.913 159.041 153.544 159.003 153.182 159.057C152.821 159.111 152.479 159.256 152.188 159.479C151.898 159.701 151.668 159.993 151.52 160.328C151.373 160.664 151.312 161.031 151.344 161.395C151.511 163.567 153.901 164.179 155.695 164.051C157.246 163.917 159.057 163.344 158.513 161.401C158.413 161.057 158.24 160.739 158.006 160.468C157.772 160.197 157.482 159.98 157.157 159.831C156.66 159.633 156.12 159.566 155.59 159.636C155.384 159.636 153.5 160.327 154.301 159.497L152.989 159.324C153.135 159.468 153.246 159.643 153.315 159.836C153.385 160.028 153.41 160.234 153.389 160.438C153.392 160.583 153.432 160.726 153.506 160.851C153.58 160.976 153.685 161.08 153.811 161.153C153.937 161.225 154.08 161.263 154.225 161.264C154.37 161.265 154.513 161.227 154.64 161.156C154.83 161.076 155.039 161.051 155.244 161.084C155.448 161.116 155.639 161.205 155.795 161.34C155.952 161.476 156.067 161.652 156.129 161.85C156.191 162.047 156.197 162.258 156.146 162.459C156.101 162.652 156.125 162.854 156.215 163.031C156.305 163.207 156.454 163.346 156.636 163.423C156.818 163.501 157.021 163.511 157.21 163.453C157.399 163.394 157.561 163.271 157.668 163.105C158.224 162.103 158.896 160.109 158.063 159.063C157.507 158.356 156.434 158.567 155.768 158.979C155.356 159.271 154.973 159.601 154.623 159.965C153.951 160.56 153.512 160.839 153.762 159.697C154.178 157.621 156.157 155.967 157.963 155.138L156.74 154.197C156.099 156.61 154.953 158.859 153.378 160.794L154.801 161.384C154.76 160.62 154.956 159.862 155.362 159.213C155.768 158.564 156.364 158.057 157.068 157.76H156.251L156.685 158.473C156.523 159.525 158.129 159.976 158.291 158.912C158.502 157.537 157.635 155.75 156.029 156.424C154.112 157.226 153.117 159.425 153.156 161.384C153.156 162.052 154.101 162.57 154.584 161.98C156.351 159.829 157.641 157.326 158.368 154.637C158.407 154.477 158.398 154.31 158.344 154.155C158.289 154 158.191 153.865 158.061 153.765C157.93 153.665 157.774 153.606 157.611 153.593C157.447 153.581 157.284 153.617 157.14 153.696C155.476 154.45 154.069 155.677 153.095 157.226C152.417 158.339 151.567 160.076 152.256 161.357C152.369 161.561 152.521 161.742 152.704 161.887C152.887 162.033 153.097 162.141 153.322 162.204C153.547 162.268 153.782 162.286 154.014 162.258C154.246 162.23 154.47 162.157 154.673 162.041C155.187 161.736 155.656 161.361 156.068 160.928C156.273 160.744 156.501 160.427 156.773 160.371C157.018 160.204 157.007 160.299 156.735 160.666C156.731 161.243 156.563 161.807 156.251 162.292L157.774 162.932C157.911 162.412 157.895 161.864 157.728 161.353C157.56 160.842 157.249 160.391 156.831 160.053C156.413 159.716 155.907 159.507 155.373 159.452C154.839 159.396 154.301 159.497 153.823 159.742L155.079 160.466C155.105 159.757 154.883 159.062 154.451 158.501C154.385 158.392 154.296 158.3 154.19 158.231C154.084 158.162 153.964 158.117 153.839 158.101C153.714 158.084 153.586 158.096 153.466 158.135C153.346 158.175 153.236 158.24 153.145 158.328C152.3 159.213 152.139 160.744 153.2 161.563C153.995 162.169 154.384 161.563 155.256 161.423C158.218 161.039 156.49 162.375 155.445 162.42C154.978 162.47 154.506 162.436 154.051 162.32C152.891 161.926 152.819 161.42 153.834 160.8C154.829 161.206 155.256 159.592 154.278 159.191L154.256 159.169Z" fill="#6C63FF"/>
<path d="M152.917 162.219C153.6 164.446 150.777 165.181 149.438 165.949C148.498 166.477 147.679 167.196 147.032 168.059C145.632 169.941 145.109 172.335 144.648 174.59C144.437 175.642 146.043 176.087 146.26 175.035C146.514 173.378 146.987 171.763 147.665 170.231C148.666 168.238 150.099 167.569 151.967 166.545C153.834 165.521 155.184 163.934 154.523 161.774C154.212 160.75 152.6 161.189 152.917 162.219Z" fill="#6C63FF"/>
<path d="M155.695 161.1C155.297 161.155 154.934 161.357 154.678 161.666C154.421 161.975 154.288 162.369 154.306 162.771C154.306 163.433 154.745 163.856 155.045 164.385C155.757 165.467 156.3 166.652 156.656 167.898C156.923 169.095 157.184 171.238 156.562 172.352C155.411 174.417 153.333 174.022 151.56 174.022C149.893 174.022 148.604 174.579 148.66 172.252C148.693 170.943 149.604 169.618 150.327 168.588L148.804 168.388C149.125 170.088 149.295 171.813 149.31 173.543C149.31 174.317 150.493 174.746 150.86 173.961C151.754 172.078 152.463 170.113 152.977 168.093L151.338 167.87L151.627 172.101C151.632 172.282 151.695 172.456 151.806 172.598C151.917 172.74 152.071 172.843 152.245 172.89C152.419 172.938 152.604 172.928 152.772 172.862C152.94 172.796 153.082 172.678 153.177 172.524C153.372 172.309 153.515 172.052 153.594 171.773C153.65 171.511 153.139 169.746 152.933 170.375L154.567 170.598L154.683 166.579L153.016 166.801C153.369 167.935 153.475 169.131 153.328 170.309C153.222 171.238 154.783 171.45 154.995 170.531L156.039 165.131L154.517 165.326C154.878 166.073 154.978 166.92 154.8 167.731C154.678 168.8 156.345 168.789 156.467 167.731C156.609 166.622 156.431 165.496 155.956 164.485C155.872 164.346 155.748 164.234 155.602 164.164C155.455 164.093 155.291 164.067 155.129 164.088C154.968 164.109 154.816 164.177 154.693 164.283C154.569 164.389 154.479 164.529 154.433 164.686L153.383 170.086L155.022 170.309C155.189 168.981 155.062 167.634 154.65 166.361C154.594 166.17 154.472 166.004 154.305 165.895C154.138 165.786 153.938 165.741 153.74 165.767C153.543 165.793 153.361 165.889 153.228 166.038C153.095 166.187 153.02 166.379 153.016 166.579L152.9 170.598C152.904 170.798 152.979 170.99 153.112 171.139C153.245 171.288 153.427 171.384 153.624 171.411C153.822 171.438 154.023 171.393 154.19 171.285C154.358 171.177 154.482 171.012 154.539 170.821L154.628 170.548C154.666 170.406 154.667 170.256 154.63 170.114C154.593 169.971 154.519 169.841 154.417 169.735C152.688 167.853 152.338 170.849 151.738 171.678L153.294 172.101L153.005 167.87C152.944 166.968 151.61 166.69 151.366 167.647C150.896 169.531 150.245 171.363 149.421 173.12L150.977 173.543C150.959 171.663 150.773 169.789 150.421 167.943C150.277 167.174 149.271 167.208 148.899 167.742C147.787 169.345 145.865 172.847 147.348 174.768C148.643 176.438 152.716 175.792 154.456 175.687C157.201 175.531 158.195 173.788 158.496 171.194C158.638 169.951 158.569 168.694 158.29 167.475C158.14 166.818 156.623 162.654 156.167 162.737C157.223 162.542 156.773 160.928 155.723 161.123L155.695 161.1Z" fill="#6C63FF"/>
<path d="M152.467 164.853L147.916 170.871L149.355 171.712L152.689 166.879L151.166 166.233L149.505 172.586C149.46 172.779 149.485 172.981 149.574 173.158C149.664 173.334 149.813 173.473 149.995 173.55C150.177 173.627 150.38 173.638 150.569 173.579C150.758 173.521 150.92 173.398 151.027 173.232C151.784 171.976 152.632 170.78 153.567 169.652L152.178 168.839C151.805 170.277 151.085 171.602 150.083 172.697L151.478 173.51C151.563 172.741 151.767 171.989 152.083 171.283C152.511 170.32 151.155 169.468 150.644 170.437C150.174 171.319 149.637 172.164 149.038 172.964L150.561 173.165L150.9 171.578L149.377 171.378L149.622 172.769C149.662 172.909 149.737 173.037 149.841 173.138C149.945 173.24 150.074 173.313 150.215 173.35C150.355 173.387 150.503 173.387 150.644 173.35C150.784 173.312 150.913 173.239 151.016 173.137C152.426 171.676 153.556 169.968 154.351 168.098H152.917C153.294 168.795 153.558 169.546 153.7 170.325C153.9 171.327 155.229 170.954 155.334 170.103C155.573 168.238 155.695 166.36 155.701 164.48H154.034V167.982C154.034 168.889 155.517 169.156 155.673 168.204C155.783 167.36 156.061 166.546 156.49 165.81H155.028C155.381 166.38 155.573 167.034 155.584 167.703C155.584 167.925 155.672 168.137 155.828 168.294C155.985 168.45 156.197 168.538 156.418 168.538C156.639 168.538 156.851 168.45 157.007 168.294C157.163 168.137 157.251 167.925 157.251 167.703L157.462 166.59H155.856C156.018 167.575 156.629 173.126 154.456 172.474C154.089 172.385 153.984 172.408 154.139 172.536L154.634 171.478L155.795 169.012L154.239 168.588C154.339 169.735 154.445 171.372 153.756 172.352C153.2 173.148 151.489 173.465 150.616 172.998C150.04 172.586 149.548 172.069 149.166 171.472L148.027 172.586C148.949 173.259 150.444 174.913 151.633 175.007C152.539 175.08 153.3 174.328 153.895 173.727C154.807 172.783 155.518 171.663 155.985 170.435C156.452 169.207 156.666 167.897 156.612 166.584C156.612 166.363 156.524 166.15 156.368 165.994C156.212 165.837 156 165.749 155.779 165.749C155.558 165.749 155.346 165.837 155.189 165.994C155.033 166.15 154.945 166.363 154.945 166.584V168.488C154.945 168.71 155.033 168.922 155.189 169.079C155.346 169.235 155.558 169.323 155.779 169.323C156 169.323 156.212 169.235 156.368 169.079C156.524 168.922 156.612 168.71 156.612 168.488V163.817C156.612 163.596 156.524 163.383 156.368 163.227C156.212 163.07 156 162.982 155.779 162.982C155.558 162.982 155.346 163.07 155.189 163.227C155.033 163.383 154.945 163.596 154.945 163.817C154.942 164.937 154.845 166.054 154.656 167.158L156.295 167.38C156.165 166.05 156.104 164.714 156.112 163.377C156.109 163.177 156.035 162.985 155.903 162.835C155.771 162.685 155.589 162.588 155.391 162.561C155.193 162.534 154.992 162.579 154.825 162.688C154.657 162.797 154.534 162.963 154.478 163.155C154.228 164.218 153.923 165.265 153.628 166.306L155.151 166.105L155.034 165.66C154.956 164.597 153.289 164.591 153.367 165.66C153.385 166.111 153.503 166.552 153.711 166.952C154.034 167.631 155.04 167.391 155.234 166.751C155.551 165.705 155.834 164.658 156.084 163.6L154.445 163.377C154.437 164.714 154.498 166.05 154.628 167.38C154.712 168.238 156.09 168.605 156.262 167.603C156.484 166.346 156.601 165.072 156.612 163.795H154.945V168.466H156.612V166.562H154.945C155.043 168.662 154.315 170.717 152.917 172.285C152.7 172.532 152.466 172.762 152.217 172.975C151.822 173.354 151.461 173.298 151.144 172.803C150.355 172.474 149.538 171.628 148.849 171.133C148.16 170.637 147.215 171.617 147.704 172.274C148.983 173.978 150.889 175.876 153.261 175.058C155.756 174.172 156.095 170.787 155.906 168.561C155.845 167.82 154.74 167.319 154.356 168.143C153.8 169.318 153.245 170.487 152.689 171.667C152.401 172.107 152.229 172.612 152.189 173.137C152.372 174.389 153.889 174.184 154.823 174.111C158.44 173.838 157.868 168.7 157.451 166.117C157.312 165.259 156.068 165.393 155.845 166.117C155.669 166.625 155.577 167.159 155.573 167.698H157.24C157.18 166.74 156.912 165.808 156.457 164.964C156.382 164.84 156.277 164.737 156.15 164.665C156.024 164.593 155.882 164.556 155.737 164.556C155.592 164.556 155.45 164.593 155.323 164.665C155.197 164.737 155.092 164.84 155.017 164.964C154.52 165.824 154.185 166.767 154.028 167.748L155.695 167.97V164.469C155.695 164.247 155.607 164.035 155.451 163.878C155.295 163.722 155.083 163.634 154.862 163.634C154.641 163.634 154.429 163.722 154.272 163.878C154.116 164.035 154.028 164.247 154.028 164.469C154.023 166.349 153.9 168.227 153.661 170.092L155.301 169.869C155.112 168.959 154.792 168.081 154.351 167.263C154.276 167.139 154.171 167.036 154.044 166.964C153.918 166.893 153.776 166.855 153.631 166.855C153.486 166.855 153.344 166.893 153.217 166.964C153.091 167.036 152.986 167.139 152.911 167.263C152.187 169.007 151.145 170.6 149.838 171.962L151.233 172.33L150.989 170.938C150.861 170.197 149.816 170.175 149.466 170.737C149.19 171.156 149.002 171.627 148.915 172.121C148.828 172.615 148.844 173.122 148.96 173.61C149.099 174.401 150.099 174.317 150.483 173.811C151.082 173.012 151.619 172.169 152.089 171.289L150.65 170.442C150.265 171.274 150.003 172.157 149.872 173.064C149.772 173.799 150.644 174.568 151.266 173.877C152.461 172.568 153.326 170.991 153.789 169.279C153.995 168.522 152.95 167.803 152.394 168.466C151.372 169.693 150.443 170.996 149.616 172.363L151.139 173.009L152.833 166.679C152.878 166.486 152.854 166.283 152.764 166.107C152.674 165.931 152.525 165.791 152.343 165.714C152.161 165.637 151.958 165.627 151.769 165.685C151.58 165.743 151.418 165.867 151.311 166.033L147.977 170.871C147.354 171.767 148.782 172.541 149.416 171.712L153.95 165.699C154.595 164.842 153.15 164.029 152.511 164.853H152.467Z" fill="#6C63FF"/>
<path d="M223.362 184.945C230.031 180.859 235.332 174.763 241.222 169.663C247.613 164.135 254.32 158.985 261.227 154.108C274.642 144.644 288.729 136.176 302.805 127.73C302.987 127.615 303.118 127.433 303.169 127.222C303.22 127.012 303.188 126.791 303.079 126.604C302.97 126.417 302.794 126.28 302.586 126.221C302.378 126.162 302.156 126.186 301.966 126.288C287.89 134.734 273.797 143.185 260.383 152.666C254.053 157.12 247.874 161.841 241.95 166.851C235.504 172.307 229.764 179.099 222.501 183.503C221.584 184.06 222.423 185.507 223.34 184.945H223.362Z" fill="#6C63FF"/>
<path d="M324.327 101.798C317.103 102.533 309.323 104.375 304.877 110.705C301.037 116.15 301.121 125.648 304.727 131.238C308.823 137.59 317.191 137.818 323.693 135.764C330.195 133.709 336.924 130.107 336.863 122.324C336.83 118.149 335.324 113.801 333.662 110.015C332.229 106.747 329.689 103.891 325.844 104.253C324.782 104.353 324.771 106.023 325.844 105.923C330.995 105.444 332.651 111.574 333.873 115.443C334.985 119.056 336.013 123.332 334.268 126.923C332.523 130.514 328.317 132.345 324.721 133.659C320.831 135.073 316.558 135.936 312.496 134.773C304.449 132.518 302.227 122.302 304.544 115.053C307.211 106.703 316.658 104.247 324.354 103.468C325.41 103.362 325.421 101.692 324.354 101.798H324.327Z" fill="#6C63FF"/>
<path d="M335.441 166.378C328.217 167.113 320.437 168.956 315.991 175.286C312.152 180.731 312.235 190.228 315.841 195.818C319.937 202.17 328.306 202.399 334.807 200.344C341.309 198.29 348.038 194.688 347.977 186.905C347.944 182.729 346.438 178.381 344.777 174.596C343.343 171.328 340.803 168.472 336.958 168.833C335.897 168.934 335.885 170.604 336.958 170.504C342.109 170.025 343.765 176.154 344.988 180.024C346.099 183.637 347.127 187.912 345.382 191.503C343.637 195.094 339.431 196.926 335.835 198.24C331.946 199.654 327.672 200.517 323.61 199.353C315.564 197.098 313.341 186.883 315.658 179.634C318.325 171.283 327.772 168.828 335.469 168.048C336.524 167.943 336.536 166.272 335.469 166.378H335.441Z" fill="#6C63FF"/>
<path d="M313.429 118.06L318.691 124.072C318.795 124.173 318.924 124.245 319.064 124.281C319.204 124.318 319.351 124.317 319.491 124.279C319.631 124.242 319.759 124.169 319.862 124.067C319.965 123.965 320.041 123.839 320.081 123.699C321.192 120.771 320.981 117.737 321.242 114.658C321.53 111.476 322.327 108.361 323.604 105.433C326.167 99.4941 330.514 94.5028 336.04 91.153C336.957 90.5963 336.118 89.1488 335.201 89.7111C329.753 92.9981 325.382 97.8087 322.626 103.551C321.277 106.346 320.341 109.322 319.847 112.387C319.291 116 319.797 119.786 318.463 123.254L319.858 122.881L314.624 116.879C313.912 116.072 312.74 117.258 313.446 118.06H313.429Z" fill="#6C63FF"/>
<path d="M226.046 191.453C254.709 190.577 283.379 190.392 312.056 190.896C312.277 190.896 312.49 190.808 312.646 190.652C312.802 190.495 312.89 190.283 312.89 190.061C312.89 189.84 312.802 189.628 312.646 189.471C312.49 189.314 312.277 189.226 312.056 189.226C283.386 188.714 254.716 188.9 226.046 189.783C224.973 189.816 224.968 191.487 226.046 191.453Z" fill="#6C63FF"/>
<path d="M318.047 174.985C327.846 178.838 337.271 183.582 346.204 189.159C347.116 189.716 347.955 188.285 347.043 187.717C337.992 182.072 328.442 177.271 318.514 173.376C317.519 172.981 317.086 174.595 318.075 174.985H318.047Z" fill="#6C63FF"/>
<path d="M335.841 167.419C325.905 179.024 320.149 193.637 319.498 208.912C319.453 209.987 321.121 209.987 321.165 208.912C321.796 194.075 327.379 179.88 337.019 168.599C337.714 167.787 336.541 166.601 335.841 167.419Z" fill="#6C63FF"/>
<path d="M113.59 185.391L175.7 184.578L182.841 184.483C184.125 184.483 185.408 184.439 186.692 184.433C188.498 184.433 189.715 185.936 189.682 187.773C189.598 191.67 187.153 191.531 183.952 191.67L176.234 192.021L144.804 193.407C139.174 193.658 133.54 193.964 127.91 194.159C122.831 194.315 113.173 192.656 115.43 185.251C115.741 184.221 114.135 183.782 113.818 184.806C112.707 188.447 114.674 192.144 117.841 194.053C122.337 196.759 128.261 195.84 133.223 195.618L171.81 193.864L181.179 193.446C183.58 193.335 186.92 193.825 189.126 192.706C191.716 191.398 192.171 186.203 190.537 184.015C189.698 182.902 188.52 182.802 187.203 182.752C183.747 182.618 180.229 182.846 176.767 182.891L157.529 183.147L113.568 183.704C113.347 183.704 113.135 183.792 112.979 183.948C112.822 184.105 112.734 184.317 112.734 184.539C112.734 184.76 112.822 184.973 112.979 185.129C113.135 185.286 113.347 185.374 113.568 185.374L113.59 185.391Z" fill="#6C63FF"/>
<path d="M364.531 389.988C363.131 390.868 361.53 391.363 360.086 392.137C358.641 392.911 357.235 394.074 356.824 395.678C356.67 396.175 356.696 396.711 356.896 397.192C357.255 397.773 357.806 398.21 358.452 398.428C361.387 399.734 364.557 400.426 367.768 400.463C370.98 400.499 374.165 399.879 377.129 398.64C378.172 398.137 379.249 397.709 380.352 397.359C381.711 397.081 383.094 396.94 384.481 396.936C385.938 396.851 387.388 396.665 388.821 396.379C389.541 396.299 390.223 396.015 390.788 395.561C391.303 394.966 391.613 394.22 391.671 393.434C392.329 389.097 391.337 384.67 388.893 381.03C388.585 380.52 388.172 380.082 387.681 379.744C387.083 379.435 386.426 379.258 385.753 379.226C382.975 378.887 380.063 378.263 377.257 378.197C375.245 378.152 374.234 379.11 372.811 380.496C369.871 383.441 368.154 387.722 364.531 389.988Z" fill="#323444"/>
<path d="M405.481 389.576C405.481 392.304 405.809 395.193 407.459 397.37C408.214 398.312 409.128 399.112 410.16 399.736C413.649 401.963 418.273 402.782 421.952 400.894C422.546 400.627 423.054 400.199 423.419 399.658C423.974 398.69 423.68 397.482 423.369 396.413L418.045 377.929C414.605 378.458 409.548 378.831 406.492 380.579C404.275 381.843 405.481 387.138 405.481 389.576Z" fill="#323444"/>
<path d="M361.408 275.764C361.086 276.783 359.919 277.256 359.28 278.114C358.53 279.121 358.607 280.519 358.88 281.744C359.216 283.55 360.063 285.221 361.319 286.559C361.957 287.222 362.744 287.723 363.614 288.019C364.484 288.315 365.412 288.399 366.321 288.263C367.218 288.097 368.036 287.64 368.649 286.963C369.263 286.287 369.637 285.427 369.716 284.516C369.684 283.688 369.507 282.872 369.194 282.105L365.404 271.127C365.401 271.049 365.376 270.973 365.332 270.908C365.288 270.844 365.227 270.793 365.156 270.762C365.085 270.73 365.006 270.72 364.929 270.731C364.852 270.742 364.779 270.775 364.72 270.826C363.825 271.249 362.031 271.695 361.508 272.624C360.986 273.554 361.786 274.757 361.408 275.764Z" fill="#FBB3B2"/>
<path d="M359.636 275.213C361.019 274.996 362.231 274.183 363.526 273.649C364.82 273.114 366.443 272.908 367.532 273.799C367.843 274.055 368.143 274.406 368.549 274.4C367.997 271.678 367.163 269.021 366.06 266.473C366.021 266.35 365.945 266.243 365.843 266.166C365.691 266.105 365.522 266.105 365.37 266.166L361.631 267.146C360.247 267.508 360.086 267.397 360.191 268.761C360.219 269.367 360.53 275.213 359.636 275.213Z" fill="#323444"/>
<path d="M359.225 195.935C358.669 196.792 358.669 197.861 358.669 198.869C358.669 203.796 358.719 208.751 359.447 213.628C359.619 214.797 359.836 215.966 359.947 217.146C360.073 218.789 360.099 220.438 360.025 222.084L359.469 243.518C359.402 246.141 359.269 248.958 357.652 251.018C357.162 251.708 356.931 252.55 357.002 253.395C357.424 258.773 358.313 264.106 359.197 269.423C360.619 268.78 362.174 268.484 363.733 268.558C365.291 268.633 366.811 269.076 368.166 269.852C370.969 261.02 372.52 251.837 372.772 242.572C372.9 238.012 372.706 233.425 373.406 228.921C374.578 221.338 374.1 213.561 373.239 205.934C372.967 203.518 372.389 201.029 370.844 199.158C369.382 197.522 367.434 196.398 365.287 195.952C363.231 195.412 361.392 195.968 359.225 195.935Z" fill="#5B5583"/>
<path opacity="0.1" d="M359.225 195.935C358.669 196.792 358.669 197.861 358.669 198.869C358.669 203.796 358.719 208.751 359.447 213.628C359.619 214.797 359.836 215.966 359.947 217.146C360.073 218.789 360.099 220.438 360.025 222.084L359.469 243.518C359.402 246.141 359.269 248.958 357.652 251.018C357.162 251.708 356.931 252.55 357.002 253.395C357.424 258.773 358.313 264.106 359.197 269.423C360.619 268.78 362.174 268.484 363.733 268.558C365.291 268.633 366.811 269.076 368.166 269.852C370.969 261.02 372.52 251.837 372.772 242.572C372.9 238.012 372.706 233.425 373.406 228.921C374.578 221.338 374.1 213.561 373.239 205.934C372.967 203.518 372.389 201.029 370.844 199.158C369.382 197.522 367.434 196.398 365.287 195.952C363.231 195.412 361.392 195.968 359.225 195.935Z" fill="black"/>
<path d="M366.015 258.094C362.288 277.228 364.323 297.041 371.861 315.014C372.512 316.344 372.969 317.762 373.217 319.223C373.523 321.95 372.267 324.573 371.55 327.212C369.883 333.213 370.844 339.604 371.911 345.745C372.356 348.306 372.813 350.865 373.284 353.422C373.745 355.916 374.189 358.628 373.034 360.888C374.028 365.041 374.617 369.155 375.612 373.309C375.717 373.637 375.75 373.985 375.706 374.327C375.506 374.871 375.153 375.345 374.69 375.691C373.948 376.445 373.415 377.378 373.143 378.4C372.872 379.422 372.87 380.498 373.139 381.52C375.679 379.694 379.218 380.335 382.119 381.52C385.02 382.706 387.876 384.304 391.01 384.304C390.555 380.618 390.116 376.749 391.472 373.292C392.261 371.288 393.65 369.395 393.611 367.251C393.572 365.331 392.4 363.616 392.116 361.718C392.011 360.536 392.056 359.347 392.25 358.177C392.994 351.362 392.149 344.481 391.305 337.678C391.209 336.336 390.894 335.02 390.371 333.781C389.977 332.979 389.388 332.211 389.399 331.315C389.399 330.274 390.238 329.427 390.549 328.436C391.105 326.61 390.082 324.127 391.622 322.997C395.678 320.013 394.122 312.887 394.033 307.849C393.963 303.502 393.778 299.16 393.478 294.821C396.032 302.016 397.076 309.662 396.545 317.28C396.367 319.774 396.039 322.396 397.012 324.701C397.756 326.471 399.235 327.93 399.635 329.806C399.885 330.964 399.707 332.161 399.763 333.341C399.818 334.521 400.218 335.807 401.235 336.403C401.313 341.77 401.791 347.51 401.874 352.877C401.82 355.62 402.043 358.362 402.541 361.061C402.79 361.919 402.929 362.806 402.952 363.7C402.827 364.82 402.531 365.915 402.074 366.945C401.106 369.818 400.853 372.885 401.337 375.878C401.821 378.871 403.028 381.701 404.853 384.12C406.164 381.788 408.898 380.552 411.565 380.357C414.233 380.162 416.867 380.836 419.451 381.515C419.056 378.262 419.702 374.967 421.296 372.106C421.723 371.461 422.051 370.756 422.268 370.013C422.568 368.599 421.868 367.19 421.49 365.793C420.873 363.566 421.09 361.166 421.235 358.839C421.719 351.045 421.375 343.222 420.207 335.501C420.026 333.98 419.67 332.486 419.145 331.047C418.945 330.535 418.701 330.045 418.534 329.528C418.272 328.599 418.122 327.642 418.089 326.677L417.45 317.769C417 311.529 419.045 305.366 420.473 299.275C421.112 296.547 421.807 293.825 422.235 291.052C422.818 287.277 422.913 283.419 423.769 279.695C424.535 276.354 425.919 273.098 426.208 269.674C426.653 264.368 424.452 259.241 422.318 254.375C421.429 252.371 418.067 252.571 415.905 252.215C400.574 249.693 384.425 249.676 369.966 255.36C368.471 255.981 367.124 256.913 366.015 258.094Z" fill="#3C354C"/>
<path d="M377.067 159.28L378.768 165.905C379.23 167.424 379.486 168.999 379.529 170.587C379.547 171.166 379.419 171.741 379.157 172.257C378.877 172.682 378.518 173.048 378.101 173.337C376.94 174.222 376.134 176.288 374.806 176.9C375.489 178.092 376.434 177.318 377.668 177.914C379.84 178.971 381.83 180.491 384.186 181.015C386.409 181.504 388.742 181.042 390.949 180.458C394.077 179.606 397.189 178.431 399.706 176.377C402.224 174.323 403.657 172.508 403.646 169.262C400.868 169.59 398.395 166.779 397.167 164.251C396.741 163.291 396.428 162.284 396.233 161.251L394.744 154.687C393.121 155.043 391.799 156.207 390.248 156.814C388.698 157.42 386.864 157.476 385.142 157.554C382.084 157.693 379.043 158.088 376.05 158.734C375.639 158.818 375.122 159.079 375.222 159.48" fill="#FBB3B2"/>
<path opacity="0.1" d="M377.067 159.28L378.768 165.905C379.23 167.424 379.486 168.999 379.529 170.587C379.547 171.166 379.419 171.741 379.157 172.257C378.877 172.682 378.518 173.048 378.101 173.337C376.94 174.222 376.134 176.288 374.806 176.9C375.489 178.092 376.434 177.318 377.668 177.914C379.84 178.971 381.83 180.491 384.186 181.015C386.409 181.504 388.742 181.042 390.949 180.458C394.077 179.606 397.189 178.431 399.706 176.377C402.224 174.323 403.657 172.508 403.646 169.262C400.868 169.59 398.395 166.779 397.167 164.251C396.741 163.291 396.428 162.284 396.233 161.251L394.744 154.687C393.121 155.043 391.799 156.207 390.248 156.814C388.698 157.42 386.864 157.476 385.142 157.554C382.084 157.693 379.043 158.088 376.05 158.734C375.639 158.818 375.122 159.079 375.222 159.48" fill="black"/>
<path d="M384.369 162.932C392.496 162.932 399.084 156.332 399.084 148.19C399.084 140.048 392.496 133.448 384.369 133.448C376.242 133.448 369.654 140.048 369.654 148.19C369.654 156.332 376.242 162.932 384.369 162.932Z" fill="#FBB3B2"/>
<path d="M388.421 172.491C389.208 170.788 390.344 169.271 391.755 168.037C393.828 166.217 396.662 164.741 397.151 162.025L401.641 167.263C401.885 167.506 402.074 167.799 402.196 168.121C402.253 168.423 402.245 168.734 402.172 169.032C402.099 169.331 401.963 169.61 401.774 169.852C400.663 171.628 398.912 172.898 397.256 174.184C393.461 177.196 389.827 180.407 386.37 183.804C386.218 183.981 386.014 184.106 385.787 184.16C385.572 184.166 385.36 184.106 385.181 183.988C382.198 182.419 379.559 180.268 377.418 177.663C377.257 177.468 377.057 177.246 376.796 177.262C376.638 177.291 376.493 177.367 376.379 177.479C374.884 178.704 373.25 180.168 371.333 179.979C373.817 178.192 375.223 175.208 375.745 172.185C375.848 171.15 376.061 170.129 376.379 169.14C376.543 168.644 376.827 168.197 377.205 167.838C377.583 167.479 378.044 167.218 378.546 167.08C377.335 168.934 378.163 171.561 379.791 173.059C381.373 174.404 383.269 175.326 385.303 175.737C387.193 176.093 387.748 173.95 388.421 172.491Z" fill="#323444"/>
<path d="M369.277 259.608C371.372 260.126 373.356 261.005 375.39 261.657C379.096 262.82 382.998 263.23 386.865 262.865C388.055 262.839 389.213 262.469 390.199 261.801C390.46 261.59 390.699 261.339 390.977 261.145C391.442 260.865 391.946 260.657 392.472 260.527C397.568 258.929 401.835 255.483 405.975 252.109C406.109 251.998 406.259 251.858 406.247 251.68C406.228 251.559 406.17 251.447 406.081 251.363L403.902 248.858C398.19 249.832 392.338 249.464 386.542 249.32C385.353 249.267 384.16 249.298 382.975 249.414C381.83 249.548 380.702 249.837 379.574 250.082C375.29 251.018 370.911 251.374 366.571 251.986C366.267 252.009 365.973 252.1 365.709 252.254C365.526 252.395 365.37 252.569 365.248 252.766L363.726 254.909C363.135 255.63 362.699 256.466 362.447 257.364C362.092 259.035 362.836 259.591 364.254 259.374C365.927 259.129 367.633 259.208 369.277 259.608Z" fill="#323444"/>
<path d="M386.309 181.254C384.609 179.509 382.682 178.001 380.58 176.772C379.73 176.232 378.788 175.854 377.801 175.659C377.304 175.561 376.792 175.573 376.301 175.694C375.809 175.815 375.35 176.042 374.956 176.36C374.461 176.8 374.15 177.413 373.672 177.875C373.071 178.381 372.381 178.772 371.638 179.027C369.109 180.11 366.711 181.479 364.492 183.108C363.283 183.956 362.193 184.963 361.252 186.103C358.735 189.332 358.357 193.725 358.424 197.822C358.474 200.673 361.202 202.788 363.081 204.92C364.842 207.019 366.436 209.253 367.849 211.601C368.86 213.205 369.916 214.942 369.788 216.851C369.682 218.416 368.771 219.885 368.915 221.444C368.965 222.001 369.143 222.513 369.193 223.053C369.293 224.167 368.854 225.28 368.743 226.394C368.593 227.969 369.104 229.533 369.132 231.12C369.112 232.206 368.974 233.287 368.721 234.344C367.654 239.432 366.315 244.548 366.587 249.743L363.509 250.299C363.8 250.586 364.02 250.937 364.151 251.324C364.282 251.712 364.32 252.125 364.263 252.53C364.205 252.935 364.052 253.32 363.818 253.655C363.584 253.99 363.274 254.265 362.914 254.458C367.721 256.067 372.916 255.254 378.012 255.249C382.23 255.249 386.431 255.806 390.643 255.728C394.855 255.65 399.201 254.887 402.674 252.499C403.619 251.853 404.486 251.096 405.48 250.533C406.813 249.842 408.248 249.371 409.731 249.141C412.478 248.617 415.27 248.367 418.067 248.395C419.434 248.395 420.923 248.451 422.012 247.627C423.213 246.714 423.518 245.061 423.679 243.563C423.84 241.982 423.94 240.395 423.968 238.809C424.015 237.573 423.95 236.336 423.774 235.112C423.607 234.217 423.39 233.332 423.124 232.462L421.029 225.069C420.162 222.018 421.368 218.672 421.623 215.509C421.684 214.763 421.695 213.895 421.123 213.416C420.918 213.244 420.634 213.127 420.567 212.859C420.537 212.733 420.534 212.601 420.557 212.473C420.58 212.344 420.629 212.222 420.701 212.113C421.812 209.887 423.479 207.921 425.002 205.911C427.559 202.386 429.933 198.731 432.115 194.961C431.432 187.071 428.115 179.642 422.701 173.872C421.644 172.595 420.291 171.595 418.761 170.96C417.745 170.649 416.69 170.479 415.627 170.453C411.271 170.158 406.736 169.897 402.941 167.703C402.668 167.514 402.36 167.383 402.035 167.319C401.196 167.224 400.585 168.054 400.04 168.711C398.64 170.381 396.578 171.339 394.766 172.569C391.388 174.868 388.748 178.031 386.309 181.254Z" fill="#5B5583"/>
<path d="M432.493 197.238C433.359 199.988 433.276 202.927 433.559 205.795C433.727 207.525 434.03 209.239 434.465 210.922C434.664 211.847 435.021 212.73 435.521 213.533C436.021 214.268 436.738 214.864 437.055 215.693C437.228 216.255 437.305 216.843 437.283 217.43L437.349 221.272C437.492 223.307 437.183 225.349 436.444 227.251L434.048 234.55C432.754 238.502 431.426 242.516 429.092 245.957C428.763 246.539 428.265 247.007 427.663 247.299C427.193 247.423 426.71 247.498 426.224 247.521C425.377 247.673 424.609 248.115 424.052 248.773C423.495 249.43 423.185 250.261 423.173 251.123C422.617 250.309 421.923 249.599 421.123 249.025L416.249 245.127C414.582 243.769 412.843 242.388 410.82 241.603C413.541 240.752 415.956 239.128 417.773 236.928C419.59 234.728 420.731 232.047 421.056 229.211C421.055 228.366 421.245 227.532 421.612 226.772C422.018 226.115 422.768 225.614 422.823 224.84C422.89 223.866 421.79 223.131 421.79 222.157C421.79 221.511 422.268 220.977 422.479 220.37C422.676 219.62 422.676 218.832 422.479 218.082L421.806 214.34C421.767 213.966 421.654 213.602 421.473 213.271C421.221 212.954 420.943 212.66 420.64 212.392C419.484 211.095 419.995 209.051 420.64 207.454C422.12 203.907 424.027 200.555 426.319 197.472C427.134 196.436 427.89 195.354 428.58 194.231C429.169 193.207 429.303 191.787 429.925 190.891C430.725 192.995 431.809 195.072 432.493 197.238Z" fill="#5B5583"/>
<path d="M410.649 241.832C410.401 242.016 410.186 242.242 410.015 242.5C409.361 243.323 408.488 243.946 407.498 244.298C408.054 244.699 408.559 245.094 409.082 245.5C412.947 248.491 416.486 251.882 419.64 255.616C419.99 254.364 422.085 254.453 422.596 253.256C422.717 252.913 422.755 252.547 422.707 252.187C422.601 250.311 422.334 248.449 421.907 246.619C421.739 245.678 421.359 244.787 420.796 244.014C420.018 243.073 418.806 242.622 417.651 242.232C415.9 241.62 412.427 240.757 410.649 241.832Z" fill="#323444"/>
<path d="M403.702 246.207C402.035 247.443 400.574 248.991 398.701 249.837C397.379 250.439 395.873 250.7 394.717 251.597C395.345 252.983 396.978 253.701 398.496 253.645C400.014 253.496 401.469 252.961 402.724 252.092C403.719 251.48 404.886 250.767 405.97 251.196C406.136 252.042 405.414 252.838 405.414 253.695C405.414 254.553 406.125 255.176 406.825 255.627C410.16 257.782 414.45 257.604 418.423 257.353C418.651 257.362 418.875 257.295 419.062 257.164C419.148 257.063 419.213 256.946 419.254 256.82C419.295 256.694 419.311 256.561 419.301 256.429C419.351 255.549 419.373 254.675 419.379 253.796C419.491 253.086 419.399 252.36 419.114 251.701C418.828 251.042 418.361 250.479 417.767 250.077C415.611 248.22 413.285 246.57 410.821 245.15C408.376 243.73 405.897 244.571 403.702 246.207Z" fill="#FBB3B2"/>
<path d="M389.537 142.027C387.07 142.322 385.275 144.254 385.525 146.353C385.775 148.452 387.976 149.899 390.443 149.598C392.91 149.298 394.705 147.372 394.455 145.278C394.205 143.185 392.005 141.732 389.537 142.027ZM390.376 149.019C388.287 149.27 386.425 148.04 386.209 146.269C385.992 144.499 387.52 142.862 389.604 142.612C391.688 142.361 393.555 143.591 393.772 145.362C393.988 147.132 392.46 148.769 390.376 149.019Z" fill="#3C354C"/>
<path d="M377.512 143.474C375.045 143.769 373.25 145.701 373.5 147.795C373.75 149.888 375.95 151.341 378.418 151.046C380.885 150.751 382.68 148.819 382.43 146.72C382.18 144.621 379.979 143.179 377.512 143.474ZM378.351 150.461C376.262 150.712 374.4 149.481 374.189 147.717C373.978 145.952 375.495 144.309 377.584 144.053C379.674 143.797 381.535 145.033 381.746 146.804C381.957 148.574 380.435 150.211 378.351 150.461Z" fill="#3C354C"/>
<path d="M368.582 144.549L373.944 145.696L373.416 147.11L368.359 145.623L368.582 144.549Z" fill="#3C354C"/>
<path d="M398.473 140.952L393.527 143.341L394.378 144.588L398.94 141.943L398.473 140.952Z" fill="#3C354C"/>
<path d="M381.936 145.34L385.698 144.889L385.503 145.824L382.275 146.041L381.936 145.34Z" fill="#3C354C"/>
<path d="M374.639 144.076C374.993 143.313 375.183 142.484 375.195 141.643C375.208 141.139 375.294 140.64 375.451 140.162C375.724 139.554 376.139 139.021 376.662 138.609C378.396 137.139 380.88 136.382 383.33 136.276C386.002 136.153 388.661 136.728 391.043 137.946C391.771 138.288 392.423 138.772 392.961 139.371C393.739 140.323 393.905 141.554 394.689 142.495C395.224 143.065 395.896 143.488 396.642 143.722C397.388 143.957 398.181 143.994 398.945 143.831C399.218 142.862 398.862 141.838 399.001 140.847C399.22 139.998 399.516 139.17 399.885 138.375C400.746 135.831 399.49 132.88 396.9 131.36C395.995 130.803 394.922 130.441 394.244 129.69C393.566 128.938 393.405 128.159 392.938 127.407C391.699 125.42 388.493 124.49 386.053 125.409C385.286 125.698 384.608 126.138 383.83 126.45C382.386 127.045 380.741 127.151 379.152 127.352C377.585 127.497 376.053 127.899 374.617 128.543C373.244 129.222 372.094 130.313 371.777 131.616C371.627 132.217 371.661 132.841 371.511 133.437C370.744 136.46 365.793 137.929 365.515 141.014C365.415 142.127 366.02 143.196 366.776 144.103C367.299 144.721 368.549 146.375 369.432 146.614C370.316 146.854 370.988 146.013 371.833 145.724C373.167 145.306 373.972 145.217 374.639 144.076Z" fill="#333333"/>
<path d="M437.327 340.161C437.327 368.131 454.843 390.767 476.487 390.767L437.327 340.161Z" fill="#46455B"/>
<path d="M476.487 390.773C476.487 362.486 496.037 339.599 520.193 339.599L476.487 390.773Z" fill="#46455B"/>
<path d="M451.52 342.7C451.52 369.272 462.689 390.773 476.487 390.773L451.52 342.7Z" fill="#F0E1A4"/>
<path d="M476.487 390.773C476.487 354.63 499.082 325.38 527 325.38L476.487 390.773Z" fill="#F0E1A4"/>
<path opacity="0.1" d="M474.793 400.438C480.169 400.438 484.528 399.7 484.528 398.79C484.528 397.88 480.169 397.142 474.793 397.142C469.416 397.142 465.057 397.88 465.057 398.79C465.057 399.7 469.416 400.438 474.793 400.438Z" fill="#6C63FF"/>
<path d="M468.252 391.129C468.252 391.129 473.809 390.957 475.476 389.765C477.143 388.574 484.017 387.143 484.434 389.058C484.851 390.973 492.769 398.584 486.507 398.634C480.244 398.684 471.936 397.654 470.269 396.635C468.602 395.617 468.252 391.129 468.252 391.129Z" fill="#46455B"/>
<path d="M12.498 356.506C12.498 378.776 26.4293 396.769 43.6504 396.769L12.498 356.506Z" fill="#46455B"/>
<path d="M43.6504 396.769C43.6504 374.266 59.2099 356.055 78.4203 356.055L43.6504 396.769Z" fill="#46455B"/>
<path d="M23.7842 358.533C23.7842 379.689 32.6753 396.78 43.6503 396.78L23.7842 358.533Z" fill="#F0E1A4"/>
<path d="M43.6504 396.769C43.6504 368.014 61.6272 344.743 83.8383 344.743L43.6504 396.769Z" fill="#F0E1A4"/>
<path opacity="0.1" d="M42.2991 404.463C46.5774 404.463 50.0455 403.875 50.0455 403.149C50.0455 402.423 46.5774 401.835 42.2991 401.835C38.0209 401.835 34.5527 402.423 34.5527 403.149C34.5527 403.875 38.0209 404.463 42.2991 404.463Z" fill="#6C63FF"/>
<path d="M37.0986 397.053C37.0986 397.053 41.5164 396.914 42.8445 395.939C44.1726 394.965 49.6463 393.852 49.9741 395.383C50.302 396.914 56.6147 402.96 51.6412 402.999C46.6677 403.038 40.0494 402.219 38.7213 401.412C37.3932 400.605 37.0986 397.053 37.0986 397.053Z" fill="#46455B"/>
</g>
<defs>
<clipPath id="clip0_20_131">
<rect width="527" height="422" fill="white"/>
</clipPath>
</defs>
</svg>
