<svg width="19" height="22" viewBox="0 0 19 22" fill="none" xmlns="http://www.w3.org/2000/svg">
<g opacity="0.4">
<path d="M19 16.2365L18.9979 16.2375L10.0107 21.016L0.169589 16.3175L0 16.2365L0.510752 6.4822L9.39784 0.434814L9.49593 0.49336L18.6936 5.99467L19 16.2365Z" fill="#ED7971"/>
<path opacity="0.3" d="M18.9978 16.2376L10.0106 21.0161L0.169434 16.3175L8.88694 10.4817L18.9978 16.2376Z" fill="#ED7971"/>
<path opacity="0.1" d="M18.9999 16.2372L8.88672 10.4822L9.4955 0.493896L18.6931 5.99526L18.9999 16.2372Z" fill="black"/>
<path d="M0.379773 9.49222L0.330078 9.42471L9.31613 3.36792L18.8089 9.05113L18.7629 9.12118L9.31893 3.46716L0.379773 9.49222Z" fill="#F2F2F2"/>
<path d="M0.205804 12.806L0.157227 12.7376L9.09794 6.94141L9.12136 6.9541L18.8171 12.2013L18.7744 12.2732L9.10229 7.03863L0.205804 12.806Z" fill="#F2F2F2"/>
<path d="M3.61688 17.9878L3.57129 17.9176L12.5823 12.586V2.36523H12.6688V12.6321L3.61688 17.9878Z" fill="#F2F2F2"/>
<path d="M7.15388 19.6761L7.10791 19.6061L15.7841 14.4099V4.28027H15.8707V14.4554L7.15388 19.6761Z" fill="#F2F2F2"/>
<path d="M15.7512 17.9889L5.66064 12.6354L5.66207 12.6096L6.19326 2.58398L6.27967 2.5882L5.74985 12.5881L15.7932 17.9167L15.7512 17.9889Z" fill="#F2F2F2"/>
<path d="M12.5765 19.6777L2.59961 14.6851L2.60116 14.6586L3.18931 4.62793L3.27572 4.63256L2.68919 14.6366L12.617 19.6044L12.5765 19.6777Z" fill="#F2F2F2"/>
</g>
</svg>
