<svg width="598" height="404" viewBox="0 0 598 404" fill="none" xmlns="http://www.w3.org/2000/svg">
<g clip-path="url(#clip0_120_104)">
<path d="M83.4108 398.21C129.477 398.21 166.822 360.929 166.822 314.941C166.822 268.954 129.477 231.673 83.4108 231.673C37.3443 231.673 0 268.954 0 314.941C0 360.929 37.3443 398.21 83.4108 398.21Z" fill="#F2F2F2"/>
<path d="M184.311 351.875C143.537 351.875 104.024 337.761 72.5057 311.939C40.9871 286.117 19.4125 250.183 11.4579 210.261C3.50337 170.339 9.661 128.899 28.8817 93.0011C48.1023 57.1033 79.1968 28.9692 116.867 13.3924C154.537 -2.18431 196.452 -4.2399 235.47 7.5759C274.488 19.3917 308.195 44.3478 330.848 78.1921C353.501 112.036 363.697 152.675 359.701 193.183C355.704 233.691 337.761 271.562 308.93 300.344C275.879 333.339 231.052 351.875 184.311 351.875ZM184.311 1.34384C87.8741 1.34384 9.41717 79.6659 9.41717 175.938C9.41717 272.21 87.8741 350.532 184.311 350.532C280.747 350.532 359.203 272.209 359.203 175.934C359.203 79.6599 280.748 1.34324 184.311 1.34324V1.34384Z" fill="#F0E1A4"/>
<path d="M276.129 231.625L276.11 231.635L189.247 279.92L94.1303 232.443L92.4912 231.625L97.4277 133.062L183.323 71.9556L184.271 72.5471L273.168 128.136L276.129 231.625Z" fill="#ED7971"/>
<path opacity="0.3" d="M276.11 231.635L189.247 279.92L94.1304 232.443L178.387 173.474L276.11 231.635Z" fill="#3C354C"/>
<path opacity="0.1" d="M276.13 231.625L178.384 173.474L184.268 72.5471L273.165 128.136L276.13 231.625Z" fill="#ED7971"/>
<path d="M96.1634 163.477L95.6831 162.795L182.535 101.595L274.284 159.02L273.84 159.728L182.562 102.597L96.1634 163.477Z" fill="#F2F2F2"/>
<path d="M94.4798 196.961L94.0103 196.271L180.424 137.703L180.65 137.831L274.361 190.852L273.948 191.578L180.466 138.685L94.4798 196.961Z" fill="#F2F2F2"/>
<path d="M127.451 249.32L127.01 248.61L214.103 194.738V91.4617H214.94V195.203L127.451 249.32Z" fill="#F2F2F2"/>
<path d="M161.634 266.38L161.189 265.672L245.047 213.167V110.812H245.883V213.627L161.634 266.38Z" fill="#F2F2F2"/>
<path d="M244.731 249.33L147.204 195.235L147.218 194.975L152.352 93.6714L153.187 93.7139L148.066 194.757L245.137 248.599L244.731 249.33Z" fill="#F2F2F2"/>
<path d="M214.047 266.396L117.619 215.948L117.634 215.68L123.318 114.326L124.153 114.373L118.484 215.458L214.439 265.655L214.047 266.396Z" fill="#F2F2F2"/>
<path d="M292.61 71.8532C311.185 71.8532 326.243 56.8208 326.243 38.2774C326.243 19.734 311.185 4.70166 292.61 4.70166C274.035 4.70166 258.977 19.734 258.977 38.2774C258.977 56.8208 274.035 71.8532 292.61 71.8532Z" fill="#3F3D56" fill-opacity="0.8"/>
<path d="M348.585 303.735L348.588 303.74L366.3 324.194L358.954 352.187L358.828 352.67L332.288 356.852L311.214 337.372L311.319 337.086L321.173 310.297L348.585 303.735Z" fill="#ED7971" fill-opacity="0.4"/>
<path opacity="0.3" d="M348.589 303.74L366.3 324.193L358.954 352.187L338.541 333.025L348.589 303.74Z" fill="#FBB3B2"/>
<path opacity="0.1" d="M348.585 303.736L338.541 333.026L311.319 337.087L321.173 310.298L348.585 303.736Z" fill="black"/>
<path d="M340.463 355.493L340.308 355.659L319.156 335.929L329.34 308.277L329.554 308.356L319.421 335.866L340.463 355.493Z" fill="#F2F2F2"/>
<path d="M349.48 354.073L349.322 354.237L328.895 334.477L328.917 334.41L337.818 306.481L338.035 306.55L329.155 334.411L349.48 354.073Z" fill="#F2F2F2"/>
<path d="M361.593 342.367L361.428 342.524L342.215 322.321L314.695 328.082L314.648 327.859L342.292 322.072L361.593 342.367Z" fill="#F2F2F2"/>
<path d="M364.232 332.307L364.068 332.465L345.4 313.048L318.125 318.757L318.079 318.534L345.476 312.799L364.232 332.307Z" fill="#F2F2F2"/>
<path d="M355.054 311.115L346.079 340.12L346.009 340.131L318.728 344.413L318.693 344.188L345.904 339.917L354.837 311.047L355.054 311.115Z" fill="#F2F2F2"/>
<path d="M361.313 318.339L353.249 346.849L353.177 346.86L325.852 350.998L325.817 350.773L353.07 346.645L361.094 318.276L361.313 318.339Z" fill="#F2F2F2"/>
<path d="M514.548 148.694L514.551 148.698L532.263 169.152L524.917 197.146L524.79 197.628L498.251 201.81L477.177 182.33L477.282 182.044L487.136 155.255L514.548 148.694Z" fill="#ED7971" fill-opacity="0.4"/>
<path opacity="0.3" d="M514.551 148.698L532.263 169.152L524.917 197.146L504.504 177.983L514.551 148.698Z" fill="#FBB3B2"/>
<path opacity="0.1" d="M514.548 148.694L504.504 177.984L477.282 182.045L487.136 155.256L514.548 148.694Z" fill="black"/>
<path d="M506.426 200.451L506.271 200.617L485.118 180.887L495.303 153.235L495.517 153.314L485.384 180.824L506.426 200.451Z" fill="#F2F2F2"/>
<path d="M515.443 199.032L515.285 199.195L494.858 179.435L494.88 179.368L503.781 151.439L503.998 151.509L495.118 179.369L515.443 199.032Z" fill="#F2F2F2"/>
<path d="M527.556 187.325L527.391 187.482L508.178 167.279L480.658 173.04L480.611 172.817L508.255 167.031L527.556 187.325Z" fill="#F2F2F2"/>
<path d="M530.195 177.265L530.031 177.423L511.363 158.006L484.088 163.715L484.042 163.492L511.439 157.757L530.195 177.265Z" fill="#F2F2F2"/>
<path d="M521.017 156.073L512.042 185.078L511.972 185.089L484.691 189.372L484.656 189.147L511.866 184.875L520.799 156.005L521.017 156.073Z" fill="#F2F2F2"/>
<path d="M527.276 163.297L519.212 191.807L519.14 191.818L491.814 195.956L491.78 195.731L519.033 191.603L527.057 163.234L527.276 163.297Z" fill="#F2F2F2"/>
<path d="M494.995 19.4694L494.99 19.4722L471.341 32.6177L445.446 19.6922L445 19.4694L446.344 -7.36402L469.729 -24L469.987 -23.8389L494.189 -8.70517L494.995 19.4694Z" fill="#ED7971"/>
<path opacity="0.3" d="M494.99 19.4723L471.341 32.6178L445.446 19.6923L468.385 3.63818L494.99 19.4723Z" fill="#ED7971"/>
<path opacity="0.1" d="M494.995 19.4695L468.384 3.63816L469.986 -23.8389L494.188 -8.7051L494.995 19.4695Z" fill="black"/>
<path d="M446 0.916388L445.869 0.730692L469.514 -15.9309L494.493 -0.297004L494.372 -0.10429L469.522 -15.6579L446 0.916388Z" fill="#F2F2F2"/>
<path d="M445.541 10.0323L445.414 9.84434L468.939 -6.10059L469.001 -6.06567L494.514 8.36905L494.401 8.56682L468.951 -5.83314L445.541 10.0323Z" fill="#F2F2F2"/>
<path d="M454.517 24.2869L454.397 24.0937L478.108 9.42707V-18.6895H478.336V9.5537L454.517 24.2869Z" fill="#F2F2F2"/>
<path d="M463.824 28.9313L463.703 28.7387L486.533 14.4443V-13.4214H486.76V14.5697L463.824 28.9313Z" fill="#F2F2F2"/>
<path d="M486.447 24.2896L459.896 9.56243L459.899 9.49161L461.297 -18.0879L461.524 -18.0763L460.13 9.43238L486.558 24.0908L486.447 24.2896Z" fill="#F2F2F2"/>
<path d="M478.093 28.9357L451.841 15.2015L451.845 15.1285L453.393 -12.4648L453.62 -12.4521L452.077 15.068L478.2 28.7341L478.093 28.9357Z" fill="#F2F2F2"/>
</g>
<defs>
<clipPath id="clip0_120_104">
<rect width="598" height="404" fill="white"/>
</clipPath>
</defs>
</svg>
