<svg width="63" height="55" viewBox="0 0 63 55" fill="none" xmlns="http://www.w3.org/2000/svg">
<path d="M13.8704 49.5416L13.8683 49.5361L3.70988 25.5665L19.6043 2.22584L19.8781 1.82362L46.2536 5.96096L59.8956 30.0504L59.7053 30.2796L41.8305 51.7692L13.8704 49.5416Z" fill="#ED7971"/>
<path opacity="0.3" d="M13.8239 49.4349L3.70002 25.5143L19.5396 2.22108L32.6151 25.7744L13.8239 49.4349Z" fill="#FBB3B2"/>
<path opacity="0.1" d="M13.9283 49.5337L32.806 25.779L59.8209 30.2383L41.9238 51.7641L13.9283 49.5337Z" fill="#FBB3B2"/>
<path d="M38.1976 4.86779L38.3955 4.76305L51.932 29.0301L33.6065 51.1419L33.4318 51.0064L51.6632 29.0082L38.1976 4.86779Z" fill="#F2F2F2"/>
<path d="M29.1942 3.42798L29.3939 3.32628L42.2353 27.402L42.1937 27.4569L24.9897 50.2026L24.8091 50.0746L41.9715 27.3845L29.1942 3.42798Z" fill="#F2F2F2"/>
<path d="M13.9284 10.3867L14.1342 10.2926L25.8077 34.5372L53.6564 37.5346L53.629 37.7524L25.6549 34.7415L13.9284 10.3867Z" fill="#F2F2F2"/>
<path d="M8.23821 18.7173L8.4435 18.6221L19.8551 41.9875L47.4571 44.9585L47.4297 45.1763L19.7035 42.192L8.23821 18.7173Z" fill="#F2F2F2"/>
<path d="M10.1256 40.8769L27.9015 17.0644L27.9712 17.0755L55.1102 21.35L55.0714 21.5661L28.0021 17.3026L10.3091 41.0039L10.1256 40.8769Z" fill="#F2F2F2"/>
<path d="M6.47223 32.4246L23.2285 8.79355L23.3002 8.80522L50.4339 13.2242L50.394 13.4402L23.3323 9.03307L6.65894 32.548L6.47223 32.4246Z" fill="#F2F2F2"/>
</svg>
