<svg width="154" height="154" viewBox="0 0 154 154" fill="none" xmlns="http://www.w3.org/2000/svg">
<g clip-path="url(#clip0_171_2)">
<path fill-rule="evenodd" clip-rule="evenodd" d="M53.6256 83.8514C48.978 87.2813 42.2399 89.1055 36.4379 89.1055C28.3059 89.1055 20.9836 86.0997 15.4417 81.0962C15.0068 80.7036 15.3949 80.1663 15.9179 80.4708C21.8964 83.9497 29.2897 86.0445 36.926 86.0445C42.077 86.0445 47.7398 84.9757 52.9498 82.7656C53.7361 82.4324 54.3947 83.284 53.6256 83.8514Z" fill="#FF9900"/>
<path fill-rule="evenodd" clip-rule="evenodd" d="M55.5599 81.6438C54.9655 80.8824 51.6304 81.2834 50.1323 81.462C49.6786 81.5158 49.6083 81.1204 50.0173 80.8331C52.6774 78.9641 57.0366 79.5042 57.5431 80.129C58.0539 80.7607 57.4096 85.1307 54.9163 87.2164C54.5324 87.5373 54.1678 87.366 54.338 86.9427C54.8984 85.5422 56.1549 82.4052 55.5599 81.6438Z" fill="#FF9900"/>
<path fill-rule="evenodd" clip-rule="evenodd" d="M50.2376 67.6328V65.8173C50.239 65.5411 50.4473 65.3569 50.6976 65.3572L58.8353 65.3565C59.0957 65.3569 59.3044 65.546 59.3051 65.8155L59.3044 67.3726C59.3023 67.6338 59.0824 67.9747 58.6919 68.5158L54.4765 74.5342C56.0413 74.4975 57.6963 74.7314 59.1177 75.5309C59.4387 75.7109 59.5247 75.978 59.5495 76.2395V78.177C59.5495 78.4434 59.2576 78.7525 58.9506 78.5923C56.4457 77.2799 53.1218 77.1366 50.3522 78.6081C50.0687 78.7591 49.7729 78.4546 49.7729 78.1875V76.3455C49.7729 76.0511 49.7785 75.547 50.0757 75.0977L54.9592 68.0914L50.7074 68.0907C50.448 68.09 50.2397 67.9047 50.2376 67.6328Z" fill="black"/>
<path fill-rule="evenodd" clip-rule="evenodd" d="M20.5531 78.9736H18.0772C17.8416 78.9579 17.6535 78.781 17.6343 78.5551L17.636 65.8486C17.636 65.5941 17.85 65.391 18.1139 65.391L20.4195 65.3903C20.6608 65.4025 20.8544 65.5853 20.8698 65.8171V67.476H20.916C21.5169 65.8717 22.6493 65.1232 24.1746 65.1232C25.7229 65.1232 26.6934 65.872 27.387 67.476C27.9877 65.8717 29.3511 65.1232 30.8072 65.1232C31.8472 65.1232 32.9796 65.5511 33.6728 66.5139C34.4587 67.5833 34.2972 69.1338 34.2972 70.4979L34.2951 78.5167C34.2951 78.7701 34.0812 78.9743 33.8176 78.9743H31.3449C31.0966 78.9579 30.9005 78.7614 30.9005 78.5174L30.9002 71.7813C30.9002 71.2468 30.9463 69.9095 30.8309 69.4016C30.646 68.5461 30.0915 68.3052 29.3752 68.3052C28.7742 68.3052 28.1502 68.7062 27.8961 69.3477C27.6416 69.9896 27.665 71.059 27.665 71.7809V78.5163C27.665 78.7698 27.451 78.9739 27.1874 78.9739H24.7144C24.4661 78.9575 24.27 78.761 24.27 78.517L24.2679 71.7809C24.2679 70.364 24.499 68.2783 22.7426 68.2783C20.9628 68.2783 21.0324 70.3105 21.0324 71.7809L21.0313 78.5163C21.031 78.7694 20.8167 78.9736 20.5531 78.9736Z" fill="black"/>
<path fill-rule="evenodd" clip-rule="evenodd" d="M66.3107 65.1232C69.9853 65.1232 71.9721 68.2783 71.9721 72.2889C71.9721 76.166 69.7773 79.2414 66.3107 79.2414C62.7056 79.2414 60.7412 76.0863 60.7412 72.155C60.7412 68.1982 62.7287 65.1232 66.3107 65.1232ZM66.3338 67.7168C64.5081 67.7168 64.3928 70.2032 64.3928 71.7544C64.3928 73.3052 64.3701 76.6208 66.311 76.6208C68.2293 76.6208 68.3216 73.9471 68.3216 72.3162C68.3216 71.2464 68.2751 69.963 67.9517 68.9467C67.6741 68.0644 67.1193 67.7168 66.3338 67.7168Z" fill="black"/>
<path fill-rule="evenodd" clip-rule="evenodd" d="M76.7374 78.9736H74.2709C74.0227 78.9572 73.8266 78.7607 73.8266 78.5167L73.8228 65.8056C73.8437 65.5735 74.0486 65.391 74.2982 65.391L76.5947 65.3903C76.8108 65.4011 76.9891 65.549 77.0345 65.7465V67.6899H77.0814C77.7746 65.9521 78.7451 65.1232 80.4547 65.1232C81.5639 65.1232 82.6505 65.5242 83.3437 66.6205C83.9915 67.6364 83.9915 69.3477 83.9915 70.5776V78.5733C83.9636 78.7988 83.7615 78.9736 83.5171 78.9736H81.035C80.8056 78.9586 80.6207 78.7901 80.5938 78.5733V71.674C80.5938 70.2833 80.756 68.2514 79.0454 68.2514C78.4441 68.2514 77.8896 68.6524 77.6128 69.2673C77.266 70.0427 77.2195 70.8181 77.2195 71.674V78.516C77.2156 78.7694 77.0017 78.9736 76.7374 78.9736Z" fill="black"/>
<path d="M86.7618 79.1231C87.4347 79.1231 87.9802 78.6047 87.9802 77.9652C87.9802 77.3257 87.4347 76.8073 86.7618 76.8073C86.0889 76.8073 85.5435 77.3257 85.5435 77.9652C85.5435 78.6047 86.0889 79.1231 86.7618 79.1231Z" fill="black"/>
<path d="M111.773 78.9769C111.516 78.9688 111.312 78.7685 111.312 78.5199V65.8113C111.329 65.5872 111.518 65.4086 111.754 65.3935L112.664 65.3932C112.914 65.3932 113.119 65.5757 113.139 65.8116V67.6645C113.785 66.1966 114.989 65.046 116.511 65.046L116.607 65.0474L116.698 65.046C118.312 65.046 119.494 66.2371 119.932 67.9673C120.617 66.2588 121.906 65.046 123.606 65.046L123.694 65.0474L123.793 65.046C124.994 65.046 126.15 65.8214 126.751 66.9978C127.328 68.1211 127.305 69.6181 127.305 70.8752L127.305 78.5199C127.305 78.7636 127.109 78.9604 126.861 78.9769H125.773C125.538 78.9695 125.347 78.8014 125.315 78.5822V70.8752C125.315 69.9656 125.361 69.0035 124.991 68.1742C124.614 67.3258 123.894 66.7986 123.12 66.7598C122.256 66.8024 121.462 67.4299 120.95 68.2812C120.279 69.3779 120.303 70.3673 120.303 71.6506V78.5863C120.272 78.7975 120.089 78.9618 119.862 78.9769H118.78C118.523 78.9688 118.318 78.7685 118.318 78.5199L118.313 70.3673C118.313 69.6181 118.266 68.736 117.92 68.0676C117.52 67.2981 116.803 66.7996 116.052 66.7601C115.272 66.8038 114.484 67.3992 114.016 68.0942C113.416 68.9762 113.3 70.0729 113.3 71.1962L113.299 78.5199C113.299 78.7636 113.103 78.9604 112.855 78.9769H111.773Z" fill="black"/>
<path d="M104.312 79.2443C100.8 79.2443 99.2285 75.6609 99.2285 72.0782C99.2285 68.3081 101.078 65.046 104.613 65.046L104.704 65.0467L104.8 65.046C108.244 65.046 109.954 68.5221 109.954 72.1048C109.954 75.9018 108.059 79.2443 104.499 79.2443L104.408 79.2429L104.312 79.2443ZM104.572 77.5043C105.728 77.4666 106.639 76.751 107.179 75.5543C107.664 74.4845 107.756 73.255 107.756 72.0786C107.756 70.7948 107.617 69.458 107.017 68.362C106.479 67.403 105.551 66.7958 104.568 66.7591C103.474 66.7993 102.498 67.5387 102.004 68.6826C101.565 69.6719 101.426 70.9822 101.426 72.0786C101.426 73.3084 101.588 74.7257 102.097 75.7951C102.591 76.8079 103.543 77.468 104.572 77.5043Z" fill="black"/>
<path d="M93.3355 77.4512C94.9126 77.4012 95.7404 76.1378 96.0837 74.4995C96.1508 74.2954 96.3078 74.1381 96.5375 74.1381L97.5804 74.1335C97.8265 74.1464 98.0527 74.3349 98.0338 74.5642C97.552 77.3509 95.8701 79.2443 93.4726 79.2443L93.3761 79.2429L93.2852 79.2443C89.7958 79.2443 88.2939 75.7413 88.2939 72.1852C88.2939 68.6556 89.8189 65.046 93.3086 65.046L93.4009 65.0471L93.496 65.046C95.9173 65.046 97.6454 66.9122 98.0205 69.7006C98.0205 69.9096 97.8265 70.0904 97.5989 70.117L96.5057 70.104C96.2784 70.0719 96.1285 69.8743 96.0942 69.6555C95.831 68.0991 94.9367 66.8611 93.4474 66.8122C91.0747 66.8881 90.3996 69.8083 90.3996 72.0513C90.3996 74.2167 90.9628 77.3729 93.3355 77.4512Z" fill="black"/>
<path fill-rule="evenodd" clip-rule="evenodd" d="M43.7504 72.9051C43.7504 73.87 43.7731 74.6737 43.2872 75.5313C42.8932 76.2284 42.2681 76.6567 41.5734 76.6567C40.6236 76.6567 40.0677 75.933 40.0677 74.8615C40.0677 72.7531 41.959 72.3692 43.7504 72.3692V72.9051ZM46.2465 78.9413C46.0822 79.0881 45.8462 79.0983 45.6613 78.9993C44.839 78.3155 44.6918 77.9998 44.2423 77.3489C42.883 78.7336 41.9206 79.1486 40.1603 79.1486C38.076 79.1486 36.4546 77.8621 36.4546 75.2901C36.4546 73.2799 37.5429 71.9137 39.0948 71.2435C40.4383 70.6537 42.3142 70.5471 43.75 70.3863V70.0646C43.75 69.4749 43.7962 68.7781 43.449 68.2691C43.148 67.8132 42.5687 67.6258 42.059 67.6258C41.1151 67.6258 40.2754 68.1097 40.0694 69.1127C40.0264 69.3357 39.8639 69.5563 39.6394 69.5679L37.2401 69.3081C37.0374 69.2623 36.8119 69.0997 36.8703 68.7907C37.4219 65.8796 40.0509 65 42.4069 65C43.6112 65 45.1862 65.3216 46.1357 66.2327C47.3401 67.358 47.224 68.8589 47.224 70.4936V74.3507C47.224 75.5107 47.7061 76.0194 48.1588 76.6451C48.3165 76.8706 48.3525 77.1381 48.1508 77.3027C47.6449 77.7268 46.7461 78.5071 46.2518 78.9469L46.2465 78.9413Z" fill="black"/>
<path fill-rule="evenodd" clip-rule="evenodd" d="M11.2954 72.9051C11.2954 73.87 11.3185 74.6737 10.8322 75.5313C10.4386 76.2284 9.81314 76.6567 9.11848 76.6567C8.16932 76.6567 7.61311 75.933 7.61311 74.8615C7.61311 72.7531 9.50444 72.3692 11.2954 72.3692V72.9051ZM13.7916 78.9413C13.6276 79.0881 13.3913 79.0983 13.2067 78.9993C12.3841 78.3155 12.2369 77.9998 11.7873 77.3489C10.4284 78.7336 9.46564 79.1486 7.70575 79.1486C5.62109 79.1486 4 77.8621 4 75.2901C4 73.2799 5.08865 71.9137 6.64017 71.2435C7.98333 70.6537 9.85963 70.5471 11.2954 70.3863V70.0646C11.2954 69.4749 11.3416 68.7781 10.9944 68.2691C10.6931 67.8132 10.1138 67.6258 9.60477 67.6258C8.66051 67.6258 7.82077 68.1097 7.61486 69.1127C7.57186 69.3357 7.40964 69.5563 7.18485 69.5679L4.7852 69.3081C4.58243 69.2623 4.35694 69.0997 4.41568 68.7907C4.967 65.8796 7.59598 65 9.95193 65C11.1563 65 12.7309 65.3216 13.6807 66.2327C14.8848 67.358 14.7691 68.8589 14.7691 70.4936V74.3507C14.7691 75.5107 15.2508 76.0194 15.7035 76.6451C15.8616 76.8706 15.8969 77.1381 15.6955 77.3027C15.19 77.7268 14.2911 78.5071 13.7968 78.9469L13.7916 78.9413Z" fill="black"/>
<path fill-rule="evenodd" clip-rule="evenodd" d="M21.2266 141.329C21.2234 141.652 21.2203 142.299 21.2171 142.619C24.9555 142.636 28.6906 142.629 32.4291 142.622C32.4163 140.886 32.1409 139.028 30.9586 137.674C29.4403 135.764 26.7718 135.092 24.4429 135.559C21.7615 136.113 19.4905 138.436 19.138 141.172C18.8657 143.142 19.2374 145.279 20.4867 146.867C23.2639 150.398 29.1712 150.084 32.1344 146.944C31.8748 146.582 31.6122 146.22 31.3462 145.858C29.3761 147.716 26.3233 148.552 23.767 147.502C20.6212 146.198 19.7211 141.77 21.5854 139.083C23.1421 136.76 26.6821 136.145 28.9276 137.811C30.0456 138.615 30.5549 139.961 30.7984 141.268C27.6079 141.315 24.4141 141.194 21.2266 141.329ZM75.4161 142.914C73.1451 141.565 70.3705 141.95 67.9424 141.104C67.1256 140.813 66.203 140.207 66.2479 139.227C66.2512 138 67.4363 137.238 68.5159 137.004C70.3802 136.597 72.5588 136.6 74.1378 137.811C74.8268 138.32 75.0731 139.17 75.2016 139.973C75.7428 139.973 76.2875 139.97 76.8322 139.964C76.816 138.535 76.0728 137.148 74.8299 136.418C73.0486 135.239 70.8162 135.264 68.7723 135.46C67.4526 135.661 66.0687 136.171 65.239 137.27C64.278 138.647 64.4281 140.867 65.931 141.812C68.032 143.151 70.6429 142.92 72.9786 143.516C73.9234 143.763 74.9807 144.256 75.2432 145.294C75.4387 146.441 74.5608 147.479 73.5135 147.816C71.5401 148.494 69.2239 148.459 67.3659 147.45C66.3632 146.937 65.8731 145.865 65.7322 144.794C65.2036 144.794 64.675 144.791 64.1497 144.791C64.2299 146.537 65.2102 148.225 66.8665 148.901C69.4447 149.993 72.5906 150.019 75.099 148.725C77.2837 147.713 77.5495 144.118 75.4161 142.914ZM16.5368 139.512C16.4311 137.644 14.98 135.95 13.0996 135.703C10.5272 135.066 7.92283 136.28 6.08087 138.029C6.08735 138.634 6.09052 139.24 6.09052 139.845C7.85891 138.208 10.1782 136.43 12.7409 137.161C14.144 137.452 14.9289 138.875 14.9671 140.22C15.06 143.18 14.9769 146.143 15.0087 149.106H16.6042C16.5688 145.909 16.6938 142.706 16.5368 139.512ZM59.8568 145.22C58.1721 146.848 55.9644 148.494 53.4755 147.976C52.0403 147.777 51.0379 146.415 51.0216 145.009C50.9481 141.953 51.0153 138.894 50.9927 135.837C50.464 135.831 49.9387 135.828 49.4103 135.828C49.391 138.56 49.4168 141.293 49.3972 144.022C49.3559 145.262 49.4679 146.582 50.1792 147.639C50.9577 148.818 52.3766 149.391 53.7511 149.458C55.9933 149.702 58.1973 148.651 59.7606 147.098C59.9432 146.492 59.8282 145.842 59.8568 145.22ZM60.3825 135.844C60.3949 140.265 60.3757 144.686 60.392 149.106C60.94 149.106 61.4907 149.103 62.0418 149.103C62.0451 144.676 62.0481 140.249 62.0387 135.822C61.4842 135.828 60.9332 135.835 60.3825 135.844ZM4.11377 136.552V149.798H5.66416C5.66416 145.387 5.66416 140.976 5.661 136.565C5.14541 136.559 4.62967 136.555 4.11377 136.552Z" fill="#5C6064"/>
<path fill-rule="evenodd" clip-rule="evenodd" d="M45.1335 136.344C43.6891 137.923 42.1962 139.461 40.7739 141.06C40.7771 141.326 40.7804 141.851 40.7836 142.114C41.0623 142.11 41.6197 142.104 41.8984 142.104C43.8108 139.99 45.813 137.962 47.719 135.844C46.8639 135.963 45.7328 135.502 45.1335 136.344Z" fill="#EB1552"/>
<path fill-rule="evenodd" clip-rule="evenodd" d="M39.8965 140.989C38.2083 139.32 36.6513 137.523 34.9759 135.841C34.2712 135.85 33.5665 135.857 32.8618 135.876C34.8607 137.939 36.818 140.044 38.8137 142.113C39.1854 142.11 39.5601 142.107 39.9318 142.104C39.9221 141.732 39.9091 141.36 39.8965 140.989Z" fill="#47C6F4"/>
<path fill-rule="evenodd" clip-rule="evenodd" d="M41.9013 143.065C41.6196 143.068 41.0526 143.071 40.7673 143.071C40.7673 143.318 40.7642 143.811 40.7642 144.055C42.1543 145.614 43.5895 147.127 44.9831 148.684C45.5724 149.452 46.6776 148.972 47.4976 149.078C45.6623 147.046 43.7819 145.054 41.9013 143.065Z" fill="#6CBE6E"/>
<path fill-rule="evenodd" clip-rule="evenodd" d="M38.8071 143.068C36.8916 145.054 35.0014 147.06 33.1274 149.078C33.8291 149.084 34.5307 149.084 35.2323 149.078C36.7762 147.393 38.3331 145.72 39.9125 144.071C39.9158 143.821 39.9189 143.324 39.9221 143.074C39.5503 143.071 39.1787 143.071 38.8071 143.068Z" fill="#FFC423"/>
</g>
<defs>
<clipPath id="clip0_171_2">
<rect width="154" height="154" fill="white"/>
</clipPath>
</defs>
</svg>
