<svg width="97" height="65" viewBox="0 0 97 65" fill="none" xmlns="http://www.w3.org/2000/svg">
<circle cx="3.57143" cy="3.57143" r="3.57143" fill="#FBB3B2" fill-opacity="0.41"/>
<circle cx="21.4284" cy="3.57143" r="3.57143" fill="#FBB3B2" fill-opacity="0.41"/>
<circle cx="39.2858" cy="3.57143" r="3.57143" fill="#FBB3B2" fill-opacity="0.41"/>
<circle cx="57.1427" cy="3.57143" r="3.57143" fill="#FBB3B2" fill-opacity="0.41"/>
<circle cx="75.0001" cy="3.57143" r="3.57143" fill="#FBB3B2" fill-opacity="0.41"/>
<circle cx="92.8571" cy="3.57143" r="3.57143" fill="#FBB3B2" fill-opacity="0.41"/>
<circle cx="3.57143" cy="22.8571" r="3.57143" fill="#FBB3B2" fill-opacity="0.41"/>
<circle cx="21.4284" cy="22.8571" r="3.57143" fill="#FBB3B2" fill-opacity="0.41"/>
<circle cx="39.2858" cy="22.8571" r="3.57143" fill="#FBB3B2" fill-opacity="0.41"/>
<circle cx="57.1427" cy="22.8571" r="3.57143" fill="#FBB3B2" fill-opacity="0.41"/>
<circle cx="75.0001" cy="22.8571" r="3.57143" fill="#FBB3B2" fill-opacity="0.41"/>
<circle cx="92.8571" cy="22.8571" r="3.57143" fill="#FBB3B2" fill-opacity="0.41"/>
<circle cx="3.57143" cy="42.1429" r="3.57143" fill="#FBB3B2" fill-opacity="0.41"/>
<circle cx="21.4284" cy="42.1429" r="3.57143" fill="#FBB3B2" fill-opacity="0.41"/>
<circle cx="39.2858" cy="42.1429" r="3.57143" fill="#FBB3B2" fill-opacity="0.41"/>
<circle cx="57.1427" cy="42.1429" r="3.57143" fill="#FBB3B2" fill-opacity="0.41"/>
<circle cx="75.0001" cy="42.1429" r="3.57143" fill="#FBB3B2" fill-opacity="0.41"/>
<circle cx="92.8571" cy="42.1429" r="3.57143" fill="#FBB3B2" fill-opacity="0.41"/>
<circle cx="3.57143" cy="61.4286" r="3.57143" fill="#FBB3B2" fill-opacity="0.41"/>
<circle cx="21.4284" cy="61.4286" r="3.57143" fill="#FBB3B2" fill-opacity="0.41"/>
<circle cx="39.2858" cy="61.4286" r="3.57143" fill="#FBB3B2" fill-opacity="0.41"/>
<circle cx="57.1427" cy="61.4286" r="3.57143" fill="#FBB3B2" fill-opacity="0.41"/>
<circle cx="75.0001" cy="61.4286" r="3.57143" fill="#FBB3B2" fill-opacity="0.41"/>
<circle cx="92.8571" cy="61.4286" r="3.57143" fill="#FBB3B2" fill-opacity="0.41"/>
</svg>
