<svg width="89" height="89" viewBox="0 0 89 89" fill="none" xmlns="http://www.w3.org/2000/svg">
<g clip-path="url(#clip0_173_21)">
<path d="M24.0841 48.0282H27.4657C27.2381 49.5309 26.3525 50.6866 24.9911 51.5367C23.6277 52.3881 21.8853 52.8116 19.7698 52.8116C17.1035 52.8116 14.9892 52.1913 13.4292 50.8355C11.8659 49.4768 11.1357 47.5132 11.1251 45.0604C11.1024 39.8005 14.5884 37.1016 19.5998 37.0475C25.2851 36.986 28.222 40.1885 27.9561 45.7523L14.4984 45.7635C14.7069 48.8675 16.6186 50.6328 19.7874 50.6328C21.5066 50.6328 23.3479 49.9718 24.0841 48.0282L24.0841 48.0282ZM14.5886 43.52H24.4682C24.1916 40.5955 22.4757 39.302 19.635 39.2112C17.2332 39.1344 14.8161 40.6751 14.5886 43.52Z" fill="#EF494D"/>
<path d="M31.1484 52.257H27.8745L27.9743 49.2989L27.9742 31.1263H31.3282V39.5726C32.554 38.0561 34.7057 37.0528 36.8818 37.0528C39.2505 37.0528 41.2897 37.4687 43.0546 39.223C44.5328 40.6923 45.2846 42.7915 45.3011 44.8946C45.3222 47.5855 44.3162 49.5489 42.6437 50.9781C40.9718 52.4067 38.9379 52.972 36.618 52.7842C34.32 52.5982 32.594 51.6406 31.268 50.2004L31.1483 52.257L31.1484 52.257ZM31.2702 44.7344C31.3717 47.8595 32.8917 50.4747 36.3405 50.5539C37.7971 50.5874 39.1116 50.1156 40.1722 49.1189C41.2303 48.1247 41.8216 46.8054 41.8216 44.8338C41.8216 42.8174 41.1909 41.6468 40.1754 40.6883C39.16 39.7298 37.93 39.248 36.4919 39.248C33.4701 39.248 31.1729 41.742 31.2702 44.7344L31.2702 44.7344Z" fill="#0067AB"/>
<path d="M57.763 50.1841C55.9893 52.3612 53.7816 52.7758 51.2406 52.7832C48.5318 52.7912 45.3014 51.6557 44.9589 48.2878C44.8826 47.5378 45.1748 46.3052 45.5821 45.7021C46.9413 43.6899 49.9391 43.2678 52.1437 43.1704C54.5432 43.0643 56.3885 43.0609 57.5215 43.046C57.5209 42.6964 57.5184 42.2942 57.5184 42.2021C57.5184 40.152 55.6406 39.2322 53.4697 39.2322C51.279 39.2322 49.7649 39.9079 49.5956 41.4852H46.0616C46.4421 39.3369 47.4945 38.2319 49.6981 37.5468C50.8368 37.1928 52.1554 36.9761 53.6581 37.0134C57.7093 37.1139 60.8582 38.4378 60.8582 42.7112V46.1203C60.8582 46.8331 60.7593 51.2223 60.9662 52.2948H57.8925C57.7342 51.417 57.8048 50.8855 57.763 50.184L57.763 50.1841ZM57.5047 45.2761C55.2523 45.2474 52.2317 45.1325 50.0122 45.8295C48.1458 46.4157 47.9413 48.7213 49.3678 49.8621C51.4639 51.5388 55.6468 50.7571 56.945 48.3257C57.5023 47.2819 57.5047 46.4257 57.5047 45.2761L57.5047 45.2761Z" fill="#FEBF2C"/>
<path fill-rule="evenodd" clip-rule="evenodd" d="M68.6771 49.0733L62.9155 37.6116H59.0361L66.8193 52.2574L63.8447 57.8734H67.5537L77.8752 37.6116H74.3712L68.6771 49.0733Z" fill="#81C34D"/>
</g>
<defs>
<clipPath id="clip0_173_21">
<rect width="89" height="89" fill="white"/>
</clipPath>
</defs>
</svg>
