<svg width="161" height="161" viewBox="0 0 161 161" fill="none" xmlns="http://www.w3.org/2000/svg">
<path d="M71.7083 73.9222C72.1771 73.9222 72.6481 73.9222 73.1191 73.9245C73.1166 78.0743 73.1191 82.2244 73.1191 86.3768C72.6481 86.3768 72.1771 86.3768 71.7083 86.3768C71.7083 85.9255 71.7109 85.4738 71.718 85.0225C70.7164 86.831 67.9752 87.143 66.5052 85.7538C65.6168 84.9317 65.3003 83.6802 65.2686 82.507C65.2463 81.1792 65.5777 79.7632 66.5201 78.7765C67.8724 77.3653 70.5768 77.2871 71.7206 79.0047C71.6934 77.3116 71.7132 75.6157 71.7083 73.9222ZM68.3412 79.1447C67.3914 79.5375 66.8883 80.5559 66.7778 81.53C66.6281 82.6786 66.7535 84.0336 67.6833 84.8431C68.6331 85.7069 70.2502 85.5207 71.0433 84.5363C71.8602 83.5551 71.7477 82.1753 71.6692 80.9852C71.5389 79.4515 69.7078 78.482 68.3412 79.1447Z" fill="#E81123"/>
<path d="M114.778 73.9222C115.247 73.9222 115.718 73.9222 116.189 73.9222C116.175 75.6991 116.221 77.4781 116.16 79.255C117.043 77.8806 118.911 77.3113 120.388 78.04C121.434 78.5114 121.777 79.7577 121.819 80.8107C121.858 82.6664 121.822 84.5214 121.834 86.3765C121.363 86.3765 120.891 86.3765 120.423 86.3765C120.413 84.6931 120.438 83.0097 120.416 81.3257C120.384 80.4815 120.146 79.4609 119.284 79.0975C117.89 78.4791 116.337 79.694 116.219 81.1174C116.143 82.8697 116.214 84.6245 116.19 86.3768C115.718 86.3768 115.247 86.3768 114.779 86.3768C114.776 82.2247 114.778 78.0746 114.778 73.9222Z" fill="#E81123"/>
<path d="M53.3978 74.5138C53.874 74.0941 54.7453 74.3195 54.8998 74.948C55.1966 75.655 54.2836 76.4131 53.6309 76.0452C53.015 75.8241 52.9368 74.9234 53.3978 74.5138Z" fill="#E81123"/>
<path d="M36.8662 74.5898C37.4038 74.5946 37.9437 74.6021 38.4814 74.6143C39.3329 77.9446 40.393 81.2183 41.1709 84.566C42.0027 81.2137 43.0776 77.9226 44.0029 74.592C44.4717 74.5972 44.9427 74.5995 45.4141 74.6043C46.2705 77.9297 47.3086 81.2111 48.0719 84.5556C48.8869 81.2205 49.8241 77.9148 50.6954 74.5943C51.2182 74.5969 51.7406 74.5969 52.2637 74.5969C51.1567 78.5262 50.0452 82.4529 48.9237 86.3767C48.3593 86.3767 47.7971 86.3767 47.2349 86.3767C46.381 83.2062 45.375 80.0725 44.6165 76.8771C43.8823 80.077 42.8591 83.2114 41.9904 86.3793C41.4356 86.3767 40.8812 86.3767 40.3267 86.3819C39.1687 82.4532 38.0175 78.5213 36.8662 74.5898Z" fill="#E81123"/>
<path d="M106.128 74.5971C107.949 74.7122 109.88 74.2806 111.61 75.0067C113.924 76.0597 114.01 79.6818 112.01 81.0953C110.758 82.0771 109.097 81.9763 107.6 81.9591C107.6 83.4317 107.6 84.904 107.6 86.3766C107.107 86.3766 106.618 86.3766 106.127 86.3766C106.128 82.4505 106.128 78.5238 106.128 74.5971ZM107.6 75.888C107.603 77.4835 107.598 79.0786 107.603 80.676C108.84 80.6469 110.314 80.8331 111.287 79.8884C112.145 78.968 112.145 77.2675 111.164 76.435C110.135 75.694 108.788 75.9223 107.6 75.888Z" fill="#E81123"/>
<path d="M58.0728 79.2552C58.8286 78.0994 60.2547 77.4489 61.6167 77.8097C62.9173 78.0231 63.6709 79.3434 63.7149 80.5729C63.7637 82.5068 63.7123 84.4408 63.7346 86.3744C63.2636 86.3744 62.7922 86.377 62.3212 86.377C62.3063 84.6247 62.3457 82.8725 62.3089 81.1228C62.2869 80.2341 61.8621 79.184 60.8928 79.0023C59.5185 78.627 58.1785 79.8713 58.1196 81.2162C58.0388 82.9339 58.1148 84.6571 58.0854 86.377C57.6166 86.377 57.1481 86.377 56.6768 86.377C56.6745 83.5747 56.6768 80.774 56.6768 77.9717C57.1481 77.9717 57.6192 77.9717 58.0928 77.9717C58.0876 78.3984 58.0802 78.8278 58.0728 79.2552Z" fill="#E81123"/>
<path d="M77.4411 77.9641C78.8057 77.5567 80.4377 77.6159 81.596 78.5188C83.2797 79.8983 83.412 82.4873 82.6218 84.3772C81.3998 87.187 76.8498 87.4081 75.3355 84.7649C74.0371 82.4924 74.6902 78.7985 77.4411 77.9641ZM77.9024 79.1224C76.1256 79.8 75.8679 82.1362 76.4201 83.719C76.96 85.3461 79.1687 85.8812 80.5188 84.9414C81.542 84.1603 81.7431 82.7372 81.5986 81.5374C81.5152 80.6513 81.1124 79.7435 80.3252 79.2744C79.591 78.8774 78.6828 78.8502 77.9024 79.1224Z" fill="#E81123"/>
<path d="M96.6619 78.4993C97.7611 77.5029 99.4254 77.5912 100.731 78.0942C100.728 78.5753 100.731 79.0563 100.738 79.54C99.8815 79.0589 98.7723 78.6635 97.847 79.1915C97.1355 79.5765 97.1723 80.7669 97.9062 81.1083C98.7332 81.611 99.7176 81.8444 100.449 82.5043C101.494 83.4418 101.276 85.3709 100.064 86.0724C98.8095 86.8435 97.1969 86.7158 95.8889 86.1465C95.884 85.6263 95.8792 85.1058 95.8691 84.5856C96.7601 85.2215 97.9256 85.6535 99.0028 85.2455C99.6927 85.0276 99.8938 84.0383 99.393 83.5349C98.5638 82.8259 97.4226 82.6294 96.5956 81.9152C95.5918 81.0734 95.6555 79.3163 96.6619 78.4993Z" fill="#E81123"/>
<path d="M126.035 77.9936C127.4 77.5588 129.039 77.6131 130.219 78.4966C131.923 79.8613 132.067 82.4625 131.282 84.3592C130.072 87.2087 125.476 87.4079 123.969 84.7349C122.722 82.4796 123.338 78.8597 126.035 77.9936ZM126.305 79.2354C124.585 80.1949 124.44 82.7421 125.378 84.2955C126.394 85.8496 129.16 85.7782 129.93 84.0207C130.509 82.607 130.485 80.7248 129.371 79.5761C128.565 78.8157 127.272 78.7912 126.305 79.2354Z" fill="#E81123"/>
<path d="M134.888 79.2282C135.801 77.7045 138.039 77.2406 139.467 78.3032C140.341 79.02 140.518 80.2246 140.542 81.2872C140.559 82.9832 140.539 84.6792 140.549 86.3746C140.076 86.3746 139.604 86.3771 139.135 86.3771C139.111 84.642 139.183 82.905 139.101 81.1699C139.06 80.2889 138.687 79.2236 137.72 79.0148C136.309 78.6049 134.905 79.8984 134.91 81.2972C134.886 82.9881 134.913 84.6818 134.903 86.3746C134.432 86.3771 133.96 86.3771 133.492 86.3771C133.492 83.5748 133.492 80.7742 133.492 77.9719C133.963 77.9719 134.434 77.9719 134.905 77.9719C134.9 78.3915 134.897 78.8111 134.888 79.2282Z" fill="#E81123"/>
<path d="M143.05 79.2553C144.228 77.5571 146.962 77.1765 148.479 78.6223C149.512 79.6235 149.62 81.1569 149.571 82.5122C147.573 82.5148 145.578 82.5096 143.583 82.5122C143.676 83.4542 143.941 84.5195 144.837 85.0177C146.152 85.7787 147.807 85.3145 148.972 84.4804C148.955 84.9446 148.945 85.4105 148.931 85.8763C147.586 86.6125 145.932 86.8608 144.466 86.348C143.485 85.9995 142.766 85.1331 142.451 84.159C141.931 82.5487 142.061 80.6639 143.05 79.2553ZM144.577 79.5275C144.022 79.9788 143.821 80.6859 143.607 81.3334C145.117 81.358 146.623 81.3435 148.133 81.3435C148.067 80.7247 147.993 80.0522 147.541 79.5789C146.803 78.7277 145.364 78.7642 144.577 79.5275Z" fill="#E81123"/>
<path d="M53.3018 77.9718C53.7706 77.9718 54.239 77.9718 54.7104 77.9692C54.7156 80.7719 54.7104 83.5745 54.713 86.3768C54.2416 86.3768 53.7728 86.3768 53.3044 86.3768C53.2995 83.5745 53.3018 80.7741 53.3018 77.9718Z" fill="#E81123"/>
<path d="M83.5127 77.9787C84.006 77.9739 84.5039 77.9716 85.0002 77.969C85.6157 80.2612 86.3228 82.5313 86.8429 84.8455C87.5057 82.5459 88.2515 80.2709 88.9288 77.9761C89.3659 77.9713 89.8027 77.969 90.242 77.9664C90.8531 80.332 91.6632 82.6539 92.1171 85.0537C92.571 82.6587 93.3663 80.3371 93.9599 77.9713C94.4287 77.9713 94.9 77.9713 95.3737 77.9713C94.5195 80.7687 93.6925 83.5765 92.8384 86.374C92.3476 86.3766 91.8592 86.3766 91.371 86.3814C90.7596 84.1898 90.0629 82.0228 89.5107 79.8166C88.88 82.0131 88.1487 84.1827 87.4911 86.374C87.0127 86.374 86.5361 86.3766 86.0599 86.3792C85.211 83.5794 84.3639 80.7765 83.5127 77.9787Z" fill="#E81123"/>
<path d="M11.4194 73.4482L19.4349 72.3563L19.4384 80.088L11.4268 80.1339L11.4194 73.4482ZM19.4313 80.9792L19.4375 88.7174L11.4259 87.6162L11.4254 80.9272L19.4313 80.9792ZM20.4027 72.214L31.0308 70.663V79.9901L20.4027 80.0744V72.214ZM31.0332 81.052L31.0305 90.3371L20.4024 88.837L20.3876 81.0349L31.0332 81.052Z" fill="#E81123"/>
</svg>
