<svg width="472" height="350" viewBox="0 0 472 350" fill="none" xmlns="http://www.w3.org/2000/svg">
<g clip-path="url(#clip0_150_206)">
<path d="M339.656 207.491L343.369 205.199C343.722 204.976 344.07 204.737 344.428 204.513C336.464 203.144 329.207 199.096 323.858 193.039C318.508 186.983 315.387 179.282 315.011 171.21C314.739 165.658 315.788 160.122 318.073 155.055C320.201 150.315 323.343 146.099 327.278 142.705C331.212 139.311 335.843 136.821 340.844 135.411L340.66 150.025L348.688 134.119C348.721 134.113 348.754 134.113 348.787 134.119C353.439 133.901 358.088 134.603 362.469 136.182C366.85 137.762 370.877 140.189 374.32 143.325C377.763 146.461 380.554 150.244 382.535 154.459C384.515 158.674 385.646 163.237 385.863 167.889C385.893 168.565 385.863 169.232 385.863 169.878C388.657 166.691 391.192 163.277 392.872 159.534C396.272 151.953 396.351 143.369 396.068 132.936C395.531 112.258 394.642 91.4256 393.478 70.6532C385.097 69.7223 377.322 65.8331 371.55 59.6842C365.778 53.5354 362.388 45.5299 361.989 37.1061C361.94 36.0175 361.954 34.9488 361.989 33.8851C361.989 33.6217 361.989 33.3533 362.029 33.0898C362.099 32.0609 362.193 31.0419 362.352 30.0378C362.352 29.8688 362.412 29.7098 362.442 29.5407C362.587 28.6891 362.761 27.8474 362.963 27.0156C363.043 26.7075 363.118 26.3943 363.202 26.0861C363.451 25.1815 363.699 24.2917 364.042 23.4119C364.147 23.1186 364.271 22.8353 364.38 22.547C364.634 21.9008 364.907 21.2646 365.195 20.6333C365.349 20.3003 365.499 19.9722 365.663 19.6392C365.702 19.5547 365.737 19.4702 365.782 19.3857C369.524 11.9935 375.739 6.14644 383.345 2.8609C390.952 -0.424636 399.469 -0.940924 407.416 1.40178L407.178 20.4196L415.131 4.71225C421.654 8.44631 426.813 14.1683 429.853 21.0426C432.894 27.9168 433.657 35.5831 432.031 42.9218H432.071C432.016 43.1753 431.937 43.4189 431.877 43.6674C431.768 44.1346 431.648 44.5969 431.519 45.0592C431.35 45.6507 431.161 46.2323 430.967 46.8138C430.818 47.2463 430.674 47.6887 430.51 48.1161C430.271 48.7424 430.013 49.3538 429.725 49.9652C429.565 50.3231 429.421 50.686 429.227 51.0389C428.773 51.9535 428.276 52.8482 427.736 53.7231C427.552 54.0263 427.344 54.3146 427.15 54.6178C426.772 55.2043 426.389 55.7859 425.977 56.3525C425.723 56.7005 425.45 57.0335 425.181 57.3765C424.794 57.8736 424.396 58.3706 423.983 58.823C423.69 59.156 423.392 59.4841 423.084 59.8171C422.651 60.2744 422.204 60.7168 421.742 61.1542C421.438 61.4475 421.13 61.7407 420.812 62.0191C420.29 62.4814 419.743 62.9238 419.192 63.3562C418.913 63.5749 418.645 63.8036 418.357 64.0123C417.518 64.6353 416.652 65.2202 415.757 65.767C415.588 65.8664 415.409 65.9509 415.26 66.0503C414.514 66.4927 413.769 66.9053 412.968 67.293C412.635 67.457 412.287 67.6012 411.944 67.7553C411.303 68.0436 410.657 68.3219 409.996 68.5754C409.613 68.7196 409.221 68.8538 408.828 68.988C408.177 69.2117 407.516 69.4155 406.84 69.5994C406.442 69.7087 406.049 69.8181 405.647 69.9125C404.921 70.0865 404.18 70.2307 403.435 70.3549C403.385 70.3549 403.34 70.3549 403.291 70.3847C403.781 79.1464 404.217 87.913 404.598 96.6846C406.712 92.3443 409.691 88.4818 413.351 85.3339C417.012 82.1861 421.277 79.8193 425.885 78.3787C430.492 76.9382 435.346 76.4543 440.148 76.9566C444.949 77.4591 449.598 78.9372 453.807 81.3003L447.539 98.474L460.433 86.0921C467.336 92.4185 471.447 101.224 471.866 110.578C472.03 113.86 471.727 117.148 470.966 120.345C469.346 127.263 465.685 133.534 460.457 138.346C455.229 143.157 448.676 146.286 441.648 147.327C434.619 148.369 427.44 147.273 421.042 144.184C414.644 141.095 409.322 136.154 405.766 130.003C405.766 130.893 405.831 131.787 405.855 132.677C406.089 141.883 406.382 153.335 401.794 163.565C398.688 170.499 393.682 176.131 388.736 181.176C385.52 184.462 382.185 187.638 378.765 190.715C375.403 195.23 371.014 198.88 365.961 201.362C360.344 205.69 354.528 209.742 348.514 213.52L344.86 215.876C341.485 217.969 338.026 220.116 334.631 222.338C335.227 222.278 335.819 222.214 336.425 222.189C343.94 221.837 351.372 223.883 357.648 228.031C363.924 232.18 368.718 238.216 371.339 245.268L349.18 263.306L373.536 257.655C373.529 263.651 372.003 269.548 369.099 274.795C366.195 280.041 362.009 284.466 356.931 287.656C351.853 290.845 346.05 292.696 340.063 293.035C334.076 293.373 328.101 292.188 322.696 289.591C323.243 290.277 323.795 290.958 324.341 291.639C325.43 292.996 326.514 294.343 327.572 295.68C341.987 313.938 346.004 331.275 338.861 344.492L330.182 339.8C337.141 326.936 326.702 310.473 319.828 301.794C318.789 300.482 317.725 299.16 316.652 297.818C307.441 286.385 297.003 273.402 297.266 257.491C297.639 233.532 320.946 219.082 339.656 207.491Z" fill="#F2F2F2"/>
<path d="M226.414 349.761C351.459 349.761 452.828 345.088 452.828 339.323C452.828 333.558 351.459 328.884 226.414 328.884C101.369 328.884 0 333.558 0 339.323C0 345.088 101.369 349.761 226.414 349.761Z" fill="#3F3D56"/>
<path d="M409.33 335.431C410.821 332.692 409.131 329.337 407.203 326.891C405.274 324.446 402.923 321.921 402.972 318.794C403.042 314.32 407.789 311.681 411.587 309.31C414.399 307.549 416.993 305.461 419.316 303.092C420.291 302.18 421.097 301.103 421.697 299.91C422.477 298.161 422.458 296.172 422.408 294.254C422.242 287.871 421.927 281.496 421.463 275.127" stroke="#3F3D56" stroke-width="4" stroke-miterlimit="10"/>
<path d="M428.676 274.789C428.62 273.621 428.273 272.486 427.665 271.487C427.057 270.488 426.208 269.658 425.196 269.072L423.636 272.164L423.68 268.426C422.613 268.106 421.484 268.048 420.389 268.255C419.294 268.462 418.265 268.929 417.388 269.617C416.511 270.305 415.812 271.193 415.35 272.207C414.888 273.221 414.677 274.332 414.733 275.445C414.82 277.29 415.637 279.026 417.003 280.269C417.68 280.885 418.471 281.361 419.332 281.671C420.193 281.981 421.106 282.119 422.02 282.076C422.934 282.032 423.83 281.81 424.658 281.42C425.486 281.031 426.229 280.482 426.845 279.805C427.46 279.129 427.937 278.337 428.247 277.477C428.557 276.616 428.694 275.702 428.651 274.789H428.676Z" fill="#57B793"/>
<path d="M416.234 322.01C415.503 323.429 414.307 324.554 412.846 325.196C411.385 325.838 409.748 325.958 408.209 325.537C406.669 325.115 405.322 324.177 404.392 322.88C403.462 321.583 403.006 320.006 403.1 318.413C403.195 316.82 403.834 315.308 404.911 314.13C405.987 312.952 407.436 312.18 409.015 311.943C410.593 311.706 412.205 312.019 413.58 312.829C414.955 313.64 416.009 314.898 416.567 316.393L412.213 319.937L417.004 318.824C417.005 319.932 416.741 321.024 416.234 322.01Z" fill="#57B793"/>
<path d="M412.789 308.445C411.874 308.489 410.959 308.352 410.097 308.041C409.235 307.731 408.442 307.253 407.765 306.636C407.088 306.018 406.54 305.273 406.152 304.443C405.763 303.613 405.543 302.715 405.502 301.799C405.447 300.708 405.653 299.619 406.104 298.623C406.522 297.691 407.139 296.861 407.912 296.193C408.684 295.525 409.595 295.034 410.578 294.756L410.543 297.634L412.123 294.502C413.972 294.416 415.78 295.068 417.148 296.314C418.517 297.56 419.334 299.299 419.42 301.148C419.507 302.997 418.855 304.804 417.609 306.173C416.362 307.541 414.623 308.359 412.775 308.445H412.789Z" fill="#57B793"/>
<path d="M429.724 297.157C427.879 297.244 426.074 296.594 424.708 295.35C423.341 294.107 422.524 292.371 422.437 290.526C422.35 288.68 423 286.876 424.244 285.509C425.487 284.142 427.223 283.326 429.068 283.239C430.373 283.174 431.669 283.481 432.806 284.124L431.573 287.504L434.109 285.068C435.469 286.311 436.28 288.044 436.365 289.885C436.397 290.529 436.337 291.175 436.186 291.803C435.838 293.277 435.019 294.597 433.853 295.563C432.687 296.53 431.237 297.089 429.724 297.157Z" fill="#57B793"/>
<path opacity="0.1" d="M427.736 276.628C426.126 276.807 424.56 277.309 422.945 277.408C421.329 277.508 419.555 277.12 418.531 275.862C417.979 275.186 417.706 274.331 417.238 273.596C416.798 272.908 416.196 272.34 415.484 271.94C415.063 272.82 414.831 273.779 414.805 274.754C414.778 275.729 414.957 276.698 415.329 277.6C415.701 278.501 416.259 279.315 416.966 279.987C417.673 280.659 418.513 281.175 419.432 281.501C420.351 281.828 421.329 281.957 422.301 281.882C423.273 281.806 424.219 281.527 425.077 281.062C425.934 280.597 426.684 279.958 427.279 279.184C427.873 278.411 428.298 277.521 428.527 276.573C428.258 276.583 427.995 276.603 427.736 276.628Z" fill="black"/>
<path opacity="0.1" d="M429.725 297.157C428.521 297.218 427.323 296.965 426.247 296.424C425.17 295.883 424.253 295.072 423.584 294.07C422.915 293.068 422.518 291.91 422.431 290.708C422.344 289.507 422.571 288.303 423.089 287.215C423.643 287.589 424.119 288.067 424.491 288.622C424.988 289.373 425.286 290.237 425.872 290.928C426.956 292.206 428.815 292.623 430.5 292.544C432.185 292.464 433.806 291.992 435.471 291.838C435.699 291.838 435.938 291.798 436.172 291.793C435.826 293.267 435.01 294.587 433.847 295.555C432.683 296.523 431.236 297.085 429.725 297.157Z" fill="black"/>
<path opacity="0.1" d="M412.79 308.445C411.874 308.489 410.959 308.352 410.097 308.042C409.235 307.731 408.443 307.253 407.765 306.636C407.088 306.018 406.54 305.273 406.152 304.443C405.763 303.613 405.543 302.715 405.502 301.799C405.447 300.708 405.653 299.619 406.104 298.623C406.682 299.001 407.188 299.481 407.595 300.04C408.137 300.805 408.475 301.685 409.086 302.391C410.264 303.703 412.243 304.165 414.027 304.121C415.812 304.076 417.417 303.658 419.137 303.529C418.713 304.902 417.875 306.11 416.74 306.989C415.604 307.869 414.225 308.377 412.79 308.445Z" fill="black"/>
<path opacity="0.1" d="M416.234 322.01C415.859 322.845 415.322 323.598 414.656 324.226C413.99 324.854 413.206 325.345 412.35 325.67C411.494 325.995 410.583 326.149 409.667 326.121C408.752 326.094 407.851 325.887 407.016 325.512C406.181 325.136 405.428 324.6 404.8 323.934C404.172 323.268 403.681 322.484 403.356 321.628C403.031 320.772 402.877 319.86 402.904 318.945C402.932 318.03 403.139 317.129 403.514 316.294C404.087 316.674 404.602 317.135 405.045 317.661C405.706 318.471 406.144 319.385 406.914 320.146C408.341 321.543 410.642 322.134 412.69 322.174C413.873 322.19 415.057 322.135 416.234 322.01Z" fill="black"/>
<path d="M398.812 332.274C398.812 332.274 404.315 332.105 405.975 330.922C407.635 329.739 414.425 328.328 414.857 330.227C415.29 332.125 423.133 339.671 416.915 339.701C410.697 339.73 402.47 338.706 400.815 337.712C399.16 336.718 398.812 332.274 398.812 332.274Z" fill="#656380"/>
<path opacity="0.2" d="M417.025 339.039C410.811 339.089 402.58 338.045 400.925 337.051C399.667 336.286 399.16 333.527 398.996 332.255H398.812C398.812 332.255 399.16 336.693 400.8 337.722C402.441 338.751 410.682 339.75 416.9 339.711C418.695 339.711 419.316 339.054 419.281 338.11C419.048 338.672 418.362 339.03 417.025 339.039Z" fill="black"/>
<path d="M96.6346 320.096C93.0259 313.416 97.1316 305.234 101.824 299.279C106.516 293.324 112.262 287.131 112.138 279.541C111.959 268.635 100.387 262.198 91.142 256.417C84.2814 252.127 77.9528 247.039 72.2882 241.261C70.0166 238.94 67.8146 236.465 66.4924 233.502C64.5837 229.237 64.6334 224.391 64.7577 219.719C65.1553 204.144 65.9241 188.599 67.0641 173.084" stroke="#3F3D56" stroke-width="4" stroke-miterlimit="10"/>
<path d="M49.4831 172.234C49.6192 169.388 50.4679 166.623 51.9514 164.191C53.4348 161.759 55.5054 159.739 57.973 158.316L61.7805 165.846L61.6662 156.73C65.1252 155.711 68.8187 155.817 72.2134 157.034C75.608 158.251 78.5281 160.515 80.552 163.5C82.5759 166.484 83.5989 170.035 83.4733 173.639C83.3477 177.243 82.08 180.713 79.8531 183.55C77.6263 186.386 74.5557 188.442 71.0846 189.419C67.6135 190.397 63.9215 190.246 60.5418 188.988C57.1621 187.73 54.2696 185.431 52.2818 182.422C50.2941 179.413 49.314 175.851 49.4831 172.249V172.234Z" fill="#57B793"/>
<path d="M79.814 287.335C81.524 290.667 84.2867 293.342 87.6729 294.943C91.0591 296.543 94.8793 296.981 98.5399 296.188C102.2 295.394 105.497 293.414 107.916 290.555C110.335 287.695 111.743 284.117 111.92 280.376C112.038 278.024 111.661 275.673 110.811 273.476C109.569 270.255 107.376 267.487 104.524 265.542C101.671 263.596 98.2942 262.565 94.8415 262.585C91.3887 262.605 88.0238 263.675 85.194 265.654C82.3641 267.632 80.2034 270.424 78.9988 273.66L89.6211 282.299L77.9351 279.58C77.9302 282.278 78.5747 284.938 79.814 287.335Z" fill="#57B793"/>
<path d="M88.2097 254.319C92.3798 254.51 96.4745 253.161 99.7141 250.528C102.954 247.895 105.112 244.163 105.778 240.042C106.444 235.921 105.572 231.699 103.327 228.179C101.082 224.66 97.6207 222.089 93.6028 220.956L93.6923 227.96L89.8649 220.34H89.8202C85.3135 220.13 80.908 221.718 77.5726 224.756C74.2373 227.794 72.2454 232.033 72.0351 236.539C71.8248 241.046 73.4134 245.451 76.4514 248.787C79.4894 252.122 83.7279 254.114 88.2345 254.324L88.2097 254.319Z" fill="#57B793"/>
<path d="M46.9231 226.846C49.5561 226.975 52.183 226.489 54.5963 225.428C57.0095 224.367 59.1432 222.76 60.8288 220.733C62.5145 218.706 63.7059 216.316 64.3091 213.749C64.9124 211.183 64.9109 208.512 64.3047 205.946C63.6986 203.381 62.5045 200.991 60.8166 198.966C59.1287 196.941 56.9932 195.336 54.5788 194.278C52.1643 193.22 49.5369 192.737 46.904 192.869C44.2711 193 41.7047 193.741 39.4074 195.034L42.3898 203.271L36.2312 197.321C34.5848 198.819 33.25 200.627 32.3033 202.642C31.3565 204.656 30.8164 206.838 30.7137 209.061C30.6348 210.635 30.7804 212.211 31.1462 213.744C31.9916 217.347 33.9897 220.576 36.8371 222.941C39.6845 225.306 43.2256 226.677 46.9231 226.846Z" fill="#57B793"/>
<path opacity="0.1" d="M51.7697 176.767C55.6965 177.199 59.514 178.417 63.4508 178.661C67.3876 178.904 71.717 177.965 74.2073 174.903C75.5494 173.253 76.2204 171.165 77.3538 169.366C78.4276 167.689 79.8996 166.304 81.6385 165.334C82.7213 167.49 83.3333 169.851 83.4338 172.261C83.5344 174.671 83.1212 177.075 82.2217 179.313C81.3222 181.551 79.957 183.572 78.2166 185.243C76.4762 186.913 74.4005 188.194 72.1272 189C69.854 189.807 67.4351 190.121 65.0313 189.921C62.6274 189.722 60.2935 189.013 58.1844 187.842C56.0754 186.672 54.2394 185.066 52.7983 183.132C51.3573 181.197 50.3442 178.979 49.8262 176.623C50.4873 176.653 51.1335 176.697 51.7697 176.767Z" fill="black"/>
<path opacity="0.1" d="M46.923 226.846C49.8539 226.982 52.77 226.357 55.3882 225.033C58.0064 223.708 60.2378 221.73 61.8658 219.289C63.4939 216.848 64.4633 214.028 64.68 211.102C64.8967 208.176 64.3533 205.244 63.1026 202.59C61.7522 203.498 60.5908 204.659 59.6827 206.009C58.4699 207.839 57.7392 209.951 56.3126 211.631C53.6633 214.743 49.14 215.762 45.0342 215.578C40.9284 215.394 36.9668 214.221 32.8809 213.848C32.3142 213.798 31.7376 213.759 31.166 213.744C32.0105 217.344 34.0056 220.571 36.849 222.935C39.6924 225.3 43.2291 226.673 46.923 226.846Z" fill="black"/>
<path opacity="0.1" d="M88.2094 254.319C91.1117 254.456 94.0005 253.846 96.6002 252.549C99.2 251.251 101.424 249.309 103.06 246.908C104.696 244.507 105.689 241.727 105.946 238.833C106.202 235.938 105.712 233.027 104.523 230.376C103.123 231.306 101.904 232.485 100.929 233.855C99.6071 235.719 98.782 237.867 97.2361 239.586C94.368 242.783 89.5465 243.911 85.1971 243.806C80.987 243.717 76.9309 242.683 72.7456 242.36C73.7818 245.701 75.8222 248.641 78.5892 250.781C81.3561 252.921 84.7153 254.157 88.2094 254.319Z" fill="black"/>
<path opacity="0.1" d="M79.814 287.335C81.5239 290.667 84.2866 293.341 87.6729 294.942C91.0591 296.543 94.8793 296.981 98.5399 296.188C102.2 295.394 105.497 293.414 107.916 290.555C110.335 287.695 111.743 284.117 111.92 280.376C112.038 278.024 111.661 275.673 110.811 273.476C109.412 274.395 108.156 275.516 107.083 276.802C105.468 278.79 104.399 281.007 102.53 282.846C99.0505 286.256 93.4386 287.668 88.4431 287.817C85.5597 287.827 82.6783 287.666 79.814 287.335Z" fill="black"/>
<path d="M214.345 330.028L148.733 343.449L147.241 343.299L89.5815 337.484V264.415L160.165 252.485L211.363 258.45L211.378 258.773L211.383 258.932L214.345 330.028Z" fill="#ED7971"/>
<path opacity="0.1" d="M214.345 330.028L148.732 343.449L147.241 343.299V268.391L211.378 258.773L214.345 330.028Z" fill="#A83B34"/>
<path opacity="0.05" d="M211.383 258.932L211.363 258.947L147.241 268.391L89.5815 264.415L160.165 252.485L211.363 258.45L211.378 258.773L211.383 258.932Z" fill="#A83B34"/>
<path d="M286.42 333.01L220.807 346.431L219.316 346.282L161.656 340.466V267.397L232.24 255.468L283.438 261.432L283.453 261.756L283.458 261.915L286.42 333.01Z" fill="#3F3D56"/>
<path opacity="0.1" d="M286.42 333.01L220.807 346.431L219.316 346.282V271.374L283.453 261.755L286.42 333.01Z" fill="black"/>
<path opacity="0.05" d="M283.458 261.915L283.438 261.93L219.316 271.374L161.656 267.397L232.24 255.468L283.438 261.432L283.453 261.756L283.458 261.915Z" fill="black"/>
<path d="M241.187 261.433L175.574 274.853L174.083 274.704L116.423 268.889V195.82L187.006 183.89L238.204 189.855L238.219 190.178L238.224 190.337L241.187 261.433Z" fill="#3F3D56"/>
<path opacity="0.1" d="M241.187 261.432L175.574 274.853L174.083 274.704V199.796L238.22 190.178L241.187 261.432Z" fill="black"/>
<path opacity="0.05" d="M238.224 190.337L238.204 190.352L174.083 199.796L116.423 195.82L187.006 183.89L238.204 189.855L238.219 190.178L238.224 190.337Z" fill="black"/>
<path d="M278.467 264.494L244.224 271.503L243.444 271.424L213.351 268.386V230.251L250.189 224.023L276.911 227.14L276.921 227.309V227.388L278.467 264.494Z" fill="#3F3D56"/>
<path opacity="0.1" d="M278.467 264.494L244.224 271.503L243.444 271.423V232.329L276.921 227.309L278.467 264.494Z" fill="black"/>
<path opacity="0.05" d="M276.921 227.388L276.911 227.398L243.444 232.329L213.351 230.251L250.189 224.023L276.911 227.14L276.921 227.309V227.388Z" fill="black"/>
<path d="M186.509 190.431L152.266 197.435L151.486 197.361L121.394 194.323V156.188L158.231 149.96L184.954 153.077L184.963 153.246V153.325L186.509 190.431Z" fill="#3F3D56"/>
<path opacity="0.1" d="M186.51 190.431L152.267 197.435L151.486 197.36V158.266L184.964 153.246L186.51 190.431Z" fill="black"/>
<path opacity="0.05" d="M184.963 153.325L184.954 153.335L151.486 158.266L121.394 156.188L158.231 149.96L184.954 153.077L184.963 153.246V153.325Z" fill="black"/>
<path d="M246.655 188.94L212.412 195.944L211.632 195.869L181.539 192.832V154.697L218.377 148.469L245.099 151.586L245.109 151.755V151.834L246.655 188.94Z" fill="#ED7971"/>
<path opacity="0.1" d="M246.655 188.94L212.412 195.944L211.631 195.869V156.775L245.109 151.755L246.655 188.94Z" fill="#A83B34"/>
<path opacity="0.05" d="M245.109 151.834L245.099 151.844L211.632 156.775L181.539 154.697L218.377 148.469L245.099 151.586L245.109 151.755V151.834Z" fill="black"/>
<path d="M264.549 150.666L230.306 157.67L229.526 157.595L199.433 154.558V116.423L236.271 110.195L262.993 113.311L263.003 113.48V113.56L264.549 150.666Z" fill="#3F3D56"/>
<path opacity="0.1" d="M264.549 150.666L230.306 157.67L229.526 157.595V118.501L263.003 113.48L264.549 150.666Z" fill="black"/>
<path opacity="0.05" d="M263.003 113.56L262.993 113.57L229.526 118.501L199.433 116.423L236.271 110.195L262.993 113.311L263.003 113.48V113.56Z" fill="black"/>
<path d="M287.871 72.706C287.508 75.9369 285.043 78.5416 284.128 81.6532C282.756 86.3505 285.122 91.3957 288.383 95.074C291.011 97.9966 294.193 100.369 297.744 102.053C301.295 103.737 305.145 104.7 309.071 104.886C310.224 104.985 311.386 104.859 312.491 104.513C313.475 104.113 314.361 103.506 315.091 102.734C317.536 100.273 318.853 96.8684 319.375 93.4337C319.897 89.999 319.698 86.5046 319.495 83.04C319.494 82.323 319.363 81.6121 319.107 80.9424C318.774 80.3055 318.316 79.7424 317.76 79.2872C315.997 77.667 314.054 76.2544 311.969 75.077C311.074 74.5799 310.115 74.0829 309.543 73.2229C309.151 72.5382 308.896 71.7834 308.793 71.0011L308.152 67.7403C308.038 66.8001 307.717 65.8969 307.212 65.0959C306.084 63.5749 303.922 63.3661 302.028 63.2915L295.069 63.0182C292.907 62.9337 290.063 62.3123 287.951 62.7398C285.962 63.1325 286.634 64.9518 286.991 66.602C287.509 68.598 287.804 70.6451 287.871 72.706Z" fill="#FFC0C6"/>
<path opacity="0.1" d="M287.871 72.706C287.508 75.9369 285.043 78.5416 284.128 81.6532C282.756 86.3505 285.122 91.3957 288.383 95.074C291.011 97.9966 294.193 100.369 297.744 102.053C301.295 103.737 305.145 104.7 309.071 104.886C310.224 104.985 311.386 104.859 312.491 104.513C313.475 104.113 314.361 103.506 315.091 102.734C317.536 100.273 318.853 96.8684 319.375 93.4337C319.897 89.999 319.698 86.5046 319.495 83.04C319.494 82.323 319.363 81.6121 319.107 80.9424C318.774 80.3055 318.316 79.7424 317.76 79.2872C315.997 77.667 314.054 76.2544 311.969 75.077C311.074 74.5799 310.115 74.0829 309.543 73.2229C309.151 72.5382 308.896 71.7834 308.793 71.0011L308.152 67.7403C308.038 66.8001 307.717 65.8969 307.212 65.0959C306.084 63.5749 303.922 63.3661 302.028 63.2915L295.069 63.0182C292.907 62.9337 290.063 62.3123 287.951 62.7398C285.962 63.1325 286.634 64.9518 286.991 66.602C287.509 68.598 287.804 70.6451 287.871 72.706Z" fill="black"/>
<path d="M332.066 218.227L329.113 250.596C328.343 259.086 327.557 267.611 326.046 275.992C325.549 278.88 324.913 281.753 324.187 284.601C322.169 292.509 319.241 300.239 318.297 308.346C318.267 308.579 318.242 308.843 318.218 309.057C318.024 310.846 317.855 312.655 317.223 314.325C316.726 315.563 316.025 316.691 315.513 317.914C314.519 320.36 314.36 323.064 314.236 325.713C310.653 323.691 306.729 322.343 302.659 321.737C300.671 321.443 298.509 321.24 297.192 319.748C295.7 318.128 295.874 315.648 296.123 313.47C296.905 306.71 297.684 299.954 298.459 293.2C298.718 290.294 299.216 287.414 299.95 284.591C300.219 283.651 300.542 282.727 300.87 281.802C301.322 280.53 301.78 279.257 302.122 277.95C302.598 275.85 302.927 273.719 303.107 271.573C303.907 264.773 304.871 257.988 305.716 251.193L305.761 250.835C307.029 240.536 307.993 230.187 307.714 219.813C307.675 218.277 307.61 216.741 307.511 215.2C307.372 212.968 307.168 211.785 309.002 210.389C311.045 208.848 313.734 207.769 316.07 206.76C317.328 206.213 331.176 201.292 331.479 202.376C332.122 204.678 332.456 207.054 332.473 209.444C332.501 212.377 332.365 215.31 332.066 218.227Z" fill="#605D82"/>
<path opacity="0.1" d="M326.046 275.992C325.549 278.879 324.913 281.753 324.187 284.601C322.169 292.509 319.241 300.238 318.297 308.346C318.267 308.579 318.242 308.843 318.217 309.056C312.044 300.238 306.844 290.754 300.82 281.842C301.272 280.57 301.729 279.297 302.072 277.99C302.567 275.877 302.912 273.733 303.106 271.573C303.907 264.773 304.871 257.988 305.716 251.193L305.761 250.835C306.109 252.277 306.609 253.678 307.252 255.015C311.298 263.237 320.911 267.392 325.614 275.261C325.769 275.506 325.913 275.75 326.046 275.992Z" fill="black"/>
<path d="M275.952 203.708C276.156 210.299 277.209 216.836 278.263 223.347L280.435 236.768C281.623 244.125 282.866 251.625 286.346 258.211C288.95 263.142 292.698 267.347 296.093 271.766C304.434 282.632 310.702 294.945 318.61 306.129C320.912 309.379 324.197 312.899 328.119 312.218C330.694 311.775 332.563 309.628 334.581 307.978C336.967 306.029 339.84 304.603 341.719 302.157C343.598 299.712 343.966 295.655 341.421 293.916C340.551 293.324 339.492 293.101 338.508 292.723C334.566 291.232 332.011 287.374 330.391 283.477C328.77 279.58 327.781 275.4 325.619 271.776C320.917 263.908 311.298 259.752 307.252 251.526C304.986 246.923 304.767 241.584 304.598 236.48L304.155 223.402C304.106 221.97 304.071 220.484 304.653 219.177C306.198 215.697 310.871 215.369 314.659 214.927C318.954 214.425 323.115 213.113 326.921 211.06C329.103 209.882 331.231 208.38 332.389 206.193C333.453 204.205 333.597 201.864 333.721 199.607L335.033 175.902C335.148 173.864 335.247 171.752 334.536 169.843C332.732 165.041 326.668 163.47 321.543 163.699C312.009 164.127 303.211 168.227 294.204 171.001C291.972 171.687 289.731 172.303 287.429 172.766C285.441 173.168 282.956 173.004 281.047 173.65C277.627 174.804 277.712 182.289 277.229 185.391C276.235 191.444 275.807 197.576 275.952 203.708Z" fill="#605D82"/>
<path d="M326.827 313.222C327.667 314.072 327.94 315.314 328.159 316.488C329.374 322.998 330.006 329.603 330.048 336.226C329.993 336.844 330.116 337.465 330.4 338.016C330.639 338.342 330.96 338.599 331.33 338.761C333.761 339.919 336.579 338.304 338.607 336.529C342.36 333.244 345.536 328.83 345.75 323.844C345.805 322.562 345.66 321.264 345.884 319.997C346.212 318.118 347.311 316.483 348.275 314.842C349.925 312.046 351.259 309.075 352.252 305.984C352.619 304.821 352.868 303.36 351.953 302.55C351.633 302.295 351.267 302.105 350.875 301.988L339.889 297.912C338.935 297.559 336.569 303.638 336.196 304.304C335.277 305.93 334.362 306.849 332.518 307.227C330.674 307.605 328.397 307.058 326.638 307.998C323.655 309.583 325.141 311.527 326.827 313.222Z" fill="#535070"/>
<path d="M309.887 316.975C309.683 316.569 309.399 316.209 309.052 315.916C308.544 315.593 307.966 315.397 307.367 315.344C305.279 314.986 302.803 314.753 301.357 316.309C300.005 317.765 300.239 320.136 299.11 321.776C298.752 322.273 298.265 322.721 297.957 323.268C297.574 324.105 297.403 325.023 297.46 325.942C297.4 328.472 297.341 331.012 297.52 333.537C297.664 335.654 298.017 337.876 299.344 339.537C301.471 342.201 305.309 342.584 308.709 342.753L311.467 342.897C312.226 342.986 312.995 342.914 313.724 342.688C314.176 342.48 314.582 342.183 314.916 341.815C315.251 341.447 315.508 341.015 315.673 340.546C317.109 336.977 314.837 333.134 313.436 329.555C311.82 325.435 312.109 320.867 309.887 316.975Z" fill="#535070"/>
<path d="M287.076 54.4885C287.041 54.1267 287.094 53.7617 287.23 53.4248C287.633 52.7139 288.687 52.9277 289.482 53.1066C292.678 53.9119 296.048 53.1812 299.344 53.3701C302.639 53.559 306.347 55.2043 307.008 58.4352C309.399 56.7431 311.46 54.6271 313.088 52.192C314.002 50.8251 314.797 49.2593 314.673 47.619C314.494 45.253 312.511 43.4834 310.697 41.9823L305.229 37.5087C304.509 36.848 303.677 36.3196 302.773 35.9479C301.511 35.5154 300.129 35.7242 298.797 35.7242C294.82 35.7242 290.555 33.9099 287.011 35.7242C285.52 36.4847 284.412 37.792 283.338 39.0645L278.452 44.8503C278.082 45.2192 277.812 45.6758 277.667 46.1775C277.527 46.8834 277.89 47.5792 278.019 48.2901C278.248 49.5824 277.691 50.9643 278.119 52.2069C278.83 54.2648 281.335 54.5581 282.866 55.7411C283.433 56.1785 284.327 57.6747 285.008 57.6548C286.206 57.6299 287.041 55.4428 287.076 54.4885Z" fill="#3F3D56"/>
<path d="M295.367 71.5529C304.015 71.5529 311.025 64.5427 311.025 55.8953C311.025 47.2478 304.015 40.2377 295.367 40.2377C286.72 40.2377 279.709 47.2478 279.709 55.8953C279.709 64.5427 286.72 71.5529 295.367 71.5529Z" fill="#FFC0C6"/>
<path d="M299.036 90.158C298.505 88.6404 297.506 87.3306 296.183 86.4175C294.86 85.5045 293.281 85.0354 291.674 85.078C291.213 85.1659 290.736 85.105 290.312 84.904C290.072 84.7205 289.879 84.4818 289.75 84.2081C288.801 82.4945 288.036 80.685 287.469 78.81C287.22 77.9799 286.877 77.0007 286.037 76.7869C285.361 76.6129 284.67 77.0504 284.218 77.5822C283.817 78.1529 283.382 78.699 282.916 79.2176C280.928 80.9772 277.448 79.3717 275.365 80.9871C275.022 81.2506 274.739 81.5886 274.371 81.8321C274.013 82.0502 273.627 82.2175 273.223 82.3292C269.18 83.6445 265.217 85.193 261.353 86.9669C262.745 95.3375 264.166 103.867 267.427 111.696C268.978 115.424 270.733 119.077 271.975 122.92C274.729 131.434 274.848 140.546 274.883 149.498C274.883 155.622 274.883 161.875 272.895 167.671C272.448 168.983 271.901 170.285 271.777 171.647C271.652 173.009 272.06 174.55 273.178 175.365C273.826 175.792 274.568 176.054 275.341 176.126C278.775 176.623 282.235 175.718 285.615 174.933C294.676 172.835 303.922 171.632 313.142 170.459L328.601 168.471C329.71 168.393 330.795 168.112 331.802 167.641C334.631 166.095 334.899 161.84 333.139 159.136C332.299 157.839 331.111 156.775 330.401 155.403C329.69 154.031 329.635 152.103 330.853 151.153C333.338 149.215 332.593 145.621 332.712 142.479C333.043 133.691 332.999 124.91 332.578 116.135C332.451 114.315 332.421 112.49 332.488 110.667C332.662 107.575 333.428 104.548 334.193 101.541L338.891 83.05C337.663 81.1114 335.312 79.8787 333.09 79.322C330.868 78.7652 328.547 78.6012 326.355 77.9202C321.881 76.5284 317.865 72.9993 313.177 73.3273C312.822 73.3336 312.472 73.4185 312.153 73.5759C311.1 74.1773 311.264 75.6983 311.199 76.9112C311.05 79.6003 309.071 81.8421 306.894 83.4178C304.717 84.9935 302.222 86.1367 300.219 87.9311C299.871 88.1934 299.585 88.5287 299.38 88.9134C299.176 89.2981 299.058 89.723 299.036 90.158Z" fill="#3F3D56"/>
<path d="M236.997 107.699C235.959 108.374 234.857 108.942 233.706 109.394C232.612 109.827 231.444 110.17 230.55 110.925C230.107 111.31 229.735 111.769 229.451 112.282C228.921 113.222 228.654 114.287 228.676 115.366C228.698 116.445 229.009 117.498 229.576 118.415C230.144 119.333 230.947 120.081 231.903 120.582C232.858 121.083 233.931 121.319 235.008 121.264C236.445 121.19 237.802 120.608 239.119 120.037L250.164 115.23C252.033 114.42 254.051 113.475 254.936 111.636C255.037 111.464 255.076 111.262 255.045 111.065C254.96 110.848 254.797 110.671 254.588 110.568C252.099 108.948 249.922 106.894 248.161 104.503C247.708 103.887 247.167 102.436 246.51 102.063C244.174 100.765 238.87 106.487 236.997 107.699Z" fill="#FFC0C6"/>
<path d="M355.06 103.797L359.131 108.45C360.006 109.444 360.881 110.438 361.676 111.512C363.633 114.207 365.202 117.164 366.338 120.295C367.223 122.616 367.959 125.092 367.651 127.557C367.444 128.821 367.102 130.059 366.632 131.25C365.886 133.54 364.96 135.767 363.863 137.911C362.947 139.538 361.912 141.095 360.766 142.569C357.613 146.747 354.163 150.692 350.442 154.374C349.05 155.751 348.454 157.983 347.862 159.842C346.744 163.277 344.085 165.956 341.515 168.491C340.688 169.365 339.774 170.151 338.786 170.837C337.306 171.792 335.576 172.283 333.815 172.249C333.047 172.253 332.287 172.095 331.583 171.786C329.824 170.951 328.929 168.918 328.745 166.98C328.583 165.218 328.877 163.445 329.6 161.83C331.936 156.656 337.936 154.414 342.176 150.636C344.661 148.424 346.565 145.641 348.444 142.892C349.717 141.174 350.779 139.31 351.61 137.34C352.555 134.809 352.187 131.817 353.017 129.252C353.365 128.164 354.011 127.184 354.364 126.106C354.717 125.027 354.836 123.75 354.175 122.82C353.68 122.226 353.047 121.762 352.331 121.468C349.622 120.096 346.59 118.327 346.073 115.329C345.866 113.67 346.3 111.993 347.286 110.642C348.267 109.308 349.414 108.105 350.701 107.063C351.879 105.999 353.872 104.821 355.06 103.797Z" fill="#FFC0C6"/>
<path d="M234.382 114.191C233.666 112.74 232.766 111.259 231.315 110.538C230.609 110.233 229.847 110.076 229.078 110.076C228.309 110.076 227.548 110.233 226.841 110.538C225.435 111.146 224.117 111.942 222.924 112.904L219.415 115.494C218.62 116.016 217.916 116.666 217.332 117.417C216.776 118.329 216.408 119.343 216.249 120.4C215.752 122.82 215.349 125.311 215.697 127.761C216.254 131.738 218.64 135.177 221.264 138.2C222.905 140.079 224.933 141.977 227.428 142.062C228.507 142.097 229.704 141.669 230.152 140.69C230.308 140.301 230.39 139.886 230.395 139.467C230.664 135.053 229.083 130.744 227.244 126.722C226.747 125.629 226.21 124.495 226.25 123.298C226.235 123.094 226.287 122.891 226.399 122.721C226.557 122.556 226.768 122.452 226.995 122.428C229.516 121.931 233.86 123.889 235.625 121.091C236.768 119.241 235.197 115.837 234.382 114.191Z" fill="#FFC0C6"/>
<path d="M286.251 49.5626C286.22 49.2004 286.274 48.836 286.41 48.4989C286.813 47.7831 287.867 48.0018 288.662 48.1807C291.858 48.986 295.228 48.2553 298.524 48.4442C301.819 48.6331 305.522 50.2784 306.188 53.5093C308.577 51.8145 310.637 49.699 312.268 47.2661C313.182 45.8942 313.978 44.3285 313.853 42.6881C313.674 40.3221 311.686 38.5525 309.877 37.0564L304.409 32.5828C303.69 31.9222 302.861 31.3938 301.958 31.022C300.691 30.5895 299.314 30.7983 297.982 30.7983C294.005 30.7983 289.741 28.984 286.196 30.7983C284.705 31.5588 283.597 32.8661 282.523 34.1386L277.632 39.9244C277.264 40.2941 276.996 40.7506 276.852 41.2516C276.712 41.9575 277.075 42.6533 277.205 43.3642C277.433 44.6565 276.876 46.0384 277.304 47.2761C278.015 49.3389 280.52 49.6322 282.051 50.8152C282.618 51.2526 283.512 52.7488 284.193 52.7289C285.371 52.704 286.206 50.517 286.251 49.5626Z" fill="#3F3D56"/>
<path d="M252.997 92.4695C252.366 92.8792 251.811 93.3956 251.357 93.9955C250.785 94.8653 250.666 95.9837 250.174 96.8784C249.12 98.8369 246.65 99.5378 245.114 101.143C244.865 101.363 244.691 101.655 244.617 101.978C244.607 102.416 244.753 102.842 245.029 103.181L252.455 114.852C254.941 115.071 257.297 113.52 259.772 113.729C260.692 113.804 261.641 114.122 262.526 113.848C263.158 113.567 263.751 113.204 264.291 112.77C265.782 111.835 267.73 111.726 268.968 110.498C270.206 109.27 270.31 107.466 270.295 105.791C270.317 104.337 270.169 102.886 269.853 101.466C268.759 96.9928 265.334 93.5431 263.187 89.5765C262.138 87.643 261.572 86.5146 259.36 87.8418C257.148 89.1689 255.09 90.9385 252.997 92.4695Z" fill="#3F3D56"/>
<path d="M343.17 86.5692C344.566 87.4754 345.825 88.5768 346.908 89.8399C348.037 91.2963 348.678 93.0857 349.766 94.5769C350.855 96.0681 352.252 97.1418 353.445 98.4739C355.259 100.492 356.487 102.948 357.69 105.388C354.745 109.22 351.536 112.84 348.086 116.224C347.702 116.677 347.194 117.008 346.625 117.179C346.239 117.22 345.849 117.165 345.49 117.018C345.131 116.872 344.814 116.638 344.567 116.339C344.03 115.782 343.652 115.086 343.14 114.504C341.934 113.26 340.327 112.484 338.602 112.312C336.892 112.146 335.172 112.121 333.458 112.238C333.081 112.282 332.7 112.218 332.359 112.054C332.105 111.879 331.9 111.643 331.763 111.368C329.774 107.948 330.396 103.653 331.106 99.7464L332.732 90.7992C332.969 89.091 333.425 87.4204 334.089 85.8285C334.705 84.5113 336.077 82.2745 337.777 82.6722C339.477 83.0698 341.734 85.5353 343.17 86.5692Z" fill="#3F3D56"/>
<path d="M201.421 152.157L167.178 159.161L166.398 159.086L136.306 156.049V117.914L173.143 111.686L199.866 114.803L199.876 114.972V115.051L201.421 152.157Z" fill="#ED7971"/>
<path opacity="0.1" d="M201.421 152.157L167.178 159.161L166.398 159.086V119.992L199.875 114.972L201.421 152.157Z" fill="#A83B34"/>
<path opacity="0.05" d="M199.876 115.051L199.866 115.061L166.398 119.992L136.306 117.914L173.143 111.686L199.866 114.803L199.876 114.972V115.051Z" fill="black"/>
<path d="M219.316 114.38L185.073 121.389L184.293 121.309L154.2 118.272V80.1372L191.038 73.9089L217.76 77.0255L217.77 77.1945V77.2741L219.316 114.38Z" fill="#3F3D56"/>
<path opacity="0.1" d="M219.316 114.38L185.073 121.389L184.292 121.309V82.2148L217.77 77.1945L219.316 114.38Z" fill="black"/>
<path opacity="0.05" d="M217.77 77.2741L217.76 77.284L184.293 82.2149L154.2 80.1372L191.038 73.9089L217.76 77.0255L217.77 77.1945V77.2741Z" fill="black"/>
</g>
<defs>
<clipPath id="clip0_150_206">
<rect width="472" height="349.761" fill="white"/>
</clipPath>
</defs>
</svg>
