<svg width="92" height="92" viewBox="0 0 92 92" fill="none" xmlns="http://www.w3.org/2000/svg">
<g clip-path="url(#clip0_545_153)">
<path d="M13.7816 85.8576V87.3941C13.7823 89.935 15.8403 91.9958 18.3812 92H62.8482C65.3877 91.9972 67.445 89.9392 67.4478 87.3997V79.1608C67.6324 79.0415 67.8135 78.9193 67.9967 78.7972C68.1574 78.9699 68.2929 79.158 68.4719 79.3187C71.6283 82.1347 76.4679 81.8659 79.2924 78.7172C87.3355 69.7103 91.8432 58.0945 91.9814 46.0204C91.8516 33.6977 87.0449 21.884 78.5344 12.9719C70.0392 4.36445 58.5722 1.14495e-05 44.4478 1.14495e-05C30.011 -0.0105171 16.5373 7.24086 8.59382 19.2954C0.649665 31.3506 -0.698693 46.5917 5.00568 59.8542C4.08057 61.2706 3.05439 62.619 1.93415 63.8866C-0.870659 67.0452 -0.592705 71.8764 2.55463 74.6925C5.70197 77.5092 10.5346 77.2495 13.3633 74.1134C13.6096 73.8361 13.837 73.5455 14.0778 73.2634C15.4297 74.6166 16.8707 75.8787 18.391 77.0403C15.5048 79.0485 13.783 82.3418 13.7816 85.8576ZM16.8482 87.3941V85.8576C16.8482 81.6209 20.2777 78.1837 24.5144 78.1739H26.0481C28.888 78.1753 31.4927 79.7518 32.8123 82.2667C32.7786 82.3664 32.7316 82.471 32.7021 82.5685C32.3561 83.6284 32.1799 84.7367 32.1813 85.852V87.4004C32.1869 87.924 32.2824 88.4428 32.4642 88.9341H18.3812C17.5333 88.9313 16.8468 88.242 16.8482 87.3941ZM62.8482 88.9334H36.7816C35.9351 88.932 35.2493 88.2462 35.2479 87.3997V85.8513C35.2479 85.0476 35.3764 84.2489 35.6284 83.4852C35.7014 83.243 35.787 83.0051 35.8853 82.7721C37.1073 79.9792 39.8658 78.1732 42.9148 78.1697H44.4478C47.8317 78.1788 50.8835 80.2045 52.2052 83.3189C52.2165 83.3504 52.2417 83.3708 52.2551 83.401C52.2516 83.4733 52.2537 83.5456 52.2607 83.6179C52.42 84.3142 53.0391 84.8083 53.7536 84.809C53.8694 84.809 53.9846 84.7964 54.0976 84.7697C57.6766 83.9436 61.1334 82.6556 64.3812 80.9387V87.3997C64.3805 88.2462 63.6947 88.932 62.8482 88.9334ZM11.0765 72.0694C9.34626 73.8909 6.49723 74.0481 4.57752 72.4274C2.69221 70.726 2.53498 67.8215 4.22516 65.9264C5.04639 65.0034 5.80375 64.0404 6.5218 63.0591C8.0365 65.9018 9.86777 68.5641 11.9791 70.9962C11.678 71.3549 11.386 71.722 11.0765 72.0694ZM4.58103 42.9334C4.607 20.9259 22.441 3.0919 44.4478 3.06663C57.7208 3.06663 68.455 7.12364 76.35 15.126C84.2331 23.4878 88.7134 34.4895 88.9148 45.9797C88.7871 57.3126 84.5574 68.2153 77.0098 76.6697C75.2803 78.4912 72.4299 78.6484 70.5109 77.0277C68.6263 75.3277 68.4669 72.426 70.1536 70.5295C75.7794 64.2383 79.0734 56.205 79.4833 47.7751C79.503 47.3687 79.3598 46.9714 79.0861 46.6703C78.8123 46.3699 78.4305 46.1895 78.0241 46.1706C77.1853 46.1502 76.4792 46.7932 76.4195 47.6298C76.0433 55.3571 73.0244 62.7201 67.8675 68.4869C66.0082 70.5891 65.4466 73.5392 66.4033 76.177C65.9745 76.4634 65.547 76.761 65.1189 77.0284C61.8747 78.9895 58.3651 80.4726 54.6984 81.4328C52.7352 77.571 48.7799 75.1283 44.4478 75.1024H42.9148C39.6194 75.1108 36.5107 76.6339 34.4857 79.2338C32.4586 76.6332 29.3456 75.1108 26.0481 75.1073H24.5144C23.5093 75.1094 22.5084 75.2533 21.5432 75.5354C10.9101 68.0847 4.57963 55.9165 4.58103 42.9334Z" fill="#333333"/>
<path d="M19.4659 36.3509C21.2733 34.7147 23.6106 33.7854 26.0484 33.7335C28.4833 33.7995 30.8157 34.7267 32.6308 36.3509C33.1186 36.838 33.8711 36.9405 34.4712 36.6008C35.0706 36.261 35.3704 35.5626 35.2026 34.8944C34.0171 30.6297 30.6844 27.2977 26.4204 26.1122C25.5991 25.9065 24.766 26.4056 24.5603 27.2275C24.3554 28.0487 24.8544 28.8819 25.6764 29.0876C27.1103 29.4392 28.4278 30.158 29.5003 31.1729C28.3801 30.8388 27.2177 30.6683 26.0484 30.6669C22.7992 30.7265 19.6849 31.9773 17.2977 34.1827C16.7144 34.7835 16.7215 35.7423 17.3139 36.3347C17.9063 36.9271 18.8644 36.9342 19.4659 36.3509Z" fill="#333333"/>
<path d="M42.1599 36.6008C42.7593 36.9405 43.5125 36.8381 43.9996 36.3509C45.807 34.7148 48.1443 33.7855 50.5813 33.7335C53.0184 33.7995 55.3515 34.7281 57.1673 36.3545C57.7667 36.9525 58.7382 36.9511 59.3355 36.3509C59.9335 35.7515 59.9321 34.7808 59.3327 34.1828C56.9448 31.9774 53.8312 30.7266 50.5813 30.6669C49.4127 30.6683 48.2496 30.8389 47.1294 31.173C48.2026 30.1587 49.5201 29.4407 50.9541 29.0883C51.764 28.8736 52.2519 28.0474 52.0483 27.2339C51.8448 26.4211 51.0256 25.9214 50.2093 26.1137C45.946 27.2999 42.614 30.6311 41.4278 34.8945C41.2607 35.5634 41.5598 36.2611 42.1599 36.6008Z" fill="#333333"/>
<path d="M21.5169 20.9427C23.2183 20.9778 24.9085 20.6606 26.4808 20.0106C28.0748 19.3424 29.48 18.2937 30.575 16.9566C31.6755 15.6644 32.3711 14.076 32.5733 12.3907C32.5901 12.2216 32.4947 12.0608 32.3381 11.9948C32.1816 11.9282 32.0005 11.9717 31.8903 12.1008L31.8552 12.1429C30.9371 13.259 29.9082 14.2788 28.7844 15.1871C27.7231 16.0322 26.5587 16.7383 25.3191 17.2879C24.0409 17.801 22.7087 18.1681 21.3484 18.3836C20.6542 18.519 19.9299 18.5401 19.2013 18.6545C18.4678 18.7029 17.7231 18.7219 16.9468 18.83L16.8773 18.8398C16.6169 18.8756 16.4147 19.0834 16.3846 19.3445C16.3537 19.6049 16.5039 19.8534 16.7481 19.9488C17.5034 20.2422 18.2769 20.4865 19.0637 20.6802C19.873 20.8346 20.6936 20.9224 21.5169 20.9427Z" fill="#333333"/>
<path d="M50.1812 20.0105C51.7542 20.6604 53.4444 20.9777 55.1458 20.9426C55.9691 20.9215 56.789 20.8338 57.5976 20.6801C58.3844 20.4856 59.1579 20.2414 59.9131 19.948C60.1581 19.8532 60.3076 19.6047 60.2774 19.3436C60.2465 19.0825 60.0437 18.8755 59.784 18.839L59.7145 18.8291C58.9389 18.7218 58.1942 18.7028 57.4607 18.6544C56.7321 18.54 56.0077 18.5182 55.3129 18.3827C53.9526 18.168 52.6211 17.8002 51.3429 17.2871C50.1033 16.7375 48.9389 16.0321 47.8783 15.187C46.7538 14.2787 45.7248 13.2581 44.8068 12.1421L44.7703 12.0986C44.6601 11.9694 44.4783 11.9266 44.3217 11.9933C44.1659 12.06 44.0705 12.2207 44.088 12.3899C44.2902 14.0759 44.9857 15.6636 46.0863 16.9558C47.1813 18.2936 48.5872 19.3422 50.1812 20.0105Z" fill="#333333"/>
<path d="M28.0313 53.2177C28.63 53.8165 29.6 53.8165 30.1987 53.2177L33.7153 49.7019L37.2311 53.2177C37.8299 53.8165 38.8006 53.8165 39.3993 53.2177L42.9152 49.7019L46.431 53.2177C47.0297 53.8165 48.0005 53.8165 48.5992 53.2177L52.115 49.7019L55.6309 53.2177C56.0162 53.615 56.5854 53.7737 57.121 53.6333C57.6558 53.4922 58.0742 53.0746 58.2146 52.539C58.3549 52.0042 58.1963 51.4349 57.799 51.0496L53.1988 46.4493C52.6 45.8506 51.63 45.8506 51.0313 46.4493L47.5147 49.9651L43.9989 46.4493C43.4002 45.8506 42.4294 45.8506 41.8307 46.4493L38.3149 49.9651L34.799 46.4493C34.2003 45.8506 33.2296 45.8506 32.6308 46.4493L29.115 49.9651L25.5992 46.4493C25.0004 45.8506 24.0297 45.8506 23.431 46.4493L18.8307 51.0496C18.2474 51.6504 18.2551 52.6085 18.8475 53.2009C19.4393 53.7933 20.3981 53.801 20.9989 53.2177L24.5147 49.7019L28.0313 53.2177Z" fill="#333333"/>
</g>
<defs>
<clipPath id="clip0_545_153">
<rect width="92" height="92" fill="white"/>
</clipPath>
</defs>
</svg>
