<svg width="21" height="20" viewBox="0 0 21 20" fill="none" xmlns="http://www.w3.org/2000/svg">
<path d="M14.0049 0H6.32423C2.92078 0 0.15918 2.7616 0.15918 6.16505V13.8403C0.15918 17.2438 2.91538 20 6.32423 20H13.9995C17.403 20 20.1592 17.2438 20.1592 13.8403V6.16505C20.1646 2.7562 17.4084 0 14.0049 0ZM18.2444 13.1014C18.2444 15.8522 16.0168 18.0798 13.266 18.0798H7.06317C4.31236 18.0798 2.08475 15.8522 2.08475 13.1014V6.8986C2.08475 4.14779 4.31236 1.92017 7.06317 1.92017H13.266C16.0168 1.92017 18.2444 4.15318 18.2444 6.8986V13.1014Z" fill="#333333"/>
<path d="M10.4342 4.76807C7.52162 4.76807 5.16455 7.12513 5.16455 10.0378C5.16455 12.945 7.52162 15.3074 10.4342 15.3074C13.3415 15.3074 15.7039 12.9504 15.7039 10.0378C15.6985 7.12513 13.3415 4.76807 10.4342 4.76807ZM10.4342 13.2039C8.68127 13.2039 7.26272 11.7853 7.26272 10.0324C7.26272 8.27939 8.68127 6.86084 10.4342 6.86084C12.1818 6.86084 13.6058 8.27939 13.6058 10.0324C13.6004 11.7853 12.1818 13.2039 10.4342 13.2039Z" fill="#333333"/>
<path d="M16.6748 4.68765C16.6748 5.42659 16.0761 6.0253 15.3372 6.0253C14.5982 6.0253 13.9995 5.42659 13.9995 4.68765C13.9995 3.9487 14.5982 3.3446 15.3372 3.3446C16.0761 3.3446 16.6748 3.94331 16.6748 4.68765Z" fill="#333333"/>
</svg>
