<svg width="21" height="20" viewBox="0 0 21 20" fill="none" xmlns="http://www.w3.org/2000/svg">
<path fill-rule="evenodd" clip-rule="evenodd" d="M4.82827 19.9998V6.50563H0.541242V19.9998H4.82827ZM2.68501 4.66319C4.18003 4.66319 5.11053 3.62669 5.11053 2.33132C5.08246 1.00769 4.18003 0 2.71359 0C1.24716 0 0.288086 1.00823 0.288086 2.33132C0.288086 3.62669 1.21858 4.66319 2.65747 4.66319H2.68501Z" fill="#333333"/>
<path fill-rule="evenodd" clip-rule="evenodd" d="M7.20068 20H11.4882V12.4647C11.4882 12.0617 11.5163 11.6588 11.6291 11.3706C11.9389 10.5646 12.6443 9.72938 13.8285 9.72938C15.3802 9.72938 16.0008 10.9671 16.0008 12.7806V19.9995H20.2879V12.2618C20.2879 8.11756 18.1727 6.18872 15.3516 6.18872C13.0389 6.18872 12.0236 7.54114 11.4596 8.46288H11.4882V6.50521H7.20068C7.25734 7.77171 7.20068 20 7.20068 20Z" fill="#333333"/>
</svg>
