<svg width="24" height="20" viewBox="0 0 24 20" fill="none" xmlns="http://www.w3.org/2000/svg">
<path fill-rule="evenodd" clip-rule="evenodd" d="M19.6562 1.64872C18.7955 0.656034 17.5691 0.0235574 16.2119 0.000639076C13.606 -0.0433644 11.4931 2.19056 11.4931 4.99003C11.4931 5.38734 11.5349 5.77478 11.6154 6.14671C7.69363 5.88864 4.2166 3.81689 1.88935 0.693966C1.48317 1.44229 1.25041 2.31692 1.25041 3.25383C1.25041 5.02749 2.08347 6.6016 3.34962 7.53102C2.57613 7.49638 1.84852 7.25883 1.21234 6.86913C1.21188 6.89043 1.21188 6.91174 1.21188 6.93342C1.21188 9.41034 2.83844 11.4883 4.99711 11.9723C4.60116 12.0862 4.18429 12.1457 3.75396 12.1428C3.4499 12.1408 3.15423 12.1066 2.86616 12.0452C3.46657 14.0765 5.20917 15.5588 7.27411 15.6078C5.65916 16.9678 3.62458 17.7777 1.41371 17.7731C1.03283 17.7723 0.657236 17.7474 0.288086 17.6993C2.37637 19.1529 4.85669 19.9993 7.52147 20C16.2009 20.0023 20.9473 12.3396 20.9473 5.69322C20.9473 5.47516 20.9425 5.25826 20.9336 5.04242C21.8555 4.34548 22.6555 3.47168 23.2881 2.47388C22.4419 2.86084 21.5324 3.11785 20.578 3.22565C21.5522 2.61742 22.3005 1.64396 22.6527 0.476603C21.7409 1.03758 20.7311 1.43987 19.6562 1.64872Z" fill="#333333"/>
</svg>
